<svg width="14" height="22" viewBox="0 0 14 22" fill="none" xmlns="http://www.w3.org/2000/svg">
<g clip-path="url(#clip0_653_1176)">
<mask id="mask0_653_1176" style="mask-type:luminance" maskUnits="userSpaceOnUse" x="0" y="3" width="14" height="19">
<path d="M0.236328 3.59473H13.7496V21.9931H0.236328V3.59473Z" fill="#202B3D"/>
</mask>
<g mask="url(#mask0_653_1176)">
<path fill-rule="evenodd" clip-rule="evenodd" d="M3.83795 18.6287C4.05245 18.6287 4.21283 18.6292 4.37321 18.6287C5.66037 18.6252 6.94902 18.6599 8.23404 18.6045C9.06086 18.5686 9.66888 18.1015 9.98832 17.3265C10.6147 15.8068 9.62334 14.3173 7.94298 14.273C6.86834 14.2447 5.79237 14.2668 4.71707 14.2663H3.83795V18.6287ZM3.85098 3.60872C5.07314 3.61909 6.29546 3.62288 7.51728 3.64181C9.15441 3.66701 10.5785 4.20901 11.7276 5.39741C13.5824 7.31551 13.5093 10.4335 11.5667 12.2624C11.5078 12.318 11.4415 12.3658 11.353 12.4377C11.4647 12.5319 11.54 12.6136 11.6312 12.6696C14.3833 14.352 14.2399 18.3228 12.4264 20.172C11.27 21.3512 9.8687 21.9573 8.23437 21.9767C5.65773 22.0073 3.08043 21.9859 0.503298 21.9846C0.424263 21.9846 0.345228 21.964 0.236328 21.9487V11.062C0.423108 11.062 0.609558 11.062 0.795843 11.062C2.99793 11.0618 5.19986 11.0738 7.40162 11.0567C8.89305 11.0452 9.80616 9.73132 9.32948 8.32691C9.05921 7.53053 8.38353 7.02919 7.51844 7.02047C6.31427 7.00812 5.1101 7.01734 3.86732 7.01734V3.59473L3.85098 3.60872Z" fill="#202B3D"/>
</g>
<path fill-rule="evenodd" clip-rule="evenodd" d="M3.79551 3.53853H0.234985V0.00683594H3.77837C3.77837 1.20052 3.77837 2.37693 3.77901 3.55301L3.79551 3.53853Z" fill="#202B3D"/>
</g>
<defs>
<clipPath id="clip0_653_1176">
<rect width="13.53" height="21.9862" fill="white" transform="translate(0.234985 0.00683594)"/>
</clipPath>
</defs>
</svg>
