<svg width="201" height="45" viewBox="0 0 201 45" fill="none" xmlns="http://www.w3.org/2000/svg">
<path fill-rule="evenodd" clip-rule="evenodd" d="M20.5538 16.5922C19.6724 15.4487 18.505 14.7221 17.0518 14.4124C18.3383 14.0312 19.3627 13.3523 20.125 12.3755C20.9112 11.3987 21.3043 10.1718 21.3043 8.69476C21.3043 6.69359 20.5777 5.10932 19.1244 3.94197C17.695 2.77462 15.7058 2.19095 13.1567 2.19095H1.86432V27.2771H13.5497C16.1703 27.2771 18.2072 26.6696 19.6605 25.4546C21.1375 24.2158 21.8761 22.5481 21.8761 20.4517C21.8761 18.9984 21.4353 17.712 20.5538 16.5922ZM11.9774 12.3398H7.97504V7.08667H11.9774C12.978 7.08667 13.7403 7.313 14.2644 7.76564C14.8124 8.21829 15.0864 8.87344 15.0864 9.73108C15.0864 10.5887 14.8124 11.2439 14.2644 11.6965C13.7403 12.1253 12.978 12.3398 11.9774 12.3398ZM14.8362 21.6666C14.2883 22.1193 13.5021 22.3456 12.4777 22.3456H7.97504V16.8067H12.4062C13.4306 16.8067 14.2287 17.0568 14.8005 17.5571C15.3961 18.0574 15.6939 18.7483 15.6939 19.6297C15.6939 20.5112 15.408 21.1902 14.8362 21.6666ZM29.7442 27.2771V0.833008H23.6335V27.2771H29.7442ZM52.076 27.2771V7.33682H45.9652V18.1646C45.9652 19.4987 45.6198 20.535 44.9289 21.2736C44.238 22.0121 43.297 22.3814 42.1058 22.3814C40.9385 22.3814 40.0094 22.0121 39.3185 21.2736C38.6276 20.535 38.2822 19.4987 38.2822 18.1646V7.33682H32.2072V18.9865C32.2072 20.7256 32.5288 22.2384 33.172 23.5249C33.8152 24.8113 34.7205 25.8 35.8879 26.4909C37.0552 27.158 38.4013 27.4915 39.926 27.4915C41.2124 27.4915 42.3798 27.2294 43.428 26.7053C44.5001 26.1574 45.3458 25.4427 45.9652 24.5612V27.2771H52.076ZM73.368 18.7721C73.4395 18.1527 73.4752 17.5571 73.4752 16.9853C73.4752 14.9842 73.0464 13.2331 72.1888 11.7323C71.3549 10.2314 70.1876 9.07593 68.6867 8.26594C67.1858 7.45594 65.4705 7.05094 63.5408 7.05094C61.5635 7.05094 59.8124 7.46785 58.2877 8.30167C56.763 9.13549 55.5719 10.3267 54.7142 11.8752C53.8804 13.4237 53.4635 15.2343 53.4635 17.3069C53.4635 19.3796 53.8923 21.1902 54.75 22.7387C55.6076 24.2872 56.7988 25.4784 58.3235 26.3122C59.8482 27.1461 61.5873 27.563 63.5408 27.563C65.1608 27.563 66.626 27.2652 67.9363 26.6696C69.2465 26.074 70.3305 25.2521 71.1882 24.2039C72.0696 23.1556 72.6771 21.9764 73.0107 20.6661H66.5068C65.9113 21.9525 64.8511 22.5958 63.3264 22.5958C62.302 22.5958 61.4324 22.2741 60.7177 21.6309C60.0269 20.9639 59.6338 20.0109 59.5385 18.7721H73.368ZM66.1495 12.8758C66.8642 13.4952 67.2215 14.329 67.2215 15.3772H59.5742C59.741 14.2814 60.1698 13.4356 60.8607 12.84C61.5754 12.2445 62.4449 11.9467 63.4693 11.9467C64.5414 11.9467 65.4348 12.2564 66.1495 12.8758ZM84.8435 26.6338C86.2967 27.2294 87.9405 27.5272 89.7749 27.5272C91.657 27.5272 93.2889 27.1818 94.6707 26.4909C96.0524 25.8 97.1007 24.8709 97.8154 23.7036C98.5539 22.5362 98.9232 21.2378 98.9232 19.8084C98.9232 18.3075 98.5539 17.0806 97.8154 16.1277C97.0768 15.1747 96.1954 14.4481 95.171 13.9478C94.1704 13.4475 92.8601 12.9234 91.2401 12.3755C89.6201 11.8514 88.4289 11.363 87.6666 10.9103C86.9042 10.4577 86.523 9.82637 86.523 9.01638C86.523 8.27785 86.7494 7.718 87.202 7.33682C87.6547 6.93182 88.2502 6.72932 88.9888 6.72932C89.8464 6.72932 90.5492 6.96756 91.0972 7.44403C91.6451 7.89667 91.9429 8.52799 91.9905 9.33799H98.6015C98.4824 6.97947 97.5771 5.14506 95.8857 3.83477C94.1942 2.50065 91.9667 1.83359 89.2032 1.83359C86.4873 1.83359 84.2836 2.50065 82.5922 3.83477C80.9007 5.14506 80.055 6.96756 80.055 9.30226C80.055 10.8746 80.4242 12.1492 81.1628 13.1259C81.9013 14.1027 82.7828 14.8412 83.8072 15.3415C84.8316 15.8418 86.1538 16.3421 87.7738 16.8424C88.8935 17.1759 89.7511 17.4737 90.3467 17.7358C90.9661 17.9978 91.4783 18.3314 91.8833 18.7364C92.3121 19.1414 92.5266 19.6536 92.5266 20.273C92.5266 21.0115 92.2645 21.5952 91.7404 22.024C91.2163 22.429 90.5016 22.6315 89.5963 22.6315C88.7148 22.6315 88.0001 22.3933 87.4522 21.9168C86.9042 21.4165 86.5826 20.7018 86.4873 19.7727H79.9835C80.0311 21.4165 80.4838 22.8221 81.3414 23.9894C82.2229 25.1568 83.3903 26.0383 84.8435 26.6338ZM100.897 12.0539C100.087 13.6024 99.682 15.3653 99.682 17.3427C99.682 19.32 100.087 21.083 100.897 22.6315C101.731 24.18 102.839 25.3831 104.22 26.2408C105.602 27.0984 107.103 27.5272 108.723 27.5272C109.986 27.5272 111.105 27.2771 112.082 26.7768C113.083 26.2765 113.928 25.6094 114.619 24.7756V28.4023H120.73V7.33682H114.619V9.62387C114 8.8377 113.19 8.2302 112.189 7.80138C111.189 7.34873 110.057 7.12241 108.794 7.12241C107.151 7.12241 105.626 7.56314 104.22 8.44461C102.839 9.30226 101.731 10.5053 100.897 12.0539ZM113.976 14.6268C114.405 15.3415 114.619 16.2349 114.619 17.3069C114.619 18.379 114.405 19.2843 113.976 20.0228C113.571 20.7614 113.023 21.3212 112.332 21.7024C111.665 22.0597 110.974 22.2384 110.26 22.2384C109.545 22.2384 108.854 22.0597 108.187 21.7024C107.52 21.3212 106.972 20.7733 106.543 20.0586C106.114 19.32 105.9 18.4147 105.9 17.3427C105.9 16.2706 106.114 15.3653 106.543 14.6268C106.972 13.8883 107.52 13.3403 108.187 12.983C108.854 12.6018 109.545 12.4112 110.26 12.4112C110.998 12.4112 111.701 12.6018 112.368 12.983C113.035 13.3403 113.571 13.8883 113.976 14.6268ZM136.943 27.2771H143.054V7.33682H136.943V18.1646C136.943 19.4987 136.598 20.535 135.907 21.2736C135.216 22.0121 134.275 22.3814 133.084 22.3814C131.917 22.3814 130.988 22.0121 130.297 21.2736C129.606 20.535 129.26 19.4987 129.26 18.1646V7.33682H123.185V18.9865C123.185 20.7256 123.507 22.2384 124.15 23.5249C124.794 24.8113 125.699 25.8 126.866 26.4909C128.034 27.158 129.38 27.4915 130.904 27.4915C132.191 27.4915 133.358 27.2294 134.406 26.7053C135.478 26.1574 136.324 25.4427 136.943 24.5612V27.2771ZM145.585 11.8752C144.823 13.4237 144.442 15.2224 144.442 17.2712C144.442 19.32 144.823 21.1306 145.585 22.703C146.371 24.2515 147.432 25.4546 148.766 26.3122C150.1 27.1461 151.577 27.563 153.197 27.563C154.602 27.563 155.829 27.2771 156.878 26.7053C157.95 26.1336 158.783 25.3831 159.379 24.454V27.2771H165.49V7.33682H159.379V10.1599C158.807 9.23079 157.985 8.48035 156.913 7.90858C155.865 7.33682 154.638 7.05094 153.233 7.05094C151.589 7.05094 150.1 7.46785 148.766 8.30167C147.432 9.13549 146.371 10.3267 145.585 11.8752ZM158.093 13.6977C158.95 14.5792 159.379 15.7822 159.379 17.3069C159.379 18.8317 158.95 20.0347 158.093 20.9162C157.259 21.7977 156.234 22.2384 155.019 22.2384C153.804 22.2384 152.768 21.7977 151.91 20.9162C151.077 20.0109 150.66 18.7959 150.66 17.2712C150.66 15.7465 151.077 14.5553 151.91 13.6977C152.768 12.8162 153.804 12.3755 155.019 12.3755C156.234 12.3755 157.259 12.8162 158.093 13.6977ZM176.915 8.08726C175.843 8.70667 174.949 9.56432 174.235 10.6602V7.33682H168.124V27.2771H174.235V18.0217C174.235 16.3778 174.616 15.2343 175.378 14.5911C176.14 13.924 177.284 13.5905 178.809 13.5905H180.488V7.12241C179.178 7.12241 177.987 7.44403 176.915 8.08726ZM200.312 18.7721C200.383 18.1527 200.419 17.5571 200.419 16.9853C200.419 14.9842 199.99 13.2331 199.133 11.7323C198.299 10.2314 197.131 9.07593 195.631 8.26594C194.13 7.45594 192.414 7.05094 190.485 7.05094C188.507 7.05094 186.756 7.46785 185.232 8.30167C183.707 9.13549 182.516 10.3267 181.658 11.8752C180.824 13.4237 180.407 15.2343 180.407 17.3069C180.407 19.3796 180.836 21.1902 181.694 22.7387C182.551 24.2872 183.743 25.4784 185.267 26.3122C186.792 27.1461 188.531 27.563 190.485 27.563C192.105 27.563 193.57 27.2652 194.88 26.6696C196.19 26.074 197.274 25.2521 198.132 24.2039C199.013 23.1556 199.621 21.9764 199.954 20.6661H193.451C192.855 21.9525 191.795 22.5958 190.27 22.5958C189.246 22.5958 188.376 22.2741 187.662 21.6309C186.971 20.9639 186.578 20.0109 186.482 18.7721H200.312ZM193.093 12.8758C193.808 13.4952 194.165 14.329 194.165 15.3772H186.518C186.685 14.2814 187.114 13.4356 187.805 12.84C188.519 12.2445 189.389 11.9467 190.413 11.9467C191.485 11.9467 192.379 12.2564 193.093 12.8758Z" fill="white"/>
<rect x="114.599" y="31.5388" width="3.04562" height="3.04562" fill="#4D88C7"/>
<rect x="117.643" y="31.5388" width="3.04562" height="3.04562" fill="#265CAA"/>
<rect x="114.599" y="34.585" width="3.04562" height="3.04562" fill="#359CD6"/>
<rect x="117.643" y="34.585" width="3.04562" height="3.04562" fill="#516BB3"/>
<path d="M4.62471 32.2423C5.52621 32.2423 6.31401 32.421 6.98811 32.7784C7.6622 33.1357 8.18199 33.6393 8.54746 34.289C8.92106 34.9306 9.10786 35.6737 9.10786 36.5184C9.10786 37.3549 8.92106 38.098 8.54746 38.7478C8.18199 39.3975 7.65814 39.9011 6.97592 40.2584C6.30183 40.6158 5.51809 40.7944 4.62471 40.7944H1.42072V32.2423H4.62471ZM4.4907 38.9914C5.2785 38.9914 5.89168 38.7762 6.33025 38.3458C6.76882 37.9153 6.98811 37.3062 6.98811 36.5184C6.98811 35.7306 6.76882 35.1174 6.33025 34.6788C5.89168 34.2403 5.2785 34.021 4.4907 34.021H3.50392V38.9914H4.4907ZM15.9491 37.2859C15.9491 37.4808 15.9369 37.6838 15.9125 37.895H11.1979C11.2304 38.3173 11.3644 38.6422 11.5999 38.8696C11.8436 39.0889 12.14 39.1985 12.4893 39.1985C13.009 39.1985 13.3704 38.9792 13.5735 38.5407H15.7907C15.677 38.9874 15.4699 39.3894 15.1694 39.7467C14.877 40.1041 14.5075 40.3843 14.0608 40.5873C13.6141 40.7904 13.1146 40.8919 12.5623 40.8919C11.8964 40.8919 11.3035 40.7498 10.7837 40.4655C10.2639 40.1812 9.85784 39.7752 9.56546 39.2473C9.27308 38.7194 9.12689 38.1021 9.12689 37.3955C9.12689 36.6889 9.26902 36.0717 9.55328 35.5438C9.84566 35.0159 10.2517 34.6098 10.7715 34.3255C11.2913 34.0413 11.8882 33.8992 12.5623 33.8992C13.2202 33.8992 13.805 34.0372 14.3166 34.3134C14.8283 34.5895 15.2262 34.9834 15.5105 35.4951C15.8029 36.0067 15.9491 36.6037 15.9491 37.2859ZM13.8171 36.7377C13.8171 36.3803 13.6953 36.0961 13.4517 35.8849C13.208 35.6737 12.9035 35.5682 12.538 35.5682C12.1888 35.5682 11.8923 35.6697 11.6487 35.8727C11.4131 36.0758 11.2669 36.3641 11.2101 36.7377H13.8171ZM45.8961 39.028V40.7944H44.8362C44.0809 40.7944 43.492 40.6117 43.0697 40.2462C42.6474 39.8726 42.4362 39.2676 42.4362 38.431V35.7265H41.6078V33.9966H42.4362V32.3398H44.5194V33.9966H45.8839V35.7265H44.5194V38.4554C44.5194 38.6584 44.5682 38.8046 44.6656 38.894C44.7631 38.9833 44.9255 39.028 45.1529 39.028H45.8961ZM50.5041 33.9235C51.2837 33.9235 51.9091 34.1834 52.3802 34.7032C52.8512 35.2149 53.0868 35.9214 53.0868 36.8229V40.7944H51.0157V37.1031C51.0157 36.6483 50.898 36.295 50.6624 36.0433C50.4269 35.7915 50.1102 35.6656 49.7122 35.6656C49.3142 35.6656 48.9975 35.7915 48.762 36.0433C48.5265 36.295 48.4087 36.6483 48.4087 37.1031V40.7944H46.3255V31.7794H48.4087V34.9103C48.6198 34.6098 48.9082 34.3702 49.2736 34.1915C49.6391 34.0129 50.0493 33.9235 50.5041 33.9235ZM60.2114 37.2859C60.2114 37.4808 60.1992 37.6838 60.1749 37.895H55.4602C55.4927 38.3173 55.6267 38.6422 55.8623 38.8696C56.1059 39.0889 56.4024 39.1985 56.7516 39.1985C57.2714 39.1985 57.6328 38.9792 57.8358 38.5407H60.053C59.9393 38.9874 59.7322 39.3894 59.4317 39.7467C59.1393 40.1041 58.7698 40.3843 58.3231 40.5873C57.8764 40.7904 57.3769 40.8919 56.8247 40.8919C56.1587 40.8919 55.5658 40.7498 55.046 40.4655C54.5263 40.1812 54.1202 39.7752 53.8278 39.2473C53.5354 38.7194 53.3892 38.1021 53.3892 37.3955C53.3892 36.6889 53.5313 36.0717 53.8156 35.5438C54.108 35.0159 54.5141 34.6098 55.0339 34.3255C55.5536 34.0413 56.1506 33.8992 56.8247 33.8992C57.4825 33.8992 58.0673 34.0372 58.579 34.3134C59.0906 34.5895 59.4886 34.9834 59.7728 35.4951C60.0652 36.0067 60.2114 36.6037 60.2114 37.2859ZM58.0795 36.7377C58.0795 36.3803 57.9576 36.0961 57.714 35.8849C57.4703 35.6737 57.1658 35.5682 56.8003 35.5682C56.4511 35.5682 56.1546 35.6697 55.911 35.8727C55.6755 36.0758 55.5293 36.3641 55.4724 36.7377H58.0795ZM65.8412 35.7265H64.7204V40.7944H62.6372V35.7265H61.8819V33.9966H62.6372V33.8017C62.6372 32.9652 62.8768 32.3317 63.356 31.9012C63.8352 31.4627 64.5377 31.2434 65.4636 31.2434C65.6179 31.2434 65.7316 31.2474 65.8047 31.2556V33.022C65.4067 32.9977 65.1265 33.0545 64.9641 33.1926C64.8017 33.3306 64.7204 33.5784 64.7204 33.9357V33.9966H65.8412V35.7265ZM72.8017 33.9966V40.7944H70.7185V39.8686C70.5073 40.1691 70.219 40.4127 69.8535 40.5995C69.4962 40.7782 69.0982 40.8675 68.6597 40.8675C68.1399 40.8675 67.681 40.7538 67.283 40.5264C66.8851 40.2909 66.5765 39.9538 66.3572 39.5153C66.1379 39.0767 66.0282 38.561 66.0282 37.9681V33.9966H68.0993V37.6879C68.0993 38.1427 68.217 38.496 68.4526 38.7478C68.6881 38.9995 69.0048 39.1254 69.4028 39.1254C69.8089 39.1254 70.1297 38.9995 70.3652 38.7478C70.6007 38.496 70.7185 38.1427 70.7185 37.6879V33.9966H72.8017ZM77.3558 39.028V40.7944H76.296C75.5407 40.7944 74.9518 40.6117 74.5295 40.2462C74.1072 39.8726 73.896 39.2676 73.896 38.431V35.7265H73.0676V33.9966H73.896V32.3398H75.9792V33.9966H77.3437V35.7265H75.9792V38.4554C75.9792 38.6584 76.028 38.8046 76.1254 38.894C76.2229 38.9833 76.3853 39.028 76.6127 39.028H77.3558ZM84.4978 33.9966V40.7944H82.4146V39.8686C82.2035 40.1691 81.9151 40.4127 81.5497 40.5995C81.1923 40.7782 80.7944 40.8675 80.3558 40.8675C79.836 40.8675 79.3771 40.7538 78.9792 40.5264C78.5812 40.2909 78.2726 39.9538 78.0533 39.5153C77.834 39.0767 77.7244 38.561 77.7244 37.9681V33.9966H79.7954V37.6879C79.7954 38.1427 79.9132 38.496 80.1487 38.7478C80.3842 38.9995 80.701 39.1254 81.0989 39.1254C81.505 39.1254 81.8258 38.9995 82.0613 38.7478C82.2969 38.496 82.4146 38.1427 82.4146 37.6879V33.9966H84.4978ZM87.3464 35.1296C87.5901 34.756 87.8946 34.4636 88.2601 34.2524C88.6256 34.0332 89.0317 33.9235 89.4784 33.9235V36.1285H88.9058C88.386 36.1285 87.9962 36.2423 87.7363 36.4697C87.4764 36.6889 87.3464 37.0788 87.3464 37.6392V40.7944H85.2632V33.9966H87.3464V35.1296ZM96.1511 37.2859C96.1511 37.4808 96.1389 37.6838 96.1146 37.895H91.3999C91.4324 38.3173 91.5664 38.6422 91.802 38.8696C92.0456 39.0889 92.3421 39.1985 92.6913 39.1985C93.2111 39.1985 93.5725 38.9792 93.7755 38.5407H95.9927C95.879 38.9874 95.6719 39.3894 95.3714 39.7467C95.0791 40.1041 94.7095 40.3843 94.2628 40.5873C93.8161 40.7904 93.3167 40.8919 92.7644 40.8919C92.0984 40.8919 91.5055 40.7498 90.9857 40.4655C90.466 40.1812 90.0599 39.7752 89.7675 39.2473C89.4751 38.7194 89.3289 38.1021 89.3289 37.3955C89.3289 36.6889 89.4711 36.0717 89.7553 35.5438C90.0477 35.0159 90.4538 34.6098 90.9736 34.3255C91.4933 34.0413 92.0903 33.8992 92.7644 33.8992C93.4222 33.8992 94.007 34.0372 94.5187 34.3134C95.0303 34.5895 95.4283 34.9834 95.7125 35.4951C96.0049 36.0067 96.1511 36.6037 96.1511 37.2859ZM94.0192 36.7377C94.0192 36.3803 93.8974 36.0961 93.6537 35.8849C93.4101 35.6737 93.1055 35.5682 92.74 35.5682C92.3908 35.5682 92.0943 35.6697 91.8507 35.8727C91.6152 36.0758 91.469 36.3641 91.4121 36.7377H94.0192ZM96.0928 32.1936H99.6013V33.3997H98.5902L98.6024 36.4697H97.0917L97.1039 33.3997H96.0928V32.1936ZM105.973 32.1936V36.4697H104.596L104.56 34.021L103.561 36.4697H102.549L101.551 33.8992V36.4697H100.223V32.1936H102.245L103.11 34.6423L104.109 32.1936H105.973Z" fill="white"/>
<path d="M19.0825 40.8919C18.4897 40.8919 17.9617 40.7904 17.4988 40.5873C17.0359 40.3843 16.6704 40.1082 16.4024 39.7589C16.1344 39.4016 15.9841 39.0036 15.9516 38.565H18.0105C18.0348 38.8006 18.1445 38.9914 18.3394 39.1376C18.5343 39.2838 18.7739 39.3569 19.0582 39.3569C19.3181 39.3569 19.517 39.3082 19.6551 39.2107C19.8013 39.1051 19.8744 38.9711 19.8744 38.8087C19.8744 38.6138 19.7729 38.4716 19.5698 38.3823C19.3668 38.2848 19.0379 38.1793 18.5831 38.0656C18.0958 37.9519 17.6897 37.8341 17.3648 37.7123C17.0399 37.5823 16.7597 37.3833 16.5242 37.1153C16.2887 36.8392 16.1709 36.4697 16.1709 36.0067C16.1709 35.6169 16.2765 35.2636 16.4877 34.9468C16.707 34.622 17.0237 34.3662 17.4379 34.1794C17.8602 33.9926 18.3597 33.8992 18.9363 33.8992C19.7891 33.8992 20.4592 34.1103 20.9465 34.5326C21.4419 34.955 21.7261 35.5154 21.7992 36.2138H19.8744C19.8419 35.9783 19.7363 35.7915 19.5577 35.6534C19.3871 35.5154 19.1597 35.4463 18.8754 35.4463C18.6318 35.4463 18.445 35.4951 18.315 35.5925C18.1851 35.6819 18.1201 35.8077 18.1201 35.9702C18.1201 36.1651 18.2216 36.3113 18.4247 36.4087C18.6358 36.5062 18.9607 36.6037 19.3993 36.7011C19.9028 36.8311 20.313 36.961 20.6297 37.091C20.9465 37.2128 21.2226 37.4158 21.4581 37.7001C21.7018 37.9762 21.8277 38.3498 21.8358 38.8209C21.8358 39.2188 21.7221 39.5762 21.4947 39.8929C21.2754 40.2016 20.9546 40.4452 20.5322 40.6239C20.118 40.8026 19.6348 40.8919 19.0825 40.8919Z" fill="#4D88C7"/>
<path d="M23.427 33.29C23.0615 33.29 22.761 33.1845 22.5255 32.9733C22.2981 32.754 22.1844 32.486 22.1844 32.1692C22.1844 31.8444 22.2981 31.5764 22.5255 31.3652C22.761 31.1459 23.0615 31.0363 23.427 31.0363C23.7844 31.0363 24.0767 31.1459 24.3042 31.3652C24.5397 31.5764 24.6574 31.8444 24.6574 32.1692C24.6574 32.486 24.5397 32.754 24.3042 32.9733C24.0767 33.1845 23.7844 33.29 23.427 33.29ZM24.4625 33.9966V40.7944H22.3793V33.9966H24.4625Z" fill="#265CAA"/>
<path d="M27.8239 33.8992C28.3031 33.8992 28.7214 33.9966 29.0787 34.1915C29.4442 34.3865 29.7244 34.6423 29.9193 34.959V33.9966H32.0025V40.7823C32.0025 41.4076 31.8766 41.9721 31.6249 42.4756C31.3812 42.9873 31.0036 43.3934 30.4919 43.6939C29.9884 43.9944 29.3589 44.1446 28.6036 44.1446C27.5965 44.1446 26.7803 43.905 26.1549 43.4258C25.5296 42.9548 25.1722 42.3132 25.0829 41.501H27.1417C27.2067 41.7609 27.361 41.964 27.6046 42.1101C27.8483 42.2645 28.1488 42.3416 28.5062 42.3416C28.9366 42.3416 29.2777 42.2157 29.5295 41.964C29.7894 41.7203 29.9193 41.3264 29.9193 40.7823V39.8198C29.7163 40.1366 29.4361 40.3965 29.0787 40.5995C28.7214 40.7944 28.3031 40.8919 27.8239 40.8919C27.2635 40.8919 26.7559 40.7498 26.3011 40.4655C25.8463 40.1731 25.4849 39.763 25.2169 39.2351C24.957 38.699 24.827 38.0818 24.827 37.3833C24.827 36.6849 24.957 36.0717 25.2169 35.5438C25.4849 35.0159 25.8463 34.6098 26.3011 34.3255C26.7559 34.0413 27.2635 33.8992 27.8239 33.8992ZM29.9193 37.3955C29.9193 36.8757 29.7731 36.4656 29.4807 36.1651C29.1965 35.8646 28.8473 35.7143 28.4331 35.7143C28.0189 35.7143 27.6656 35.8646 27.3732 36.1651C27.0889 36.4575 26.9468 36.8636 26.9468 37.3833C26.9468 37.9031 27.0889 38.3173 27.3732 38.626C27.6656 38.9265 28.0189 39.0767 28.4331 39.0767C28.8473 39.0767 29.1965 38.9265 29.4807 38.626C29.7731 38.3255 29.9193 37.9153 29.9193 37.3955Z" fill="#359CD6"/>
<path d="M36.9207 33.9235C37.7166 33.9235 38.3501 34.1834 38.8212 34.7032C39.3004 35.2149 39.5399 35.9214 39.5399 36.8229V40.7944H37.4689V37.1031C37.4689 36.6483 37.3512 36.295 37.1156 36.0433C36.8801 35.7915 36.5634 35.6656 36.1654 35.6656C35.7674 35.6656 35.4507 35.7915 35.2152 36.0433C34.9796 36.295 34.8619 36.6483 34.8619 37.1031V40.7944H32.7787V33.9966H34.8619V34.8981C35.073 34.5976 35.3573 34.3621 35.7146 34.1915C36.072 34.0129 36.474 33.9235 36.9207 33.9235Z" fill="#516BB3"/>
</svg>
