<svg width="25" height="26" viewBox="0 0 25 26" fill="none" xmlns="http://www.w3.org/2000/svg">
<g clip-path="url(#clip0_653_993)">
<path fill-rule="evenodd" clip-rule="evenodd" d="M1.04167 0.5C0.46637 0.5 0 0.96637 0 1.54167C0 2.11696 0.46637 2.58333 1.04167 2.58333H4.3545L5.22078 6.91154C5.2254 6.94118 5.23126 6.97041 5.23832 6.99917L6.97829 15.6925C7.12132 16.4115 7.51276 17.0583 8.08383 17.518C8.6523 17.9756 9.36289 18.2198 10.0923 18.2083H20.1993C20.9288 18.2198 21.6394 17.9756 22.2078 17.518C22.7791 17.0581 23.1705 16.4119 23.3134 15.6925L23.3149 15.6847L24.9816 6.94513C25.0397 6.64019 24.9588 6.32519 24.7609 6.086C24.563 5.8468 24.2688 5.70833 23.9583 5.70833H7.10462L6.22974 1.33723C6.1323 0.850401 5.70482 0.5 5.20833 0.5H1.04167ZM7.52159 7.79167H22.6992L21.2693 15.29C21.2211 15.5284 21.091 15.7426 20.9014 15.8951C20.711 16.0484 20.4727 16.1299 20.2283 16.1252L20.2083 16.125H10.0833L10.0634 16.1252C9.81895 16.1299 9.58066 16.0484 9.39022 15.8951C9.19978 15.7418 9.06933 15.5264 9.02171 15.2867L7.52159 7.79167Z" fill="#1F1F1F"/>
<path d="M7.29167 22.375C7.29167 21.2244 8.22441 20.2917 9.375 20.2917C10.5256 20.2917 11.4583 21.2244 11.4583 22.375C11.4583 23.5256 10.5256 24.4583 9.375 24.4583C8.22441 24.4583 7.29167 23.5256 7.29167 22.375Z" fill="#1F1F1F"/>
<path d="M18.75 22.375C18.75 21.2244 19.6827 20.2917 20.8333 20.2917C21.9839 20.2917 22.9167 21.2244 22.9167 22.375C22.9167 23.5256 21.9839 24.4583 20.8333 24.4583C19.6827 24.4583 18.75 23.5256 18.75 22.375Z" fill="#1F1F1F"/>
</g>
<defs>
<clipPath id="clip0_653_993">
<rect width="25" height="25" fill="white" transform="translate(0 0.5)"/>
</clipPath>
</defs>
</svg>
