<svg width="25" height="26" viewBox="0 0 25 26" fill="none" xmlns="http://www.w3.org/2000/svg">
<path fill-rule="evenodd" clip-rule="evenodd" d="M12.5 2.58325C9.62352 2.58325 7.29167 4.9151 7.29167 7.79159C7.29167 10.6681 9.62352 12.9999 12.5 12.9999C15.3765 12.9999 17.7083 10.6681 17.7083 7.79159C17.7083 4.9151 15.3765 2.58325 12.5 2.58325ZM9.375 7.79159C9.375 6.0657 10.7741 4.66659 12.5 4.66659C14.2259 4.66659 15.625 6.0657 15.625 7.79159C15.625 9.51748 14.2259 10.9166 12.5 10.9166C10.7741 10.9166 9.375 9.51748 9.375 7.79159Z" fill="#1F1F1F"/>
<path d="M8.33333 15.0833C6.952 15.0833 5.62724 15.632 4.65049 16.6087C3.67373 17.5855 3.125 18.9103 3.125 20.2916V22.3749C3.125 22.9502 3.59137 23.4166 4.16667 23.4166C4.74196 23.4166 5.20833 22.9502 5.20833 22.3749V20.2916C5.20833 19.4628 5.53757 18.6679 6.12362 18.0819C6.70968 17.4958 7.50453 17.1666 8.33333 17.1666H16.6667C17.4955 17.1666 18.2903 17.4958 18.8764 18.0819C19.4624 18.6679 19.7917 19.4628 19.7917 20.2916V22.3749C19.7917 22.9502 20.258 23.4166 20.8333 23.4166C21.4086 23.4166 21.875 22.9502 21.875 22.3749V20.2916C21.875 18.9102 21.3263 17.5855 20.3495 16.6087C19.3728 15.632 18.048 15.0833 16.6667 15.0833H8.33333Z" fill="#1F1F1F"/>
</svg>
