<svg width="18" height="18" viewBox="0 0 18 18" fill="none" xmlns="http://www.w3.org/2000/svg">
<path d="M6.11282 8.99919C6.11282 7.40376 7.40587 6.11007 9.00136 6.11007C10.5969 6.11007 11.8906 7.40376 11.8906 8.99919C11.8906 10.5946 10.5969 11.8883 9.00136 11.8883C7.40587 11.8883 6.11282 10.5946 6.11282 8.99919ZM4.55096 8.99919C4.55096 11.4571 6.5434 13.4494 9.00136 13.4494C11.4593 13.4494 13.4518 11.4571 13.4518 8.99919C13.4518 6.54132 11.4593 4.54896 9.00136 4.54896C6.5434 4.54896 4.55096 6.54132 4.55096 8.99919ZM12.5879 4.3725C12.5878 4.5782 12.6487 4.77929 12.763 4.95037C12.8772 5.12144 13.0396 5.2548 13.2296 5.33359C13.4196 5.41239 13.6287 5.43306 13.8304 5.39302C14.0322 5.35297 14.2176 5.25399 14.3631 5.1086C14.5086 4.96322 14.6077 4.77795 14.6479 4.57622C14.6881 4.3745 14.6676 4.16538 14.589 3.97531C14.5103 3.78525 14.3771 3.62277 14.2061 3.50842C14.0351 3.39408 13.8341 3.333 13.6284 3.33292H13.628C13.3522 3.33305 13.0878 3.4426 12.8928 3.63752C12.6978 3.83244 12.5882 4.09679 12.5879 4.3725ZM5.49989 16.0536C4.65489 16.0152 4.19561 15.8744 3.89039 15.7555C3.48575 15.598 3.19703 15.4104 2.89348 15.1072C2.58992 14.8041 2.40202 14.5157 2.24518 14.1111C2.1262 13.806 1.98545 13.3466 1.94704 12.5016C1.90502 11.5881 1.89663 11.3137 1.89663 8.99926C1.89663 6.68484 1.90571 6.41118 1.94704 5.49688C1.98552 4.65192 2.12731 4.19342 2.24518 3.88745C2.40272 3.48282 2.59034 3.19411 2.89348 2.89057C3.19661 2.58703 3.48505 2.39914 3.89039 2.24231C4.19547 2.12333 4.65489 1.98258 5.49989 1.94417C6.41346 1.90216 6.6879 1.89377 9.00136 1.89377C11.3148 1.89377 11.5895 1.90285 12.5039 1.94417C13.3489 1.98265 13.8074 2.12444 14.1134 2.24231C14.518 2.39914 14.8067 2.58745 15.1103 2.89057C15.4138 3.1937 15.6011 3.48282 15.7586 3.88745C15.8776 4.19251 16.0183 4.65192 16.0567 5.49688C16.0987 6.41118 16.1071 6.68484 16.1071 8.99926C16.1071 11.3137 16.0987 11.5873 16.0567 12.5016C16.0182 13.3466 15.8768 13.8059 15.7586 14.1111C15.6011 14.5157 15.4134 14.8044 15.1103 15.1072C14.8072 15.4101 14.518 15.598 14.1134 15.7555C13.8083 15.8745 13.3489 16.0152 12.5039 16.0536C11.5903 16.0957 11.3159 16.104 9.00136 16.104C6.68686 16.104 6.41319 16.0957 5.49989 16.0536ZM5.42813 0.385005C4.50547 0.427021 3.875 0.573314 3.3244 0.787554C2.75418 1.0088 2.27146 1.30561 1.78909 1.7872C1.30672 2.26879 1.01065 2.75225 0.789403 3.32245C0.575155 3.87337 0.428856 4.50347 0.386838 5.42609C0.344127 6.35017 0.334351 6.6456 0.334351 8.99919C0.334351 11.3528 0.344127 11.6482 0.386838 12.5723C0.428856 13.495 0.575155 14.125 0.789403 14.6759C1.01065 15.2458 1.30679 15.7298 1.78909 16.2112C2.27139 16.6926 2.75418 16.989 3.3244 17.2108C3.87604 17.4251 4.50547 17.5714 5.42813 17.6134C6.35272 17.6554 6.64768 17.6659 9.00136 17.6659C11.355 17.6659 11.6505 17.6561 12.5746 17.6134C13.4973 17.5714 14.1274 17.4251 14.6783 17.2108C15.2482 16.989 15.7313 16.6928 16.2136 16.2112C16.696 15.7296 16.9914 15.2458 17.2133 14.6759C17.4276 14.125 17.5746 13.4949 17.6159 12.5723C17.6579 11.6475 17.6677 11.3528 17.6677 8.99919C17.6677 6.6456 17.6579 6.35017 17.6159 5.42609C17.5739 4.5034 17.4276 3.87303 17.2133 3.32245C16.9914 2.7526 16.6952 2.26955 16.2136 1.7872C15.732 1.30485 15.2482 1.0088 14.679 0.787554C14.1274 0.573314 13.4973 0.426328 12.5753 0.385005C11.6512 0.342989 11.3557 0.33252 9.00206 0.33252C6.64837 0.33252 6.35272 0.342296 5.42813 0.385005Z" fill="#15D9EE"/>
</svg>
