<svg width="25" height="26" viewBox="0 0 25 26" fill="none" xmlns="http://www.w3.org/2000/svg">
<path d="M9.1064 9.54364C7.98855 10.4935 7.57891 12.2257 8.54414 13.6154C9.44738 14.9159 10.5852 16.0534 11.8853 16.9563C13.2751 17.9213 15.0073 17.5115 15.957 16.3936L15.9676 16.3985C17.1807 16.9605 18.4692 17.3457 19.7917 17.5419V20.2916L19.7905 20.2916L19.7876 20.2917C11.4807 20.3034 5.19945 13.9491 5.20834 5.71207V5.70833H7.95768L7.95786 5.70955C8.15416 7.03193 8.53917 8.31931 9.10118 9.53237L9.1064 9.54364ZM19.7905 22.375H20.8333C21.4086 22.375 21.875 21.9086 21.875 21.3333V16.6435C21.875 16.1272 21.4969 15.6889 20.9862 15.6131L20.0965 15.481C18.9711 15.314 17.8756 14.9864 16.8432 14.5082L16.059 14.1449C15.6046 13.9344 15.0646 14.0771 14.7735 14.4846L14.4185 14.9817C14.1074 15.4173 13.5133 15.5504 13.0736 15.245C11.9774 14.4839 11.0167 13.5234 10.2552 12.427C9.9498 11.9872 10.0829 11.3931 10.5186 11.0819L11.0154 10.7272C11.423 10.4361 11.5657 9.89605 11.3552 9.44156L10.9915 8.65659C10.5133 7.62437 10.1857 6.5289 10.0186 5.40363L9.8865 4.51371C9.81069 4.00308 9.37234 3.625 8.85612 3.625H4.16668C3.59138 3.625 3.12501 4.09137 3.12501 4.66667V5.70982C3.11489 15.0915 10.3232 22.3884 19.7905 22.375Z" fill="#1F1F1F"/>
</svg>
