<svg width="17" height="16" viewBox="0 0 17 16" fill="none" xmlns="http://www.w3.org/2000/svg">
<path fill-rule="evenodd" clip-rule="evenodd" d="M6.35351 1.74795C6.13371 1.41328 5.65695 1.25733 5.29818 1.41656C5.29818 1.41656 4.44029 1.65624 3.43014 2.68476C2.41999 3.71328 2.41999 7.31309 6.20806 11.17C9.99613 15.027 13.5317 15.027 14.5418 13.9985C15.552 12.9699 15.7874 12.0965 15.7874 12.0965C15.9363 11.7268 15.7835 11.2657 15.4439 11.0654L13.3274 9.81638C12.9888 9.61656 12.5058 9.70036 12.2458 10.0068L11.7274 10.6178C11.4686 10.9228 10.9962 10.9853 10.6734 10.7481C10.6734 10.7481 9.75389 10.152 8.4809 8.85587C7.20791 7.55973 6.62244 6.62346 6.62244 6.62346C6.39359 6.29429 6.45167 5.80993 6.74703 5.54621L7.53249 4.8449C7.83015 4.57912 7.89105 4.08899 7.67347 3.75769L6.35351 1.74795Z" stroke="#202B3D" stroke-width="2" stroke-linecap="round" stroke-linejoin="round"/>
</svg>
