<svg width="25" height="26" viewBox="0 0 25 26" fill="none" xmlns="http://www.w3.org/2000/svg">
<path fill-rule="evenodd" clip-rule="evenodd" d="M10.625 3C6.13768 3 2.49999 6.63762 2.49999 11.1249C2.49999 15.6121 6.13768 19.2497 10.625 19.2497C12.4823 19.2497 14.194 18.6266 15.5625 17.5779L20.671 22.6863C21.0894 23.1047 21.7678 23.1047 22.1862 22.6863C22.6046 22.2679 22.6046 21.5895 22.1862 21.1711L17.0778 16.0628C18.1267 14.6942 18.75 12.9823 18.75 11.1249C18.75 6.63762 15.1123 3 10.625 3ZM10.6252 5.16695C13.9159 5.16695 16.5835 7.83454 16.5835 11.1252C16.5835 14.4158 13.9159 17.0834 10.6252 17.0834C7.33448 17.0834 4.66684 14.4158 4.66684 11.1252C4.66684 7.83454 7.33448 5.16695 10.6252 5.16695Z" fill="#1F1F1F"/>
</svg>
