<svg width="26" height="18" viewBox="0 0 26 18" fill="none" xmlns="http://www.w3.org/2000/svg">
<path d="M12.6832 17.6659H12.6579C12.5794 17.6659 4.72878 17.651 2.74808 17.1253C1.65891 16.8385 0.808323 16.0066 0.515523 14.9419C0.15935 12.9779 -0.0126449 10.9863 0.00168071 8.99176C-0.00752145 6.99397 0.169127 4.99949 0.529445 3.03297C0.830292 1.96728 1.67715 1.13158 2.76453 0.827333C4.69081 0.33252 12.325 0.33252 12.649 0.33252H12.6756C12.7554 0.33252 20.6262 0.347364 22.5867 0.873104C23.6736 1.16134 24.5224 1.9915 24.8167 3.054C25.1842 5.02526 25.3567 7.02653 25.3318 9.03011C25.3407 11.0255 25.1636 13.0175 24.8028 14.9815C24.5062 16.0449 23.6551 16.8749 22.5665 17.1624C20.6427 17.6609 13.0072 17.6659 12.6832 17.6659ZM10.152 5.28684L10.1456 12.7091L16.7421 8.99795L10.152 5.28684Z" fill="#15D9EE"/>
</svg>
