<svg width="157" height="109" viewBox="0 0 157 109" fill="none" xmlns="http://www.w3.org/2000/svg">
<rect width="49" height="33" transform="matrix(1 0 0 -1 0 109)" fill="#1061DC"/>
<rect width="49" height="33" transform="matrix(1 0 0 -1 0 71)" fill="#1061DC"/>
<rect width="49" height="33" transform="matrix(1 0 0 -1 0 33)" fill="#1061DC"/>
<rect width="49" height="33" transform="matrix(1 0 0 -1 54 109)" fill="#1061DC"/>
<rect width="49" height="33" transform="matrix(1 0 0 -1 54 71)" fill="#1061DC"/>
<rect width="49" height="33" transform="matrix(1 0 0 -1 54 33)" fill="#1061DC"/>
<rect width="49" height="33" transform="matrix(1 0 0 -1 108 109)" fill="#1061DC"/>
<rect width="49" height="33" transform="matrix(1 0 0 -1 108 71)" fill="#1061DC"/>
<rect width="49" height="33" transform="matrix(1 0 0 -1 108 33)" fill="#1061DC"/>
</svg>
