<svg width="31" height="25" viewBox="0 0 31 25" fill="none" xmlns="http://www.w3.org/2000/svg">
<path d="M15.7328 0.317819C19.7891 0.317819 23.8456 0.317819 27.9024 0.317819C29.1797 0.317819 30.1258 1.04569 30.39 2.21736C30.4206 2.35369 30.4367 2.49291 30.438 2.63267C30.4423 4.04351 30.4518 5.45435 30.438 6.86346C30.4406 7.02854 30.4034 7.19178 30.3297 7.33925C30.2559 7.48671 30.1478 7.61399 30.0145 7.71022C29.8812 7.80644 29.7268 7.86874 29.5643 7.8918C29.4019 7.91485 29.2364 7.89796 29.0819 7.84258C28.647 7.68889 28.3905 7.29345 28.3896 6.75035C28.3896 5.48975 28.3896 4.22914 28.3896 2.9694C28.3896 2.44703 28.3201 2.37882 27.7935 2.37882C19.7439 2.37882 11.6949 2.37882 3.64649 2.37882C3.1198 2.37882 3.05118 2.44703 3.05118 2.9694C3.05118 9.24997 3.05118 15.53 3.05118 21.8094C3.05118 22.3093 3.12752 22.3844 3.63019 22.3853C5.81414 22.3853 7.99723 22.381 10.1812 22.3853C10.9429 22.3853 11.4327 23.0354 11.2157 23.7296C11.0759 24.1769 10.6701 24.4489 10.116 24.4497C8.68175 24.4497 7.24752 24.4497 5.81328 24.4497C5.04126 24.4497 4.26925 24.4549 3.50152 24.4497C2.01496 24.448 1.00018 23.4361 0.995895 21.9441C0.995895 15.576 0.995895 9.20881 0.995895 2.84248C0.995895 1.32976 2.01324 0.32041 3.52811 0.318683C7.59692 0.315229 11.6652 0.314941 15.7328 0.317819Z" fill="#5270FF"/>
<path d="M22.5944 11.355C24.3711 11.355 26.1479 11.355 27.9247 11.355C29.431 11.355 30.4423 12.3652 30.4449 13.8857C30.4506 16.5681 30.4506 19.2505 30.4449 21.9328C30.4449 23.4318 29.4336 24.4549 27.947 24.4584C24.3614 24.4653 20.7755 24.4653 17.1894 24.4584C15.7097 24.4584 14.6966 23.4145 14.6949 21.9242C14.6949 19.2413 14.6949 16.5586 14.6949 13.8762C14.6949 12.3868 15.7191 11.3593 17.1988 11.3559C18.9979 11.3524 20.7964 11.3521 22.5944 11.355ZM17.2992 13.4272C16.8368 13.4272 16.7502 13.5136 16.7502 13.9651C16.7502 16.5934 16.7502 19.2217 16.7502 21.85C16.7502 22.3007 16.8445 22.3956 17.2966 22.3956H27.8604C28.297 22.3956 28.3905 22.3015 28.3905 21.8681C28.3905 19.2295 28.3905 16.5905 28.3905 13.9513C28.3905 13.5084 28.3047 13.4281 27.8629 13.4272H17.2992Z" fill="#5270FF"/>
</svg>
