<svg width="31" height="25" viewBox="0 0 31 25" fill="none" xmlns="http://www.w3.org/2000/svg">
<g clip-path="url(#clip0_1339_481)">
<path d="M28.1734 0.807349H28.1733L23.0634 0.80734L23.0621 0.807357C22.7329 0.811691 22.4128 0.914861 22.1453 1.10318C21.878 1.29125 21.676 1.55526 21.5668 1.85977C21.319 2.50232 20.5936 3.08523 19.5612 3.50863C18.5331 3.93025 17.2205 4.18504 15.8327 4.18504C14.4449 4.18504 13.1321 3.93025 12.1042 3.50863C11.072 3.08523 10.3473 2.50235 10.101 1.85995C9.99153 1.55484 9.78887 1.2904 9.52088 1.10225C9.25261 0.913897 8.93176 0.811037 8.60197 0.807355L8.60197 0.807349H8.60086L3.49096 0.807349L3.49084 0.807349C2.81064 0.808126 2.15808 1.07258 1.67643 1.54341C1.1947 2.0143 0.92329 2.65324 0.922491 3.32019V3.32031L0.922484 5.41999L0.922499 5.4212C0.92641 5.74498 1.03221 6.0595 1.22519 6.32205C1.41794 6.58428 1.68824 6.78186 1.9992 6.88842C2.65777 7.12919 3.25372 7.83785 3.68636 8.84568C4.11738 9.84975 4.37788 11.1324 4.37788 12.4881C4.37788 13.8438 4.11738 15.1263 3.68636 16.1307C3.25375 17.1388 2.65779 17.8485 1.99908 18.0912C1.68852 18.1976 1.41849 18.3947 1.22579 18.6565C1.03283 18.9186 0.926828 19.2326 0.9225 19.556H0.922491V19.5573L0.922491 21.6576L0.922492 21.6577C0.923449 22.3246 1.19493 22.9634 1.67664 23.4341C2.15828 23.9048 2.81075 24.1692 3.49084 24.17H3.49096L8.60086 24.17L8.60201 24.17C8.9317 24.1662 9.2524 24.0632 9.52055 23.8749C9.78843 23.6868 9.99099 23.4224 10.1004 23.1174C10.3462 22.475 11.0707 21.8921 12.1029 21.4687C13.1308 21.0471 14.4438 20.7923 15.8315 20.7923C17.2193 20.7923 18.532 21.0471 19.5601 21.4687C20.5925 21.8921 21.3179 22.475 21.5657 23.1176C21.6749 23.4223 21.8771 23.6864 22.1446 23.8745C22.4124 24.0628 22.7327 24.1659 23.0621 24.17H23.0634H28.1739H28.174C28.8541 24.169 29.5065 23.9045 29.988 23.4337C30.4696 22.9628 30.741 22.324 30.7418 21.6571V21.657L30.7418 19.5573L30.7417 19.556C30.7373 19.2327 30.6312 18.9188 30.4383 18.6568C30.2456 18.3952 29.9756 18.1981 29.6652 18.0918C29.0065 17.849 28.4105 17.1395 27.9779 16.1316C27.5469 15.1273 27.2864 13.845 27.2864 12.4892C27.2864 11.1335 27.5469 9.85116 27.9779 8.84724C28.4105 7.83953 29.0065 7.1308 29.6652 6.8895C29.9763 6.78286 30.2467 6.58512 30.4394 6.32269C30.6324 6.0599 30.7381 5.74511 30.7418 5.42112V5.41999V3.32031V3.32019C30.741 2.65324 30.4695 2.0143 29.9878 1.54341C29.5062 1.07258 28.8536 0.808126 28.1734 0.807349ZM29.2549 5.79255L29.2549 5.79239L29.2495 5.79437C28.3074 6.14102 27.5201 7.01224 26.9697 8.18992C26.4183 9.36937 26.0989 10.8672 26.0989 12.4887C26.0989 14.1101 26.4183 15.608 26.9696 16.7873C27.52 17.9649 28.3071 18.836 29.2489 19.1824L29.2489 19.1826L29.2544 19.1842C29.3387 19.2098 29.4125 19.2599 29.466 19.3275C29.5191 19.3945 29.5497 19.4753 29.5543 19.5593V21.657C29.5543 22.0137 29.4093 22.3562 29.1506 22.6092C28.8918 22.8622 28.5403 23.0047 28.1733 23.0047H23.0658C22.9784 23.0002 22.8947 22.9698 22.8258 22.9178C22.7564 22.8653 22.7055 22.7936 22.6797 22.7124L22.6798 22.7124L22.6777 22.7068C22.3226 21.7846 21.4308 21.0153 20.2272 20.4777C19.0214 19.9391 17.49 19.627 15.8321 19.627C14.1742 19.627 12.6429 19.9391 11.4371 20.4776C10.2336 21.0151 9.34197 21.7843 8.98711 22.7063L8.98694 22.7062L8.98511 22.712C8.95936 22.7932 8.90853 22.8651 8.83911 22.9176C8.77024 22.9697 8.68647 23.0002 8.599 23.0047H3.49096C3.12398 23.0047 2.77247 22.8622 2.51366 22.6092C2.25492 22.3562 2.10999 22.0137 2.10999 21.657V19.5599C2.1145 19.476 2.14508 19.3951 2.19801 19.3282C2.25145 19.2606 2.32515 19.2104 2.40934 19.1848L2.40938 19.1849L2.41477 19.183C3.35684 18.8363 4.1441 17.9651 4.69458 16.7874C5.2459 15.608 5.56538 14.1101 5.56538 12.4887C5.56538 10.8672 5.2459 9.36937 4.69466 8.18999C4.14425 7.01239 3.35713 6.1413 2.41533 5.79493L2.41539 5.79477L2.40981 5.79308C2.32547 5.76752 2.25161 5.71729 2.19808 5.64961C2.14504 5.58255 2.11443 5.50155 2.10999 5.4175V3.32031C2.10999 2.96363 2.25492 2.62109 2.51366 2.36817C2.77247 2.11517 3.12398 1.97265 3.49096 1.97265H8.59844C8.68586 1.9771 8.76959 2.00751 8.83846 2.05955C8.90788 2.11199 8.95874 2.18377 8.98457 2.2649L8.9844 2.26495L8.98654 2.2705C9.34169 3.19275 10.2334 3.96204 11.437 4.49963C12.6429 5.03822 14.1742 5.35034 15.8321 5.35034C17.49 5.35034 19.0214 5.03822 20.2271 4.4997C21.4307 3.96218 22.3223 3.19304 22.6771 2.27105L22.6773 2.27111L22.6791 2.26536C22.7049 2.18408 22.7558 2.11215 22.8253 2.05961C22.8943 2.00747 22.9782 1.97703 23.0658 1.97265H28.1739C28.5408 1.97265 28.8923 2.11517 29.1512 2.36817C29.4099 2.62109 29.5548 2.96363 29.5548 3.32031L29.5543 5.41746C29.5497 5.50137 29.5192 5.58221 29.4662 5.64916L29.5447 5.71118L29.4662 5.64916C29.4128 5.71674 29.3391 5.76694 29.2549 5.79255Z" fill="#5270FF" stroke="#5270FF" stroke-width="0.2" stroke-linejoin="round"/>
<path d="M5.43061 2.76221C5.1377 2.76221 4.85137 2.84711 4.60783 3.00618C4.36429 3.16525 4.17447 3.39135 4.06238 3.65587C3.95029 3.9204 3.92096 4.21148 3.9781 4.4923C4.03525 4.77312 4.17629 5.03106 4.38341 5.23352C4.59053 5.43598 4.85441 5.57386 5.14169 5.62972C5.42897 5.68558 5.72674 5.65691 5.99735 5.54734C6.26796 5.43777 6.49926 5.25222 6.66199 5.01415C6.82472 4.77608 6.91157 4.49619 6.91157 4.20987C6.91157 4.01976 6.87327 3.83151 6.79884 3.65587C6.72442 3.48024 6.61533 3.32065 6.47781 3.18622C6.34029 3.05179 6.17703 2.94516 5.99735 2.8724C5.81767 2.79965 5.62509 2.76221 5.43061 2.76221ZM5.43061 4.6928C5.3329 4.6928 5.23738 4.66448 5.15614 4.61141C5.07489 4.55835 5.01157 4.48293 4.97418 4.39468C4.93678 4.30644 4.927 4.20934 4.94606 4.11566C4.96513 4.02198 5.01218 3.93593 5.08127 3.86839C5.15036 3.80085 5.23839 3.75485 5.33423 3.73622C5.43006 3.71758 5.5294 3.72715 5.61967 3.7637C5.70994 3.80025 5.7871 3.86215 5.84139 3.94157C5.89568 4.02099 5.92465 4.11436 5.92465 4.20987C5.92473 4.27331 5.912 4.33614 5.8872 4.39477C5.8624 4.45339 5.82601 4.50666 5.78012 4.55152C5.73423 4.59638 5.67973 4.63195 5.61976 4.65619C5.55979 4.68044 5.49551 4.69288 5.43061 4.6928Z" fill="#5270FF"/>
<path d="M5.43061 19.4556C5.1377 19.4556 4.85137 19.5405 4.60783 19.6995C4.36429 19.8586 4.17447 20.0847 4.06238 20.3492C3.95029 20.6138 3.92096 20.9048 3.9781 21.1857C4.03525 21.4665 4.17629 21.7244 4.38341 21.9269C4.59053 22.1293 4.85441 22.2672 5.14169 22.3231C5.42897 22.3789 5.72674 22.3503 5.99735 22.2407C6.26796 22.1311 6.49926 21.9456 6.66199 21.7075C6.82472 21.4694 6.91157 21.1896 6.91157 20.9032C6.91157 20.5193 6.75554 20.1511 6.47781 19.8796C6.20007 19.6081 5.82339 19.4556 5.43061 19.4556ZM5.43061 21.3856C5.33287 21.3856 5.23733 21.3573 5.15608 21.3042C5.07482 21.2511 5.0115 21.1756 4.97412 21.0873C4.93675 20.9991 4.927 20.9019 4.94611 20.8082C4.96521 20.7145 5.01233 20.6285 5.08148 20.561C5.15063 20.4935 5.23871 20.4475 5.33458 20.4289C5.43046 20.4104 5.52981 20.42 5.62007 20.4567C5.71034 20.4933 5.78745 20.5553 5.84167 20.6348C5.89589 20.7143 5.92476 20.8077 5.92465 20.9032C5.92465 20.9666 5.91187 21.0294 5.88703 21.088C5.8622 21.1465 5.8258 21.1997 5.77991 21.2445C5.73403 21.2893 5.67956 21.3248 5.61963 21.349C5.55969 21.3732 5.49546 21.3857 5.43061 21.3856Z" fill="#5270FF"/>
<path d="M26.7611 2.76221C26.4681 2.76221 26.1818 2.84711 25.9383 3.00618C25.6947 3.16525 25.5049 3.39135 25.3928 3.65587C25.2807 3.9204 25.2514 4.21148 25.3085 4.4923C25.3657 4.77312 25.5067 5.03106 25.7139 5.23352C25.921 5.43598 26.1849 5.57386 26.4721 5.62972C26.7594 5.68558 27.0572 5.65691 27.3278 5.54734C27.5984 5.43777 27.8297 5.25222 27.9924 5.01415C28.1552 4.77608 28.242 4.49619 28.242 4.20987C28.242 4.01976 28.2037 3.83151 28.1293 3.65587C28.0549 3.48024 27.9458 3.32065 27.8083 3.18622C27.6707 3.05179 27.5075 2.94516 27.3278 2.8724C27.1481 2.79965 26.9555 2.76221 26.7611 2.76221ZM26.7611 4.6928C26.6633 4.69291 26.5677 4.66469 26.4864 4.61169C26.4051 4.55869 26.3417 4.48331 26.3042 4.39507C26.2667 4.30684 26.2569 4.20972 26.2759 4.116C26.2949 4.02229 26.3419 3.93618 26.4109 3.86859C26.48 3.80099 26.568 3.75494 26.6639 3.73626C26.7597 3.71758 26.8591 3.72711 26.9494 3.76365C27.0397 3.80018 27.1169 3.86208 27.1712 3.94151C27.2255 4.02094 27.2545 4.11433 27.2545 4.20987C27.2545 4.33785 27.2025 4.4606 27.11 4.55116C27.0175 4.64171 26.892 4.69265 26.7611 4.6928Z" fill="#5270FF"/>
<path d="M25.2801 20.9032C25.2801 21.1896 25.3669 21.4694 25.5297 21.7075C25.6924 21.9456 25.9237 22.1311 26.1943 22.2407C26.4649 22.3503 26.7627 22.3789 27.05 22.3231C27.3373 22.2672 27.6011 22.1293 27.8083 21.9269C28.0154 21.7244 28.1564 21.4665 28.2136 21.1857C28.2707 20.9048 28.2414 20.6138 28.1293 20.3492C28.0172 20.0847 27.8274 19.8586 27.5838 19.6995C27.3403 19.5405 27.054 19.4556 26.7611 19.4556C26.3683 19.4556 25.9916 19.6081 25.7139 19.8796C25.4361 20.1511 25.2801 20.5193 25.2801 20.9032ZM26.7611 20.4203C26.8588 20.4203 26.9543 20.4486 27.0355 20.5017C27.1168 20.5548 27.1801 20.6302 27.2175 20.7184C27.2549 20.8067 27.2647 20.9038 27.2456 20.9974C27.2265 21.0911 27.1795 21.1772 27.1104 21.2447C27.0413 21.3123 26.9533 21.3582 26.8574 21.3769C26.7616 21.3955 26.6623 21.386 26.572 21.3494C26.4817 21.3128 26.4046 21.251 26.3503 21.1715C26.296 21.0921 26.267 20.9987 26.267 20.9032C26.2669 20.8398 26.2797 20.777 26.3045 20.7183C26.3293 20.6597 26.3657 20.6064 26.4115 20.5616C26.4574 20.5167 26.5119 20.4812 26.5719 20.4569C26.6319 20.4327 26.6962 20.4202 26.7611 20.4203Z" fill="#5270FF"/>
<path d="M11.876 9.27303L11.876 9.27315H11.8827H19.7816V9.27326L19.7883 9.27303C19.9667 9.26706 20.1367 9.19357 20.2622 9.0667C20.3877 8.93968 20.4587 8.76902 20.4587 8.5905C20.4587 8.41197 20.3877 8.24131 20.2622 8.1143C20.1367 7.98742 19.9667 7.91393 19.7883 7.90796L19.7883 7.90785H19.7816H11.8827V7.90774L11.876 7.90796C11.6976 7.91393 11.5275 7.98742 11.4021 8.1143C11.2766 8.24132 11.2056 8.41198 11.2056 8.5905C11.2056 8.76902 11.2766 8.93968 11.4021 9.0667C11.5275 9.19357 11.6976 9.26706 11.876 9.27303Z" fill="#5270FF" stroke="#5270FF" stroke-width="0.4"/>
<path d="M19.7883 15.7044L19.7883 15.7043H19.7816H11.8827V15.7042L11.876 15.7044C11.6976 15.7104 11.5275 15.7839 11.4021 15.9107C11.2766 16.0378 11.2056 16.2084 11.2056 16.3869C11.2056 16.5655 11.2766 16.7361 11.4021 16.8631C11.5275 16.99 11.6976 17.0635 11.876 17.0695L11.876 17.0696H11.8827H19.7816V17.0697L19.7883 17.0695C19.9667 17.0635 20.1367 16.99 20.2622 16.8631C20.3877 16.7361 20.4587 16.5655 20.4587 16.3869C20.4587 16.2084 20.3877 16.0378 20.2622 15.9107C20.1367 15.7839 19.9667 15.7104 19.7883 15.7044Z" fill="#5270FF" stroke="#5270FF" stroke-width="0.4"/>
</g>
<defs>
<clipPath id="clip0_1339_481">
<rect width="31" height="25" fill="white"/>
</clipPath>
</defs>
</svg>
