<svg width="27" height="25" viewBox="0 0 27 25" fill="none" xmlns="http://www.w3.org/2000/svg">
<g clip-path="url(#clip0_1339_492)">
<path d="M20.8507 3.33333H5.85071C5.18767 3.33333 4.55178 3.59673 4.08294 4.06557C3.6141 4.53441 3.35071 5.17029 3.35071 5.83333V7.65625H5.01737V5.83333C5.01737 5.61232 5.10517 5.40036 5.26145 5.24408C5.41773 5.0878 5.62969 5 5.85071 5H20.8507C21.0717 5 21.2837 5.0878 21.44 5.24408C21.5962 5.40036 21.684 5.61232 21.684 5.83333V7.65625H23.3507V5.83333C23.3507 5.17029 23.0873 4.53441 22.6185 4.06557C22.1496 3.59673 21.5137 3.33333 20.8507 3.33333ZM7.51737 2.5C7.51737 2.27899 7.60517 2.06702 7.76145 1.91074C7.91773 1.75446 8.12969 1.66667 8.35071 1.66667H18.3507C18.5717 1.66667 18.7837 1.75446 18.94 1.91074C19.0962 2.06702 19.184 2.27899 19.184 2.5V2.65625H20.8507V2.5C20.8507 1.83696 20.5873 1.20107 20.1185 0.732233C19.6496 0.263392 19.0137 0 18.3507 0H8.35071C7.68767 0 7.05178 0.263392 6.58294 0.732233C6.1141 1.20107 5.85071 1.83696 5.85071 2.5V2.65625H7.51737V2.5ZM23.3507 8.33333H3.35071C2.68767 8.33333 2.05178 8.59672 1.58294 9.06557C1.1141 9.53441 0.850708 10.1703 0.850708 10.8333V22.5C0.850708 23.163 1.1141 23.7989 1.58294 24.2678C2.05178 24.7366 2.68767 25 3.35071 25H23.3507C24.0137 25 24.6496 24.7366 25.1185 24.2678C25.5873 23.7989 25.8507 23.163 25.8507 22.5V10.8333C25.8507 10.1703 25.5873 9.53441 25.1185 9.06557C24.6496 8.59672 24.0137 8.33333 23.3507 8.33333ZM24.184 22.5C24.184 22.721 24.0962 22.933 23.94 23.0893C23.7837 23.2455 23.5717 23.3333 23.3507 23.3333H3.35071C3.12969 23.3333 2.91773 23.2455 2.76145 23.0893C2.60517 22.933 2.51737 22.721 2.51737 22.5V10.8333C2.51737 10.6123 2.60517 10.4004 2.76145 10.2441C2.91773 10.0878 3.12969 10 3.35071 10H23.3507C23.5717 10 23.7837 10.0878 23.94 10.2441C24.0962 10.4004 24.184 10.6123 24.184 10.8333V22.5Z" fill="#5270FF"/>
<path d="M18.0841 15.7333C17.9409 15.5037 17.747 15.3099 17.5174 15.1667L12.7257 12.1667C12.4568 12.0004 12.1484 11.909 11.8323 11.9019C11.5162 11.8948 11.204 11.9723 10.9278 12.1263C10.6517 12.2803 10.4217 12.5052 10.2617 12.7778C10.1016 13.0505 10.0173 13.3609 10.0174 13.6771V19.6584C10.0159 19.975 10.0994 20.2863 10.2592 20.5598C10.4189 20.8332 10.6491 21.0588 10.9257 21.213C11.2023 21.3673 11.5152 21.4446 11.8317 21.4368C12.1483 21.429 12.4571 21.3364 12.7257 21.1688L17.5174 18.1688C17.7147 18.0462 17.8859 17.886 18.0212 17.6972C18.1565 17.5084 18.2533 17.2948 18.3059 17.0686C18.3585 16.8424 18.366 16.608 18.328 16.3789C18.2899 16.1498 18.207 15.9304 18.0841 15.7333ZM16.6679 16.7229C16.6592 16.7366 16.6477 16.7481 16.6341 16.7568L11.8403 19.75C11.8148 19.7632 11.7851 19.7658 11.7577 19.7572C11.7303 19.7487 11.7074 19.7296 11.6939 19.7042C11.6866 19.69 11.6825 19.6743 11.682 19.6584V13.675C11.6801 13.6562 11.6841 13.6373 11.6934 13.6209C11.7027 13.6045 11.7169 13.5913 11.7341 13.5833C11.753 13.5771 11.7734 13.5771 11.7924 13.5833H11.8445L16.6361 16.575C16.66 16.5908 16.6767 16.6153 16.6827 16.6432C16.6886 16.6712 16.6833 16.7004 16.6679 16.7245V16.7229Z" fill="#5270FF"/>
</g>
<defs>
<clipPath id="clip0_1339_492">
<rect width="26" height="25" fill="white" transform="translate(0.5)"/>
</clipPath>
</defs>
</svg>
