<svg width="35" height="25" viewBox="0 0 35 25" fill="none" xmlns="http://www.w3.org/2000/svg">
<g clip-path="url(#clip0_1339_498)">
<path d="M29.3809 11.1619H5.68958C4.74301 11.1619 3.83521 10.7861 3.16588 10.1173C2.49656 9.44852 2.12053 8.54143 2.12053 7.5956C2.12053 6.64977 2.49656 5.74268 3.16588 5.07388C3.83521 4.40507 4.74301 4.02934 5.68958 4.02934H20.8189C20.6766 3.35368 20.6766 2.65583 20.8189 1.98016H5.68958C4.19929 1.98016 2.77004 2.57172 1.71624 3.62469C0.662449 4.67766 0.0704346 6.10579 0.0704346 7.59492C0.0704346 9.08404 0.662449 10.5122 1.71624 11.5651C2.77004 12.6181 4.19929 13.2097 5.68958 13.2097H29.3809C30.3271 13.2109 31.2342 13.5872 31.9032 14.2559C32.5721 14.9246 32.9483 15.8311 32.9492 16.7766V17.2602C32.9478 18.2053 32.5713 19.1112 31.9024 19.7794C31.2335 20.4475 30.3267 20.8233 29.3809 20.8244H14.1429C14.3041 21.4962 14.3223 22.1944 14.1962 22.8736H29.3809C30.8707 22.872 32.299 22.2799 33.3524 21.2273C34.4059 20.1747 34.9984 18.7475 35 17.2589V16.7752C34.9984 15.2866 34.4059 13.8594 33.3524 12.8068C32.299 11.7542 30.8707 11.1621 29.3809 11.1605V11.1619Z" fill="#5270FF"/>
<path d="M2.93125 24.9822H9.28867C10.0864 24.9822 10.8514 24.6656 11.4155 24.102C11.9796 23.5383 12.2965 22.7739 12.2965 21.9768C12.2965 21.1797 11.9796 20.4152 11.4155 19.8516C10.8514 19.288 10.0864 18.9713 9.28867 18.9713H2.93125V21.0827H0V23.1318H2.93125V24.9822Z" fill="#5270FF"/>
<path d="M32.0605 0H25.7031C24.9054 0 24.1404 0.316647 23.5763 0.88028C23.0122 1.44391 22.6953 2.20837 22.6953 3.00546C22.6953 3.80256 23.0122 4.56701 23.5763 5.13065C24.1404 5.69428 24.9054 6.01093 25.7031 6.01093H32.0605V3.89891H34.9925V1.84973H32.0605V0Z" fill="#5270FF"/>
</g>
<defs>
<clipPath id="clip0_1339_498">
<rect width="35" height="25" fill="white"/>
</clipPath>
</defs>
</svg>
