<svg width="94" height="72" viewBox="0 0 94 72" fill="none" xmlns="http://www.w3.org/2000/svg">
<path d="M92.4026 29.0086C92.0634 23.4153 88.2439 20.7548 86.7695 19.9294C86.2236 14.0526 79.4256 10.9486 77.6859 10.2339C74.3531 4.55465 66.3167 3.83998 64.3549 3.74161C58.0878 -0.656374 49.9181 0.871343 47.9423 1.32673C42.2351 -0.78008 37.767 1.08047 36.3517 1.81924C26.9585 -0.127272 21.384 5.05952 19.9391 6.64838H19.9094C12.8462 6.64838 10.1475 11.3792 9.45413 12.968C0.827475 15.42 1.25558 22.2948 1.55022 24.2042C0.414855 25.313 -0.101341 26.582 0.0164173 27.9989C0.400047 32.1876 6.4902 36.2286 7.46321 36.8443C10.442 39.9119 16.1194 40.3308 18.5523 40.3679C19.0389 48.1912 27.6507 49.4354 29.5683 49.6197C32.4877 51.492 36.116 52.1206 40.0976 51.4308C42.929 50.9501 45.7307 52.0588 46.9401 54.1533C51.4823 62.0007 56.0237 71.2156 56.0682 71.3027C56.2452 71.6597 56.6578 71.8695 57.0858 71.8695C57.2184 71.8695 57.3658 71.8447 57.4991 71.7958C58.0597 71.5985 58.3397 71.0564 58.1035 70.5887C58.059 70.4903 53.5027 61.2261 48.9309 53.33C47.8104 51.3959 45.6871 50.0897 43.2387 49.6467V41.0723H53.7679C54.2842 43.1048 56.4371 44.6449 59.0323 44.6449C61.9962 44.6449 64.4151 42.6247 64.4151 40.1479C64.4151 37.6717 61.997 35.6509 59.0323 35.6509C56.4521 35.6509 54.2842 37.191 53.7679 39.2235H42.133C41.5286 39.2235 41.0272 39.6424 41.0272 40.1473V49.4734C40.5703 49.4858 40.0985 49.5353 39.6408 49.6089C36.3524 50.1757 33.4766 49.7073 31.1023 48.2415V44.1518C33.2849 43.7329 34.9217 42.0946 34.9217 40.148C34.9217 37.8811 32.7095 36.0334 29.9966 36.0334C27.2831 36.0334 25.0714 37.8816 25.0714 40.148C25.0714 42.0946 26.7082 43.733 28.8909 44.1518V47.6631C26.369 47.2813 20.6034 45.7166 20.7359 39.4334C20.7359 39.4086 20.7211 39.3715 20.7211 39.3474C20.7211 39.3226 20.7359 39.2855 20.7211 39.2614C20.6619 38.9532 20.2345 36.2061 23.9213 35.4054C24.5108 35.2823 24.8649 34.7774 24.7175 34.2843C24.5701 33.7917 23.9657 33.496 23.3755 33.6191C19.6442 34.4198 18.5683 36.7728 18.4801 38.4978C16.2974 38.4483 11.4309 38.0666 9.11571 35.5905C9.05646 35.5286 8.98314 35.4674 8.89426 35.4179C8.83501 35.3808 2.5532 31.4636 2.2288 27.8416C2.16955 27.1022 2.37618 26.437 2.84795 25.8214C3.39378 26.1171 4.11587 26.3634 4.98603 26.3634C5.78218 26.3634 6.71166 26.1543 7.71452 25.6116C8.23073 25.3283 8.3781 24.7615 8.0389 24.3303C7.71451 23.9225 7.02129 23.7994 6.51991 24.0828C4.98611 24.9205 4.11582 24.428 3.7626 24.1075C3.51227 22.9004 2.65687 16.6172 10.6199 14.597C10.7969 14.5599 13.3039 14.1163 14.7933 15.324C15.0148 15.4966 15.2799 15.5827 15.5599 15.5827C15.8398 15.5827 16.1353 15.4843 16.356 15.2993C16.7834 14.9299 16.7693 14.3508 16.3412 13.9931C15.014 12.9091 13.3033 12.6505 12.0057 12.6381C12.9937 10.9626 15.368 8.28907 20.4405 8.49878C20.8241 8.52353 21.207 8.35091 21.4285 8.06752C21.6351 7.79652 26.5751 1.46436 36.2637 3.70612C36.6029 3.77975 36.9569 3.73087 37.222 3.55825C37.3842 3.45987 41.0414 1.23 46.1435 2.72048C45.2733 3.93999 44.3297 6.14513 45.7895 8.96662C45.9665 9.31187 46.379 9.521 46.8071 9.521C46.9545 9.521 47.1018 9.49625 47.2492 9.44737C47.8099 9.23824 48.0602 8.69561 47.8247 8.22786C46.4382 5.55432 47.9572 3.66973 48.4883 3.11535C49.9776 2.7701 57.6903 1.25485 63.205 5.33288C63.4116 5.48075 63.6619 5.56676 63.9278 5.56676C64.0159 5.56676 72.4953 5.71464 75.6509 10.9752C75.2236 11.8253 73.8372 13.9561 70.8881 13.3034C70.2985 13.1679 69.6935 13.4636 69.5313 13.9685C69.3691 14.461 69.7231 14.9665 70.3126 15.102C70.9022 15.2252 71.4628 15.287 71.979 15.287C74.7363 15.287 76.5064 13.6362 77.3907 12.1822C79.3814 13.0936 83.7465 15.5455 84.4687 19.5246H64.6938C64.0894 19.5246 63.588 19.9434 63.588 20.4483V27.9139H55.7279V19.5122C58.1608 19.081 60.0043 17.2823 60.0043 15.1142C60.0043 12.638 57.5862 10.6172 54.6214 10.6172C51.6575 10.6172 49.2386 12.6374 49.2386 15.1142C49.2386 17.2698 51.0672 19.0809 53.5149 19.5122V27.9139H48.8698C48.3536 25.8814 46.2007 24.3414 43.6055 24.3414C40.6415 24.3414 38.2226 26.3615 38.2226 28.8383C38.2226 31.3145 40.6408 33.3353 43.6055 33.3353C46.1857 33.3353 48.3536 31.7953 48.8698 29.7627H64.693C65.2973 29.7627 65.7987 29.3439 65.7987 28.839V21.3734H71.8452L71.8459 36.1189C71.8459 36.6238 72.3473 37.0427 72.9516 37.0427H79.6757C80.28 37.0427 80.7814 36.6238 80.7814 36.1189C80.7814 35.6141 80.28 35.1952 79.6757 35.1952H74.0574L74.0581 21.3846H85.4132C86.2538 21.8282 89.3652 23.7252 90.0732 28.0125C88.2001 27.7538 85.0593 27.9017 81.6384 30.587C81.1962 30.9323 81.1666 31.5232 81.5939 31.8932C81.8154 32.0905 82.1101 32.1889 82.4049 32.1889C82.67 32.1889 82.9507 32.1029 83.1566 31.9426C86.6664 29.1707 89.6452 29.7498 90.5442 30.0208C91.0012 30.7602 92.2254 33.1498 90.7064 35.7986C90.6035 35.996 90.5739 36.2051 90.6324 36.4149C90.6472 36.4644 92.1662 41.848 89.0104 45.5807C87.2996 47.6009 84.4831 48.7963 80.6488 49.1533C79.8231 48.9683 76.2104 47.9709 76.2104 44.8289C76.2104 44.3241 75.709 43.9052 75.1047 43.9052C74.5003 43.9052 73.9989 44.3241 73.9989 44.8289C73.9989 48.2172 77.0073 50.0157 79.2633 50.7181C78.8063 51.9128 77.6117 54.2534 74.6773 55.8554C71.1231 57.7896 66.1248 58.11 59.8281 56.8039C59.2674 56.1759 57.8373 54.3154 58.8697 52.7142C59.1645 52.2706 58.9579 51.7038 58.4276 51.4576C57.8966 51.2113 57.2182 51.3839 56.9234 51.8269C54.977 54.8451 58.1032 57.9745 58.3535 58.2209C58.5305 58.4059 62.055 62.2742 64.5325 69.9365C64.6947 70.429 65.299 70.7124 65.8893 70.5893C66.4788 70.4538 66.8328 69.9489 66.6706 69.4558C65.0487 64.454 63.0135 60.9921 61.627 59.0332C67.4963 59.9329 72.3036 59.3785 75.9163 57.3948C79.6764 55.3252 81.0479 52.2947 81.4901 50.9396C85.6931 50.4471 88.8191 49.0054 90.8247 46.64C94.1131 42.7469 93.1842 37.6468 92.8746 36.3041C94.6143 32.8664 92.9627 29.8482 92.4021 29.0105L92.4026 29.0086ZM59.0468 37.5217C60.7873 37.5217 62.2174 38.704 62.2174 40.1705C62.2174 41.6363 60.8021 42.8193 59.0468 42.8193C57.2923 42.8193 55.8762 41.6369 55.8762 40.1705C55.8762 38.7041 57.2922 37.5217 59.0468 37.5217ZM27.2837 40.1581C27.2837 38.9015 28.5079 37.8912 29.9972 37.8912C31.4866 37.8912 32.7107 38.9139 32.7107 40.1581C32.7107 41.4023 31.4865 42.4251 29.9972 42.4251C28.5071 42.4245 27.2837 41.4147 27.2837 40.1581ZM51.4535 15.1128C51.4535 13.6588 52.8688 12.4639 54.6241 12.4639C56.3786 12.4639 57.7947 13.6463 57.7947 15.1128C57.7947 16.5785 56.3794 17.7616 54.6241 17.7616C52.8696 17.761 51.4535 16.5786 51.4535 15.1128ZM43.6081 31.4844C41.8677 31.4844 40.4375 30.3021 40.4375 28.8356C40.4375 27.3698 41.8528 26.1868 43.6081 26.1868C45.3626 26.1868 46.7788 27.3692 46.7788 28.8356C46.7788 30.3021 45.3486 31.4844 43.6081 31.4844Z" fill="black"/>
<path d="M32.7991 22.8986C33.4034 22.8986 33.9048 22.4797 33.9048 21.9748V15.9385C36.3377 15.5073 38.1811 13.7087 38.1811 11.5406C38.1811 9.06438 35.763 7.04358 32.7983 7.04358C29.8343 7.04358 27.4155 9.06374 27.4155 11.5406C27.4155 13.6962 29.2589 15.5072 31.6918 15.9385V21.0511H22.3274C21.6935 19.154 19.6287 17.7618 17.166 17.7618C14.2021 17.7618 11.7832 19.782 11.7832 22.2588C11.7832 24.735 14.2013 26.7558 17.166 26.7558C19.8648 26.7558 22.0912 25.0803 22.46 22.9122H26.1023V31.265C26.1023 31.7699 26.6037 32.1887 27.208 32.1887H34.4779C35.0823 32.1887 35.5837 31.7699 35.5837 31.265C35.5837 30.7601 35.0823 30.3412 34.4779 30.3412H28.3138V22.9128L32.7989 22.911L32.7991 22.8986ZM29.6284 11.5523C29.6284 10.0983 31.0437 8.90345 32.7991 8.90345C34.5536 8.90345 35.9697 10.0858 35.9697 11.5523C35.9697 13.0181 34.5544 14.2011 32.7991 14.2011C31.0438 14.2011 29.6284 13.0063 29.6284 11.5523ZM17.1676 24.9069C15.4271 24.9069 13.9969 23.7245 13.9969 22.258C13.9969 20.804 15.4122 19.6092 17.1676 19.6092C18.9221 19.6092 20.3382 20.7916 20.3382 22.258C20.3234 23.712 18.9073 24.9069 17.1676 24.9069Z" fill="black"/>
</svg>
