<svg width="84" height="73" viewBox="0 0 84 73" fill="none" xmlns="http://www.w3.org/2000/svg">
<path d="M17.778 27.4054L20.922 28.1728V28.1734C21.0198 28.2045 21.0949 28.2723 21.1231 28.3569C21.4942 29.0673 21.8186 29.7939 22.0967 30.533L20.5199 32.9376V32.9381C20.1736 33.4725 20.042 34.0863 20.1453 34.6881C20.2486 35.2904 20.5812 35.8484 21.0942 36.2803L24.9736 39.5213L24.9729 39.5207C25.49 39.9493 26.1587 40.2271 26.8795 40.3134C27.6004 40.3997 28.3351 40.2898 28.9756 39.9999L31.8524 38.6837C32.7372 38.915 33.6069 39.1865 34.4572 39.4966C34.5563 39.5201 34.6362 39.5806 34.6748 39.6599L35.5038 42.0277C35.6725 42.665 36.0912 43.2368 36.6943 43.6521C37.2975 44.0669 38.0501 44.301 38.8317 44.3166H44.3175H44.3168C45.0453 44.3143 45.7532 44.1158 46.3357 43.7511C46.9182 43.3864 47.3451 42.8744 47.5524 42.2911L48.4709 39.6645H48.4716C48.5088 39.5828 48.5901 39.5201 48.6913 39.4965C49.5417 39.1864 50.4113 38.9155 51.2961 38.6831L54.1743 40.0004H54.175C54.8147 40.2909 55.5494 40.4014 56.2703 40.3151C56.9913 40.2288 57.6592 39.9498 58.1757 39.5207L62.0551 36.2797L62.0544 36.2802C62.5674 35.8482 62.9 35.2897 63.0033 34.6874C63.1066 34.0851 62.9751 33.4714 62.628 32.9363L61.0526 30.533C61.3294 29.7938 61.6544 29.0672 62.0255 28.3568C62.0538 28.274 62.126 28.2073 62.2211 28.175L65.0552 27.4824C65.8181 27.3415 66.5026 26.9918 66.9997 26.4878C67.4962 25.9839 67.7764 25.3552 67.795 24.7022V20.1198C67.7922 19.5112 67.5547 18.9198 67.1181 18.4332C66.6816 17.9465 66.0688 17.5899 65.3705 17.4167L62.2265 16.6493V16.6488C62.1287 16.6177 62.0537 16.5498 62.0254 16.4653C61.6543 15.7548 61.33 15.0283 61.0518 14.2891L62.6286 11.8846V11.884C62.975 11.3496 63.1065 10.7358 63.0032 10.1341C62.8999 9.53179 62.5674 8.97379 62.0544 8.54185L58.1756 5.30144C57.6585 4.87287 56.9899 4.59502 56.2691 4.50874C55.5481 4.42245 54.8134 4.53233 54.173 4.82225L51.2962 6.13843C51.2018 6.17525 51.0917 6.17122 51.0008 6.1275C50.1394 5.84218 49.2959 5.52003 48.4737 5.16223L47.6447 2.7945C47.476 2.15713 47.0573 1.58533 46.4541 1.17003C45.851 0.755273 45.0984 0.521152 44.3168 0.505615H38.8317C38.1032 0.507916 37.3953 0.706381 36.8128 1.07108C36.2303 1.4358 35.8034 1.94776 35.5961 2.53108L34.6776 5.15769H34.6769C34.6397 5.23938 34.5585 5.30208 34.4572 5.32566C33.6069 5.63573 32.7372 5.90666 31.8524 6.13906L28.9742 4.82173H28.9735C28.3339 4.5318 27.5991 4.42135 26.8782 4.50822C26.1579 4.59451 25.4893 4.87236 24.9728 5.30149L21.0934 8.54249L21.0941 8.54192C20.5811 8.97393 20.2485 9.53251 20.1452 10.1347C20.0419 10.737 20.1734 11.3508 20.5205 11.8859L22.0959 14.2892C22.1386 14.3686 22.1338 14.4601 22.0829 14.536C21.7413 15.2556 21.3557 15.9603 20.9274 16.6472L18.0933 17.3398C17.3304 17.4807 16.6459 17.8305 16.1488 18.3344C15.6524 18.8383 15.3721 19.4671 15.3535 20.12V24.703V24.7024C15.3563 25.311 15.5938 25.9024 16.0304 26.389C16.4669 26.8757 17.0798 27.2323 17.778 27.4054ZM18.4384 20.1198C18.4384 19.9536 18.837 19.8437 18.9596 19.8138L21.7923 19.1212H21.7916C22.8452 18.856 23.6811 18.1829 24.0363 17.3138C24.6113 15.9527 25.8479 14.4726 24.8013 13.0512L23.2265 10.649V10.6485C23.1659 10.5553 23.1852 10.4396 23.2747 10.3643L27.1542 7.12329C27.2437 7.04793 27.3821 7.03125 27.493 7.08245L30.3698 8.39863C32.074 9.27646 33.8415 8.23814 35.472 7.75953C36.5138 7.46155 37.3201 6.76262 37.6375 5.8819L38.5561 3.2547C38.5926 3.15288 38.7041 3.08327 38.8315 3.0827H44.3174C44.5163 3.0827 44.6479 3.41577 44.6837 3.51816L45.5127 5.8847C45.9782 7.50977 48.0867 7.81416 49.6559 8.44637C51.6204 9.40761 53.9822 7.78023 55.6546 7.0836L55.6539 7.08302C55.7655 7.03298 55.9032 7.04908 55.9941 7.12329L59.8736 10.3643C59.9624 10.4396 59.9823 10.5541 59.9224 10.6473L58.347 13.0507C57.2969 14.475 58.5391 15.9511 59.112 17.3133C59.7069 19.1622 62.7187 19.3876 64.5042 19.8898C64.6261 19.9203 64.7094 20.0135 64.7101 20.1199V24.7029C64.7101 24.8692 64.3114 24.979 64.1889 25.0089L61.3561 25.7015L61.3568 25.701C60.3033 25.9662 59.4673 26.6392 59.1121 27.5089C58.5372 28.87 57.3006 30.3501 58.3472 31.7715L59.9219 34.1737C59.9825 34.2669 59.9632 34.3825 59.8737 34.4579L55.9943 37.6989C55.9041 37.7731 55.767 37.7898 55.6555 37.7397L52.7787 36.4235C51.0731 35.5451 49.3077 36.584 47.6764 37.0626C46.6346 37.3606 45.8284 38.0595 45.5109 38.9403L44.5924 41.5675C44.5559 41.6693 44.4443 41.7389 44.3169 41.7395H38.8318C38.6328 41.7395 38.5013 41.4064 38.4655 41.304L37.6365 38.9375C37.171 37.313 35.0625 37.008 33.4933 36.3758C31.546 35.414 29.1601 37.0419 27.4945 37.7386V37.7391C27.383 37.7892 27.2453 37.7731 27.1544 37.6989L23.2749 34.4579C23.1861 34.3825 23.1661 34.268 23.226 34.1748L24.8015 31.7715C25.8515 30.3472 24.6094 28.8711 24.0365 27.5089C23.4416 25.66 20.4297 25.434 18.6443 24.9324C18.5224 24.9019 18.4391 24.8087 18.4384 24.7023L18.4384 20.1198Z" fill="black"/>
<path d="M41.5747 34.6531C45.4596 34.6497 49.1841 33.3588 51.9308 31.0636C54.6782 28.7689 56.2234 25.6573 56.2275 22.4118C55.4225 6.17141 27.7239 6.17583 26.9219 22.4118C26.926 25.6573 28.4719 28.7689 31.2186 31.0636C33.9653 33.3588 37.6898 34.6497 41.5747 34.6531ZM41.5747 12.7475C44.6415 12.7504 47.5817 13.7692 49.7508 15.5812C51.9198 17.3933 53.1393 19.8495 53.1427 22.4118C52.6001 35.2024 30.5478 35.199 30.0067 22.4118C30.0101 19.8496 31.2303 17.3927 33.3985 15.5812C35.5676 13.7691 38.5077 12.7503 41.5747 12.7475Z" fill="black"/>
<path d="M9.18392 72.665C20.5192 72.4377 21.7456 59.0608 10.7263 57.3185V54.6252H40.0319V57.3185C28.9989 59.0627 30.2591 72.447 41.5743 72.665C52.8923 72.4429 54.149 59.0643 43.116 57.3185L43.1167 54.6252H72.4223V57.3185C61.3741 59.069 62.6632 72.45 73.9647 72.665C85.2648 72.4492 86.5538 59.0689 75.5064 57.3185L75.5071 53.3366C75.5071 52.9949 75.3446 52.667 75.0554 52.4254C74.7662 52.1838 74.3737 52.0481 73.9647 52.0481H43.1167V48.1824C43.1167 47.4708 42.4261 46.8938 41.5743 46.8938C40.7226 46.8938 40.0319 47.4708 40.0319 48.1824V52.0481H9.18393C8.33217 52.0481 7.64153 52.625 7.64153 53.3366V57.3185C-3.37561 59.0552 -2.14716 72.4441 9.18392 72.665ZM80.1343 64.9336C80.115 66.7641 78.9348 68.4483 77.0336 69.359C75.1325 70.2696 72.7962 70.2696 70.8958 69.359C68.9947 68.4484 67.8145 66.7641 67.7951 64.9336C67.8144 63.1031 68.9946 61.4188 70.8958 60.5081C72.7969 59.5975 75.1332 59.5975 77.0336 60.5081C78.9347 61.4187 80.1149 63.1031 80.1343 64.9336ZM41.5743 59.7793C43.7654 59.7954 45.7814 60.7814 46.8715 62.3697C47.9615 63.9579 47.9615 65.9098 46.8715 67.4974C45.7815 69.0857 43.7654 70.0716 41.5743 70.0878C39.3832 70.0717 37.3672 69.0857 36.2771 67.4974C35.1871 65.9092 35.1871 63.9573 36.2771 62.3697C37.3671 60.7814 39.3832 59.7955 41.5743 59.7793ZM9.18392 59.7793C11.375 59.7954 13.3911 60.7814 14.4811 62.3697C15.5711 63.9579 15.5711 65.9098 14.4811 67.4974C13.3911 69.0857 11.375 70.0716 9.18392 70.0878C6.99284 70.0717 4.97679 69.0857 3.88671 67.4974C2.7967 65.9092 2.7967 63.9573 3.88671 62.3697C4.97672 60.7814 6.99284 59.7955 9.18392 59.7793Z" fill="black"/>
</svg>
