<svg width="69" height="73" viewBox="0 0 69 73" fill="none" xmlns="http://www.w3.org/2000/svg">
<path d="M27.9247 10.4514L27.2427 13.7751C27.0923 14.5077 27.4463 15.2343 28.1657 15.6718C28.5728 15.9183 29.0484 16.0439 29.5275 16.0439C29.8958 16.0439 30.267 15.97 30.6095 15.8191L34.1827 14.2499L37.7551 15.8191C38.5429 16.1647 39.4788 16.1076 40.199 15.6719C40.9184 15.2349 41.2724 14.5083 41.122 13.7751L40.44 10.4514L43.3298 8.09788C43.9672 7.57981 44.1923 6.81833 43.9182 6.11095C43.6434 5.40356 42.9255 4.89812 42.0442 4.79114L38.05 4.30613L36.2637 1.28251C35.8702 0.615998 35.0723 0.201904 34.1832 0.201904H34.1824C33.2925 0.201904 32.4954 0.615998 32.1012 1.28251L30.3156 4.30613L26.3214 4.79114C25.4409 4.89812 24.7229 5.40357 24.4473 6.11095C24.1732 6.81835 24.3977 7.57982 25.0351 8.09726L27.9248 10.4508L27.9247 10.4514ZM30.8196 6.42174C31.5757 6.32978 32.2289 5.93371 32.567 5.36156L34.182 2.6275L35.7971 5.36156C36.1352 5.93373 36.7884 6.32979 37.5445 6.42174L41.1559 6.85988L38.5429 8.98805C37.9961 9.43339 37.7465 10.0753 37.876 10.7039L38.4925 13.7083L35.2632 12.2899C34.9251 12.1414 34.5538 12.0675 34.1834 12.0675C33.8122 12.0675 33.4417 12.1414 33.1035 12.2899L29.8734 13.7083L30.49 10.7039C30.6187 10.0752 30.3698 9.43334 29.8231 8.98805L27.2101 6.85988L30.8215 6.42174H30.8196ZM68.1631 13.0039C67.8882 12.2966 67.1703 11.7911 66.289 11.6841L62.2948 11.1991L60.5085 8.17551C60.115 7.50839 59.3172 7.0949 58.428 7.0949C57.5373 7.0949 56.7402 7.50959 56.3467 8.17551L54.5611 11.1991L50.5664 11.6841C49.6858 11.7911 48.9679 12.2966 48.693 13.0033C48.4182 13.7101 48.6434 14.4716 49.2801 14.9903L52.1706 17.3438L51.4886 20.6675C51.3382 21.4001 51.6915 22.1267 52.4116 22.5636C53.1324 23.0006 54.0691 23.0577 54.8555 22.7115L58.4287 21.1423L62.0011 22.7115C62.3443 22.8623 62.7148 22.9363 63.0831 22.9363C63.5622 22.9363 64.0378 22.8106 64.4449 22.5642C65.1643 22.1273 65.5183 21.4007 65.3679 20.6675L64.6859 17.3438L67.5757 14.9902C68.2131 14.4722 68.4382 13.7107 68.1642 13.0033L68.1631 13.0039ZM62.7883 15.8809C62.2416 16.3263 61.992 16.9682 62.1214 17.5968L62.738 20.6012L59.5086 19.1828C58.8317 18.8859 58.0238 18.8859 57.3489 19.1828L54.1188 20.6018L54.7353 17.5968C54.8641 16.9687 54.6152 16.3274 54.0684 15.8809L51.4549 13.7528L55.0663 13.3146C55.8209 13.2227 56.4741 12.8272 56.8137 12.2544L58.4287 9.52038L60.0438 12.2544C60.3819 12.8266 61.0351 13.2227 61.7912 13.3146L65.4025 13.7528L62.7896 15.8809L62.7883 15.8809ZM13.4225 22.7115C14.2088 23.0583 15.1476 23.0012 15.8663 22.5636C16.5865 22.1267 16.9397 21.4001 16.7893 20.6675L16.1073 17.3438L18.9978 14.9903C19.6352 14.4716 19.8597 13.7101 19.5849 13.0033C19.3101 12.2959 18.5921 11.7911 17.7115 11.6841L13.7168 11.1991L11.9312 8.1755C11.5377 7.50838 10.7399 7.09489 9.84995 7.09489C8.96002 7.09489 8.16295 7.50958 7.76942 8.1755L5.98315 11.1991L1.98894 11.6841C1.10841 11.7911 0.390433 12.2966 0.114865 13.0039C-0.159231 13.7113 0.0652245 14.4728 0.702612 14.9902L3.59237 17.3438L2.91038 20.6675C2.76003 21.4001 3.11398 22.1267 3.83337 22.5642C4.24055 22.8106 4.71608 22.9363 5.19519 22.9363C5.56353 22.9363 5.93473 22.8623 6.27717 22.7115L9.85037 21.1423L13.4236 22.7115L13.4225 22.7115ZM5.53994 20.6019L6.15647 17.5975C6.28524 16.9689 6.03633 16.327 5.48958 15.8817L2.87663 13.7535L6.48795 13.3154C7.24405 13.2234 7.89725 12.8274 8.23538 12.2552L9.85043 9.52116L11.4662 12.2563C11.8043 12.8279 12.4575 13.2233 13.2129 13.3153L16.8242 13.7534L14.21 15.8828C13.6632 16.3288 13.415 16.97 13.5438 17.598L14.1604 20.603L10.931 19.1846C10.5929 19.0356 10.2217 18.9611 9.85045 18.9611C9.47996 18.9611 9.10875 19.0356 8.77062 19.184L5.54052 20.6024L5.53994 20.6019ZM56.0716 56.0416L44.0965 51.7607L40.5463 50.2533V48.969C43.2613 47.395 45.3547 44.8533 46.3656 41.8073C46.498 41.8176 46.6268 41.844 46.762 41.844C49.1864 41.844 51.159 40.196 51.159 38.1706C51.159 36.8088 50.2562 35.6308 48.9346 34.9967V33.5044C48.9346 23.369 41.3098 19.7575 34.1746 19.7575C27.0394 19.7575 19.4153 23.369 19.4153 33.5044V34.9655C18.0556 35.5911 17.1219 36.7847 17.1219 38.1706C17.1219 40.196 19.0945 41.844 21.5188 41.844C21.6757 41.844 21.8296 41.8236 21.9843 41.8097C22.9425 44.694 24.8728 47.1232 27.3813 48.71V50.4036L24.1843 51.7607L12.2271 56.0351C8.81582 57.204 6.61153 59.9489 6.61153 63.0284V67.9849C6.61153 68.4261 6.9331 68.8221 7.42374 68.9856C8.12587 69.2194 19.3909 72.8807 34.7393 72.8801C42.6498 72.8801 51.646 71.9076 60.8376 68.9921C61.3383 68.8334 61.6692 68.4325 61.6692 67.9854V63.0288C61.6692 59.9492 59.4649 57.2045 56.0715 56.0415L56.0716 56.0416ZM40.3139 52.5714L41.9462 53.2643L39.9838 57.7527L37.3213 55.4539C38.7723 54.919 39.8701 53.861 40.3139 52.5714ZM46.8719 39.681C46.9726 39.0271 47.0402 38.3618 47.0402 37.6796C47.0402 37.337 47.0273 37.001 47.0014 36.6723C47.8906 36.7714 48.5805 37.4019 48.5805 38.1706C48.5805 38.9766 47.8229 39.6317 46.8719 39.6803L46.8719 39.681ZM34.1745 21.9134C41.916 21.9134 46.3562 26.1385 46.3562 33.5063V33.7593C45.9404 32.6745 45.3405 31.699 44.5477 30.8456C44.3024 30.5817 43.9398 30.4537 43.5693 30.4441C43.5563 30.4429 43.5455 30.4363 43.5319 30.4351L38.119 30.0883C37.6701 30.0571 37.237 30.2277 36.9737 30.533C36.7112 30.8378 36.6572 31.235 36.8327 31.5812L37.2967 32.4977C32.4423 32.1492 29.3877 29.8641 28.5251 29.1327C28.5092 29.1069 28.5092 29.078 28.4905 29.0528C28.2654 28.7409 27.8783 28.578 27.474 28.5539C27.4093 28.5461 27.3474 28.5455 27.2827 28.5461C27.2373 28.5491 27.1942 28.5521 27.1496 28.5587C26.9021 28.5822 26.6589 28.6453 26.4554 28.7901C26.4244 28.8118 26.4115 28.8424 26.3841 28.8665C24.7302 29.768 22.9432 31.2746 21.9929 33.7515V33.5056C21.9929 26.1384 26.4329 21.9127 34.1738 21.9127L34.1745 21.9134ZM19.7001 38.1716C19.7001 37.3819 20.4275 36.7394 21.3504 36.6673C21.3245 36.9942 21.3087 37.3302 21.3087 37.6806C21.3087 38.3645 21.3771 39.0317 21.4778 39.688C20.4944 39.6694 19.7001 38.998 19.7001 38.1722L19.7001 38.1716ZM23.887 37.68C23.887 34.7021 24.9999 32.4759 27.1854 31.0382C28.8321 32.2889 32.7522 34.6959 38.5468 34.6959C38.7986 34.6959 39.054 34.6911 39.313 34.6821C39.7353 34.6665 40.1209 34.4796 40.3468 34.1814C40.5727 33.8834 40.6094 33.5119 40.4446 33.1862L40.0317 32.37L42.833 32.5497C43.9107 33.8942 44.4625 35.6143 44.4625 37.68C44.4625 43.6672 39.8475 48.5383 34.1751 48.5383C28.5019 48.5383 23.8878 43.6672 23.8878 37.68L23.887 37.68ZM34.1744 50.6924C35.4945 50.6924 36.7678 50.4887 37.9678 50.1136V51.3361C37.9678 52.6319 36.706 53.686 35.1543 53.686H33.0012C31.3243 53.686 29.9595 52.5458 29.9595 51.1448V49.9597C31.2825 50.4254 32.6968 50.6917 34.1745 50.6917L34.1744 50.6924ZM27.6983 52.6859C28.2328 53.9661 29.4091 54.9944 30.9076 55.4992L28.2969 57.753L26.3344 53.2646L27.6984 52.6852L27.6983 52.6859ZM59.0914 67.2375C35.9527 74.2753 13.6703 68.5357 9.19141 67.2321V63.03C9.19141 60.8279 10.7676 58.8656 13.2243 58.0236L23.9879 54.1759L26.1108 59.0303C26.3669 59.615 26.9547 60.0412 27.6841 60.171C27.8352 60.1974 27.9863 60.2106 28.1359 60.2106C28.7114 60.2106 29.2647 60.0177 29.6762 59.6631L32.676 57.0728V64.4129C32.676 65.0079 33.253 65.4899 33.9652 65.4899C34.6774 65.4899 35.2544 65.0079 35.2544 64.4129V56.7675L38.6075 59.6631C39.0183 60.0183 39.5722 60.2106 40.1477 60.2106C40.2974 60.2106 40.4492 60.1974 40.5995 60.171C41.329 60.0412 41.9167 59.615 42.1729 59.0303L44.2957 54.1759L55.0774 58.0302C57.5162 58.8656 59.0924 60.8286 59.0924 63.03V67.2377L59.0914 67.2375ZM47.7213 64.497C47.7213 65.092 47.1443 65.574 46.4321 65.574H40.6683C39.956 65.574 39.3791 65.092 39.3791 64.497C39.3791 63.902 39.956 63.42 40.6683 63.42H46.4321C47.1443 63.42 47.7213 63.902 47.7213 64.497Z" fill="black"/>
</svg>
