<svg width="90" height="73" viewBox="0 0 90 73" fill="none" xmlns="http://www.w3.org/2000/svg">
<path d="M89.0105 22.2468C88.9801 21.8542 88.7043 21.5042 88.2854 21.3258L85.3851 20.1143C85.2544 19.5934 85.0809 19.0726 84.8918 18.5512L86.6463 16.2613V16.2618C86.9078 15.9281 86.9356 15.503 86.7188 15.1471C86.2688 14.3791 85.7548 13.6386 85.1819 12.9301C84.9236 12.5959 84.4678 12.4055 83.9926 12.4336L80.7588 12.5548C80.3303 12.154 79.8752 11.7738 79.3954 11.4158L79.5404 8.71418C79.5515 8.31773 79.3294 7.94239 78.9461 7.70874C78.7286 7.58759 78.5111 7.46644 78.2793 7.35718C77.5834 6.99373 76.9308 6.69086 76.2925 6.42422C75.8704 6.23925 75.3661 6.23925 74.944 6.42422L72.2464 7.9143C71.6282 7.74338 70.9989 7.60169 70.3612 7.49027L68.9111 5.06726C68.6935 4.70705 68.2624 4.47125 67.7801 4.44962H66.3299C66.2334 4.43826 66.1363 4.43826 66.0399 4.44962C65.9389 4.43826 65.8366 4.43826 65.7356 4.44962H64.2855C63.807 4.47342 63.381 4.70923 63.1687 5.06726L61.7185 7.49027C61.0854 7.60223 60.4613 7.74338 59.8476 7.9143L57.1357 6.44859C56.7175 6.2674 56.2203 6.2674 55.8021 6.44859C55.1139 6.72766 54.4458 7.03919 53.8004 7.38155C53.5757 7.48864 53.3582 7.60601 53.1478 7.73257C52.7594 7.96406 52.5315 8.33994 52.5393 8.73855L52.7276 11.9004C52.7587 12.5104 53.3601 12.9913 54.0904 12.9907C54.4575 12.9783 54.8032 12.8425 55.0485 12.6148C55.2946 12.3866 55.4195 12.0853 55.3955 11.7792L55.2505 9.17455L56.2656 8.67806L58.8902 10.0831H58.8908C59.2495 10.2746 59.6949 10.3146 60.0943 10.1924C60.98 9.92411 61.8922 9.7213 62.8204 9.58662C63.2399 9.51577 63.6012 9.29402 63.8064 8.98087L65.2566 6.66711H65.735L65.7356 6.66657C65.8315 6.67792 65.9292 6.67792 66.0257 6.66657C66.1215 6.67901 66.2192 6.67901 66.3157 6.66657H66.765L68.2151 8.98033V8.98087C68.421 9.29402 68.7816 9.51577 69.2011 9.58662C70.1301 9.71967 71.0422 9.92249 71.9272 10.1924C72.3332 10.3081 72.7786 10.2681 73.1456 10.0831L75.7559 8.67806L76.771 9.17455L76.626 11.7792C76.6098 12.1335 76.7924 12.4737 77.1193 12.6997C77.8379 13.2038 78.5028 13.7593 79.1055 14.3596C79.3716 14.6446 79.7911 14.7993 80.2222 14.7717L83.34 14.6624C83.5433 14.941 83.7316 15.2195 83.92 15.4986L82.2233 17.7037C82.0064 18.0065 81.9591 18.3738 82.0931 18.7091C82.4104 19.4512 82.6577 20.2126 82.8325 20.9866C82.9134 21.3349 83.1736 21.6362 83.5433 21.8103L86.3128 23.0218V23.991L83.5433 25.2025C83.1594 25.3659 82.8901 25.6714 82.8182 26.0262C82.659 26.8034 82.411 27.566 82.0783 28.3043C81.9443 28.6445 81.9973 29.0171 82.2233 29.3216L83.8909 31.5023C83.7167 31.7933 83.5141 32.0718 83.3108 32.3504L80.1931 32.2292C79.7664 32.2227 79.3579 32.3736 79.077 32.6414C78.4736 33.2417 77.8087 33.7972 77.0902 34.3012C76.7587 34.5294 76.5761 34.8756 76.5968 35.2336L76.7419 37.8383L75.7267 38.3229L73.1022 36.9053V36.9059C72.739 36.7247 72.2994 36.6847 71.8987 36.7966C71.0073 37.0638 70.0906 37.2666 69.1577 37.4024C68.4086 37.5192 67.9153 38.1217 68.0558 38.7469C68.1957 39.3727 68.9162 39.7848 69.6652 39.668C70.5185 39.5387 71.3613 39.3646 72.1888 39.1472L74.9299 40.6129H74.9292C75.1519 40.7281 75.407 40.7908 75.6692 40.7946C75.8763 40.7962 76.0803 40.7546 76.2635 40.6734C77.1841 40.2997 78.071 39.8708 78.9172 39.3895C79.3127 39.1699 79.5393 38.7918 79.5121 38.3959L79.3814 35.6943C79.8455 35.3428 80.2948 34.9556 80.7448 34.5553L83.9785 34.6765C84.4958 34.6808 84.9762 34.4547 85.2403 34.0826C85.3711 33.9371 85.487 33.7797 85.6028 33.6223C86.0237 33.0653 86.3862 32.5077 86.7196 31.9625H86.7189C86.9145 31.598 86.8814 31.1767 86.6322 30.8359L84.892 28.5584C85.0953 28.0495 85.2545 27.5287 85.3996 26.9954L88.2999 25.7839C88.7174 25.5903 88.9945 25.2366 89.0392 24.839C89.1039 23.9753 89.0942 23.1089 89.0107 22.2467L89.0105 22.2468Z" fill="black"/>
<path d="M78.2357 23.517C78.2357 20.8176 76.9525 18.2292 74.668 16.321C72.384 14.4123 69.2855 13.3404 66.0544 13.3404C62.8239 13.3404 59.7254 14.4124 57.4408 16.321C55.1568 18.229 53.873 20.8176 53.873 23.517C53.873 26.2158 55.1568 28.8044 57.4408 30.7131C59.7254 32.6211 62.8237 33.6936 66.0544 33.6936C69.2841 33.6904 72.38 32.6168 74.664 30.7092C76.9473 28.8017 78.2317 26.2147 78.2357 23.517ZM56.6143 23.517C56.6143 21.4217 57.6106 19.4124 59.3838 17.9311C61.157 16.4503 63.5614 15.6179 66.0694 15.6179C68.5768 15.6179 70.9819 16.4502 72.7551 17.9311C74.5282 19.4124 75.5246 21.4217 75.5246 23.517C75.5246 25.6117 74.5283 27.621 72.7551 29.1024C70.9819 30.5837 68.5768 31.4156 66.0694 31.4156C63.5614 31.4156 61.157 30.5838 59.3838 29.1024C57.6106 27.621 56.6143 25.6117 56.6143 23.517Z" fill="black"/>
<path d="M49.7538 28.5213C49.7538 26.9101 49.8697 25.214 50.0147 23.566C50.4498 18.5989 50.8991 13.4743 46.5927 9.30631C40.7921 3.66099 30.351 -0.252654 22.3759 0.244409C22.0471 0.260093 21.7376 0.376916 21.5058 0.571625L18.1705 3.41859C17.905 3.62897 17.762 3.92537 17.7788 4.2304C17.7788 4.53166 17.9258 4.81993 18.1847 5.02977L28.3358 13.5103L26.3198 21.252L16.7922 23.2628L6.64114 14.7823H6.64179C6.38606 14.5687 6.03907 14.4486 5.67718 14.4486C5.31529 14.4486 4.96829 14.5687 4.71257 14.7823L1.37721 17.5931C1.1422 17.7905 1.00237 18.0539 0.986181 18.3319C0.492862 24.9833 5.26406 33.7062 12.08 38.4678C15.3623 40.6474 19.4965 41.7307 23.6812 41.509C25.523 41.509 27.379 41.3879 29.221 41.2667C31.0627 41.1456 33.3106 41.0125 35.3116 41.0487L69.6662 69.5433C71.6162 71.1616 74.255 72.0679 77.0037 72.0631C79.7694 72.0506 82.4152 71.1204 84.36 69.4778C86.3041 67.8353 87.388 65.6146 87.3724 63.304C87.3776 60.9924 86.2634 58.7771 84.2836 57.1616L49.7538 28.5213ZM82.4975 67.8709C81.0726 69.0921 79.1156 69.7784 77.0736 69.773C75.0479 69.7784 73.1025 69.1116 71.6646 67.9195L36.8609 39.1702V39.1697C36.7333 39.0631 36.5806 38.9804 36.4116 38.9274C36.2252 38.8381 36.0167 38.784 35.8024 38.77C33.5171 38.7375 31.2318 38.8143 28.9575 39.0004C23.3311 39.3519 18.0379 39.691 13.8325 36.7229C7.85765 32.4945 3.47801 24.7534 3.68137 18.8896L5.68241 17.1935L15.4419 25.2257C15.785 25.5085 16.2815 25.6189 16.747 25.5166L27.8698 23.1785V23.178C28.4363 23.0584 28.8461 22.6474 28.8849 22.1606L31.1909 13.2679C31.29 12.8861 31.1475 12.488 30.8135 12.2138L21.0689 4.18161L23.0849 2.49741C30.0884 2.27945 39.3986 5.84144 44.5174 10.7967C48.0844 14.2495 47.6935 18.6958 47.2869 23.3963H47.2876C47.0856 25.2125 46.9982 27.0362 47.0267 28.86C47.0202 28.9043 47.0202 28.9492 47.0267 28.993C47.028 29.2992 47.1678 29.5934 47.4177 29.8173L82.4535 58.784C83.8965 59.9884 84.7078 61.6229 84.7078 63.327C84.7078 65.0312 83.8966 66.6657 82.4535 67.8701L82.4975 67.8709Z" fill="black"/>
<path d="M73.3642 60.3605C72.4417 61.1177 71.9192 62.1513 71.9141 63.2318C71.9231 64.3033 72.4404 65.3282 73.3526 66.0816C74.2647 66.8344 75.4973 67.2547 76.7806 67.2498C78.0631 67.2449 79.2906 66.815 80.1943 66.0545C81.1052 65.2973 81.6166 64.2687 81.6166 63.1957C81.6166 62.1221 81.1052 61.0933 80.1943 60.3362C79.2673 59.6109 78.0436 59.2096 76.7734 59.214C75.5039 59.2188 74.2835 59.6287 73.3642 60.3605ZM78.5122 64.6127C78.0564 64.975 77.4518 65.1773 76.8226 65.1773C76.1939 65.1773 75.5893 64.975 75.1336 64.6127C74.6804 64.2411 74.424 63.7332 74.4214 63.2026C74.4195 62.6726 74.6707 62.1631 75.1206 61.7883C75.5706 61.414 76.1804 61.2052 76.8156 61.2085C77.4481 61.2052 78.0566 61.4124 78.5059 61.7845C78.9552 62.1566 79.2083 62.6628 79.2096 63.1912C79.2109 63.7202 78.9597 64.227 78.5124 64.6007L78.5122 64.6127Z" fill="black"/>
<path d="M40.3716 31.5749C39.8906 31.1742 39.1124 31.1742 38.6314 31.5749C38.3977 31.7664 38.2656 32.0282 38.2656 32.3018C38.2656 32.575 38.3977 32.8373 38.6314 33.0287L65.1684 54.9936C65.4021 55.1813 65.7142 55.2857 66.0385 55.2841C66.3661 55.2862 66.6801 55.177 66.9086 54.9812C67.1423 54.7897 67.2744 54.528 67.2744 54.2543C67.2744 53.9812 67.1423 53.7188 66.9086 53.5274L40.3716 31.5749Z" fill="black"/>
<path d="M71.8396 57.5982L70.3894 56.4473C69.9019 56.0849 69.1607 56.1033 68.6991 56.4889C68.2375 56.874 68.2155 57.4933 68.6493 57.901L70.0994 59.1125C70.3267 59.3029 70.6335 59.4116 70.9553 59.4154C71.288 59.4122 71.6059 59.2986 71.8396 59.1001C72.0882 58.9054 72.2293 58.6339 72.2293 58.3494C72.2293 58.0644 72.0882 57.7929 71.8396 57.5982Z" fill="black"/>
<path d="M20.9835 31.0888L19.0259 31.2825C18.7022 31.3068 18.4037 31.4388 18.1966 31.6481C17.99 31.8574 17.8917 32.1267 17.924 32.3972C17.9836 32.9229 18.5099 33.3258 19.1418 33.3301H19.2577L21.2295 33.1727L21.2302 33.1722C21.9002 33.1149 22.3916 32.6184 22.332 32.058C22.31 31.779 22.1547 31.5194 21.9015 31.3371C21.6477 31.1548 21.3169 31.0651 20.9835 31.0888Z" fill="black"/>
<path d="M32.5402 30.2302L25.1152 30.8478V30.8483C24.4879 30.9246 24.0321 31.3865 24.0619 31.916C24.0924 32.4449 24.598 32.8689 25.2311 32.8954H25.347L32.772 32.2778C33.0957 32.2529 33.3941 32.1215 33.6013 31.9122C33.8084 31.7029 33.9068 31.4335 33.8745 31.1631C33.8486 30.8905 33.6925 30.6379 33.442 30.4627C33.1908 30.2869 32.8658 30.2031 32.5402 30.2302Z" fill="black"/>
<path d="M38.9504 17.9576H39.0663C39.6988 17.9539 40.2251 17.5509 40.2847 17.0247L40.4588 15.3773H40.4582C40.5099 15.0961 40.42 14.81 40.2096 14.5861C39.9992 14.3627 39.6878 14.2215 39.3492 14.1961C39.0099 14.1712 38.6733 14.2642 38.4195 14.4536C38.1657 14.6428 38.0162 14.9111 38.0078 15.1956L37.8336 16.843C37.7831 17.406 38.2784 17.9003 38.9504 17.9576Z" fill="black"/>
<path d="M39.3711 26.7158L40.0379 20.5009H40.0386C40.0884 19.9406 39.5919 19.45 38.9218 19.3987C38.2479 19.3559 37.6562 19.7697 37.5875 20.3311L36.9207 26.5341C36.8618 27.0993 37.361 27.5974 38.0375 27.6488H38.1534C38.7859 27.645 39.3116 27.2421 39.3711 26.7158Z" fill="black"/>
</svg>
