<svg width="400" height="400" viewBox="0 0 400 400" fill="none" xmlns="http://www.w3.org/2000/svg">
<circle cx="200" cy="200" r="200" fill="url(#paint0_radial_378_3616)"/>
<path fill-rule="evenodd" clip-rule="evenodd" d="M108.281 196.944C107.277 195.642 105.948 194.815 104.293 194.462C105.758 194.028 106.925 193.255 107.793 192.143C108.688 191.031 109.136 189.634 109.136 187.952C109.136 185.673 108.308 183.869 106.653 182.54C105.026 181.211 102.761 180.546 99.8581 180.546H87V209.111H100.306C103.29 209.111 105.609 208.419 107.264 207.036C108.946 205.625 109.787 203.726 109.787 201.339C109.787 199.684 109.285 198.219 108.281 196.944ZM98.5154 192.102H93.958V186.121H98.5154C99.6547 186.121 100.523 186.379 101.12 186.894C101.743 187.409 102.055 188.155 102.055 189.132C102.055 190.108 101.743 190.854 101.12 191.37C100.523 191.858 99.6547 192.102 98.5154 192.102ZM101.771 202.722C101.147 203.238 100.251 203.496 99.085 203.496H93.958V197.189H99.0036C100.17 197.189 101.079 197.473 101.73 198.043C102.408 198.613 102.747 199.399 102.747 200.403C102.747 201.407 102.422 202.18 101.771 202.722ZM118.746 209.111V179H111.788V209.111H118.746ZM144.174 209.111V186.406H137.216V198.735C137.216 200.254 136.823 201.434 136.036 202.275C135.249 203.116 134.178 203.536 132.821 203.536C131.492 203.536 130.434 203.116 129.648 202.275C128.861 201.434 128.468 200.254 128.468 198.735V186.406H121.55V199.671C121.55 201.651 121.916 203.373 122.649 204.838C123.381 206.303 124.412 207.429 125.741 208.216C127.071 208.975 128.603 209.355 130.339 209.355C131.804 209.355 133.133 209.057 134.327 208.46C135.548 207.836 136.511 207.022 137.216 206.018V209.111H144.174ZM168.418 199.427C168.5 198.721 168.54 198.043 168.54 197.392C168.54 195.113 168.052 193.12 167.076 191.411C166.126 189.702 164.797 188.386 163.088 187.464C161.379 186.541 159.426 186.08 157.229 186.08C154.977 186.08 152.983 186.555 151.247 187.504C149.511 188.454 148.155 189.81 147.178 191.573C146.229 193.337 145.754 195.398 145.754 197.758C145.754 200.118 146.242 202.18 147.219 203.943C148.195 205.706 149.552 207.063 151.288 208.012C153.024 208.962 155.004 209.436 157.229 209.436C159.073 209.436 160.742 209.097 162.233 208.419C163.725 207.741 164.96 206.805 165.936 205.611C166.94 204.418 167.632 203.075 168.012 201.583H160.606C159.928 203.048 158.721 203.78 156.984 203.78C155.818 203.78 154.828 203.414 154.014 202.682C153.227 201.922 152.78 200.837 152.671 199.427H168.418ZM160.199 192.713C161.013 193.418 161.42 194.367 161.42 195.561H152.712C152.902 194.313 153.39 193.35 154.177 192.672C154.991 191.994 155.981 191.655 157.147 191.655C158.368 191.655 159.385 192.007 160.199 192.713ZM181.485 208.378C183.14 209.057 185.012 209.396 187.1 209.396C189.243 209.396 191.102 209.002 192.675 208.216C194.248 207.429 195.442 206.371 196.256 205.042C197.097 203.713 197.517 202.234 197.517 200.607C197.517 198.898 197.097 197.501 196.256 196.415C195.415 195.33 194.411 194.503 193.245 193.933C192.105 193.364 190.613 192.767 188.769 192.143C186.924 191.546 185.568 190.99 184.7 190.475C183.832 189.959 183.398 189.24 183.398 188.318C183.398 187.477 183.655 186.84 184.171 186.406C184.686 185.944 185.364 185.714 186.205 185.714C187.182 185.714 187.982 185.985 188.606 186.528C189.23 187.043 189.569 187.762 189.623 188.684H197.151C197.015 185.999 195.984 183.91 194.058 182.418C192.132 180.899 189.596 180.139 186.449 180.139C183.357 180.139 180.848 180.899 178.922 182.418C176.996 183.91 176.033 185.985 176.033 188.644C176.033 190.434 176.453 191.885 177.294 192.997C178.135 194.11 179.139 194.951 180.305 195.52C181.472 196.09 182.977 196.66 184.822 197.229C186.097 197.609 187.073 197.948 187.751 198.247C188.457 198.545 189.04 198.925 189.501 199.386C189.989 199.847 190.233 200.43 190.233 201.136C190.233 201.976 189.935 202.641 189.338 203.129C188.742 203.59 187.928 203.821 186.897 203.821C185.893 203.821 185.079 203.55 184.455 203.007C183.832 202.438 183.465 201.624 183.357 200.566H175.951C176.005 202.438 176.521 204.038 177.497 205.367C178.501 206.697 179.83 207.7 181.485 208.378ZM199.765 191.777C198.842 193.54 198.381 195.547 198.381 197.799C198.381 200.05 198.842 202.058 199.765 203.821C200.714 205.584 201.975 206.954 203.549 207.931C205.122 208.907 206.831 209.396 208.676 209.396C210.113 209.396 211.388 209.111 212.501 208.541C213.64 207.971 214.603 207.212 215.39 206.262V209.83H222.348V186.406H215.39V189.01C214.684 188.115 213.762 187.423 212.623 186.935C211.483 186.419 210.195 186.161 208.757 186.161C206.885 186.161 205.149 186.663 203.549 187.667C201.975 188.644 200.714 190.014 199.765 191.777ZM214.657 194.706C215.145 195.52 215.39 196.538 215.39 197.758C215.39 198.979 215.145 200.01 214.657 200.851C214.196 201.692 213.572 202.329 212.785 202.763C212.026 203.17 211.239 203.373 210.425 203.373C209.612 203.373 208.825 203.17 208.065 202.763C207.306 202.329 206.682 201.705 206.194 200.891C205.705 200.05 205.461 199.02 205.461 197.799C205.461 196.578 205.705 195.547 206.194 194.706C206.682 193.866 207.306 193.242 208.065 192.835C208.825 192.401 209.612 192.184 210.425 192.184C211.266 192.184 212.067 192.401 212.826 192.835C213.586 193.242 214.196 193.866 214.657 194.706ZM240.809 209.111H247.767V186.406H240.809V198.735C240.809 200.254 240.416 201.434 239.629 202.275C238.843 203.116 237.771 203.536 236.415 203.536C235.086 203.536 234.028 203.116 233.241 202.275C232.454 201.434 232.061 200.254 232.061 198.735V186.406H225.144V199.671C225.144 201.651 225.51 203.373 226.242 204.838C226.975 206.303 228.005 207.429 229.335 208.216C230.664 208.975 232.197 209.355 233.933 209.355C235.398 209.355 236.727 209.057 237.92 208.46C239.141 207.836 240.104 207.022 240.809 206.018V209.111ZM250.649 191.573C249.781 193.337 249.347 195.385 249.347 197.718C249.347 200.05 249.781 202.112 250.649 203.902C251.545 205.666 252.752 207.036 254.271 208.012C255.79 208.962 257.472 209.436 259.316 209.436C260.917 209.436 262.314 209.111 263.507 208.46C264.728 207.809 265.678 206.954 266.356 205.896V209.111H273.314V186.406H266.356V189.62C265.705 188.562 264.769 187.708 263.548 187.057C262.355 186.406 260.958 186.08 259.357 186.08C257.485 186.08 255.79 186.555 254.271 187.504C252.752 188.454 251.545 189.81 250.649 191.573ZM264.891 193.649C265.868 194.652 266.356 196.022 266.356 197.758C266.356 199.494 265.868 200.864 264.891 201.868C263.942 202.872 262.775 203.373 261.392 203.373C260.008 203.373 258.828 202.872 257.852 201.868C256.902 200.837 256.427 199.454 256.427 197.718C256.427 195.981 256.902 194.625 257.852 193.649C258.828 192.645 260.008 192.143 261.392 192.143C262.775 192.143 263.942 192.645 264.891 193.649ZM286.323 187.26C285.102 187.965 284.085 188.942 283.271 190.19V186.406H276.313V209.111H283.271V198.572C283.271 196.7 283.705 195.398 284.573 194.666C285.441 193.906 286.743 193.526 288.48 193.526H290.392V186.161C288.9 186.161 287.544 186.528 286.323 187.26ZM312.964 199.427C313.046 198.721 313.086 198.043 313.086 197.392C313.086 195.113 312.598 193.12 311.622 191.411C310.672 189.702 309.343 188.386 307.634 187.464C305.925 186.541 303.972 186.08 301.774 186.08C299.523 186.08 297.529 186.555 295.793 187.504C294.057 188.454 292.701 189.81 291.724 191.573C290.775 193.337 290.3 195.398 290.3 197.758C290.3 200.118 290.788 202.18 291.765 203.943C292.741 205.706 294.098 207.063 295.834 208.012C297.57 208.962 299.55 209.436 301.774 209.436C303.619 209.436 305.287 209.097 306.779 208.419C308.271 207.741 309.506 206.805 310.482 205.611C311.486 204.418 312.178 203.075 312.557 201.583H305.152C304.474 203.048 303.266 203.78 301.53 203.78C300.364 203.78 299.374 203.414 298.56 202.682C297.773 201.922 297.326 200.837 297.217 199.427H312.964ZM304.745 192.713C305.559 193.418 305.966 194.367 305.966 195.561H297.258C297.448 194.313 297.936 193.35 298.723 192.672C299.537 191.994 300.527 191.655 301.693 191.655C302.914 191.655 303.931 192.007 304.745 192.713Z" fill="white"/>
<rect x="215.363" y="213.4" width="3.46792" height="3.46792" fill="#4D88C7"/>
<rect x="218.831" y="213.4" width="3.46792" height="3.46792" fill="#265CAA"/>
<rect x="215.363" y="216.868" width="3.46792" height="3.46792" fill="#359CD6"/>
<rect x="218.831" y="216.868" width="3.46792" height="3.46792" fill="#516BB3"/>
<defs>
<radialGradient id="paint0_radial_378_3616" cx="0" cy="0" r="1" gradientUnits="userSpaceOnUse" gradientTransform="translate(200 200) rotate(90) scale(360)">
<stop stop-color="#16DBF0"/>
<stop offset="1" stop-color="#5B40FF"/>
</radialGradient>
</defs>
</svg>
