<svg width="562" height="237" viewBox="0 0 562 237" fill="none" xmlns="http://www.w3.org/2000/svg">
<path d="M129.399 3L258.799 119.831L129.399 236.662L-0.00012207 119.831L129.399 3Z" fill="#15D9EE" fill-opacity="0.28"/>
<path d="M179.399 3L308.799 119.831L179.399 236.662L49.9999 119.831L179.399 3Z" fill="#15D9EE" fill-opacity="0.28"/>
<path d="M234.399 3L363.799 119.831L234.399 236.662L105 119.831L234.399 3Z" fill="#15D9EE" fill-opacity="0.28"/>
<path d="M284.399 3L413.799 119.831L284.399 236.662L155 119.831L284.399 3Z" fill="#15D9EE" fill-opacity="0.28"/>
<path d="M335.399 0L464.799 116.831L335.399 233.662L206 116.831L335.399 0Z" fill="#15D9EE" fill-opacity="0.28"/>
<path d="M381.399 0L510.799 116.831L381.399 233.662L252 116.831L381.399 0Z" fill="#15D9EE" fill-opacity="0.28"/>
<path d="M432.399 0L561.799 116.831L432.399 233.662L303 116.831L432.399 0Z" fill="#15D9EE" fill-opacity="0.28"/>
</svg>
