<svg width="44" height="45" viewBox="0 0 44 45" fill="none" xmlns="http://www.w3.org/2000/svg">
<g clip-path="url(#clip0_645_200)">
<path d="M3.85921 8.26632C4.0565 7.54833 4.26801 6.83985 4.74701 6.24169C5.60067 5.1804 6.69619 4.57843 8.05256 4.57368C13.4021 4.55561 18.7508 4.56417 24.1004 4.56607C24.7643 4.56607 25.2386 5.00732 25.2386 5.62165C25.2452 6.255 24.7785 6.70386 24.0918 6.70481C18.8611 6.70481 13.6304 6.70481 8.39971 6.70481C6.84795 6.70481 5.9924 7.5683 5.9924 9.13266V36.4638C5.9924 38.0015 6.85649 38.8697 8.38548 38.8697H35.6892C37.222 38.8697 38.0842 38.0043 38.0842 36.4657C38.0842 31.2346 38.0842 26.0043 38.0842 20.7745C38.0842 20.066 38.4977 19.5944 39.12 19.582C39.395 19.5732 39.6626 19.6717 39.8668 19.8566C40.0709 20.0416 40.1955 20.2987 40.2145 20.5739C40.224 20.6918 40.2145 20.8107 40.2145 20.9295C40.2145 26.0895 40.1766 31.2505 40.2316 36.4095C40.2582 38.9772 38.4664 40.7336 36.5467 40.9695C36.513 40.9795 36.481 40.9946 36.4518 41.0142H7.61719C7.55231 40.9887 7.48576 40.9677 7.41801 40.9514C6.25039 40.7393 5.28007 40.1745 4.64742 39.174C4.29173 38.6111 4.11246 37.9378 3.85352 37.313L3.85921 8.26632Z" fill="white"/>
<path d="M23.1073 21.7179H30.4307C31.2417 21.7179 31.6637 22.1268 31.6637 22.9361C31.6675 25.7003 31.6675 28.4644 31.6637 31.2286C31.6637 32.0151 31.2407 32.4354 30.4506 32.4364C24.8411 32.4364 19.2313 32.4364 13.6212 32.4364C12.8368 32.4364 12.4147 32.0094 12.4147 31.222C12.4147 25.5991 12.4147 19.976 12.4147 14.3526C12.4147 13.5652 12.8368 13.141 13.6212 13.1391C16.3795 13.1347 19.1371 13.1347 21.8941 13.1391C22.7004 13.1391 23.1063 13.5633 23.1063 14.3754C23.1063 16.6768 23.1063 18.9781 23.1063 21.2795L23.1073 21.7179ZM14.5707 21.6894H20.9428V15.3178H14.5773L14.5707 21.6894ZM20.9551 23.8766H14.5887V30.2586H20.9589L20.9551 23.8766ZM29.4898 30.2662V23.8833H23.1281V30.2662H29.4898Z" fill="white"/>
<path d="M34.8944 4.56512C36.2672 4.56512 37.6397 4.56512 39.0118 4.56512C39.7915 4.56512 40.2183 4.9921 40.2193 5.77381C40.2193 8.53735 40.2193 11.3006 40.2193 14.0635C40.2193 14.8499 39.8029 15.2855 39.0223 15.2874C36.2533 15.2931 33.4846 15.2931 30.7162 15.2874C29.9574 15.2874 29.5249 14.849 29.523 14.0911C29.5185 11.3161 29.5185 8.54084 29.523 5.76525C29.523 4.9845 29.9574 4.56607 30.7418 4.56512C32.1254 4.56385 33.5095 4.56385 34.8944 4.56512ZM31.6875 6.71908V13.1068H38.0595V6.71908H31.6875Z" fill="white"/>
</g>
<defs>
<clipPath id="clip0_645_200">
<rect width="36.5175" height="36.5175" fill="white" transform="translate(3.76465 4.56226)"/>
</clipPath>
</defs>
</svg>
