<svg width="45" height="45" viewBox="0 0 45 45" fill="none" xmlns="http://www.w3.org/2000/svg">
<g clip-path="url(#clip0_645_207)">
<path d="M30.2122 24.3141V24.8346C30.2122 29.789 30.2122 34.7436 30.2122 39.6983C30.2122 40.7005 29.846 41.0616 28.8332 41.0616H6.28723C5.27997 41.0616 4.90527 40.692 4.90527 39.6917C4.90527 29.7574 4.90527 19.8228 4.90527 9.888C4.90527 7.11055 6.6806 5.02315 9.38627 4.60743C9.64779 4.56714 9.91663 4.56604 10.1822 4.56567C17.8495 4.56396 25.5169 4.56396 33.1842 4.56567C35.8151 4.56567 37.9018 6.22819 38.4428 8.7412C38.5199 9.11312 38.5581 9.49206 38.5567 9.87189C38.5645 14.2562 38.566 18.6406 38.5611 23.0252C38.5611 23.8995 38.1582 24.3104 37.2861 24.3126C35.0936 24.3174 32.9011 24.3126 30.7086 24.3126L30.2122 24.3141ZM28.0761 38.9141V38.3977C28.0761 28.9981 28.0742 19.5982 28.0703 10.1979C28.0703 8.97305 28.3149 7.8387 29.0131 6.81899C29.0303 6.79372 29.023 6.75123 29.0296 6.69885H28.6402C22.5205 6.69885 16.4009 6.69885 10.2814 6.69885C8.2977 6.69885 7.05237 7.93833 7.05164 9.92207C7.04944 19.4489 7.04944 28.9755 7.05164 38.5021C7.05164 38.6354 7.06702 38.7687 7.07581 38.9138L28.0761 38.9141ZM36.4272 22.141V20.1865C36.4272 16.7668 36.4265 13.3469 36.425 9.92683C36.4213 8.07788 35.0357 6.67578 33.26 6.70179C31.5623 6.72669 30.2199 8.11853 30.2159 9.89423C30.2069 13.8588 30.2061 17.8233 30.2137 21.7879C30.2137 21.8978 30.2258 22.0098 30.2335 22.141H36.4272Z" fill="white"/>
<path d="M20.5049 10.8608C20.9283 10.4268 21.3198 10.0129 21.7253 9.61256C22.2447 9.09978 22.8948 9.07341 23.3391 9.53345C23.7834 9.99349 23.7442 10.6048 23.238 11.1201C22.8384 11.5271 22.4403 11.9358 22.0242 12.3256C21.8469 12.4918 21.8334 12.6274 21.9279 12.8482C23.4845 16.489 20.7902 20.5103 16.8414 20.451C14.0775 20.41 11.7282 18.227 11.5015 15.4902C11.2675 12.664 13.1816 10.1455 15.9418 9.65139C17.5088 9.37119 18.9325 9.70853 20.2137 10.6521C20.2939 10.711 20.3745 10.7682 20.5049 10.8608ZM20.121 14.2599C20.0221 14.3511 19.9287 14.4313 19.8419 14.5162C19.1874 15.1693 18.5384 15.8279 17.8787 16.4758C17.3736 16.9717 16.7718 16.9787 16.2623 16.4912C15.8228 16.0711 15.3906 15.6425 14.9745 15.1997C14.5507 14.7488 14.5562 14.1038 14.9606 13.6936C15.3789 13.2698 16.0338 13.2661 16.4909 13.7112C16.6773 13.8943 16.8158 14.1243 16.9352 14.2796L18.8706 12.3307C17.6172 11.3762 15.7972 11.4883 14.6331 12.6237C13.4611 13.7646 13.2878 15.5685 14.2215 16.8926C14.6786 17.5487 15.3581 18.0169 16.134 18.2104C16.9099 18.4038 17.7296 18.3095 18.4413 17.9449C19.7928 17.2538 20.5609 15.5902 20.121 14.2599Z" fill="white"/>
<path d="M19.6764 26.7974C18.0543 26.7974 16.4322 26.7966 14.8101 26.7948C14.609 26.7948 14.3995 26.793 14.2079 26.741C13.7603 26.6216 13.4592 26.1762 13.4699 25.7059C13.4727 25.4825 13.5475 25.266 13.6833 25.0885C13.819 24.9111 14.0084 24.7822 14.2233 24.721C14.3824 24.6793 14.5463 24.6589 14.7108 24.6602C18.0436 24.6565 21.3767 24.6565 24.7101 24.6602C25.6151 24.6602 26.1693 25.3744 25.8583 26.1279C25.6525 26.6216 25.2507 26.8018 24.7332 26.7992C23.3138 26.7927 21.8945 26.7971 20.4752 26.7992L19.6764 26.7974Z" fill="white"/>
<path d="M19.7057 28.9438C21.3402 28.9438 22.9749 28.9446 24.6097 28.9463C24.8108 28.9463 25.0199 28.9518 25.2115 29.0053C25.64 29.1251 25.9408 29.5632 25.9389 30.0133C25.9367 30.4829 25.6206 30.9121 25.1679 31.0257C24.9828 31.0679 24.7933 31.0877 24.6035 31.0847C21.3346 31.0881 18.0654 31.0881 14.7958 31.0847C14.6185 31.0871 14.4416 31.0695 14.2683 31.0323C13.7654 30.9158 13.4365 30.4506 13.4717 29.9309C13.4853 29.688 13.5844 29.4579 13.7516 29.2812C13.9187 29.1045 14.1431 28.9927 14.3848 28.9658C14.6987 28.9335 15.0174 28.9438 15.3338 28.943C16.7914 28.9423 18.2486 28.9426 19.7057 28.9438Z" fill="white"/>
<path d="M19.7057 33.2259C21.4165 33.2259 23.1274 33.2189 24.8379 33.2292C25.6957 33.2347 26.2016 34.0716 25.8008 34.7972C25.5664 35.2225 25.1826 35.3609 24.7178 35.3598C22.5763 35.3559 20.4347 35.3559 18.293 35.3598C17.0637 35.3598 15.8345 35.3675 14.6053 35.3565C13.757 35.3492 13.2219 34.5657 13.5666 33.8453C13.7724 33.4153 14.1321 33.2226 14.6112 33.2252C16.3089 33.2292 18.0076 33.2259 19.7057 33.2259Z" fill="white"/>
<path d="M9.198 34.2943C9.19488 34.1554 9.21952 34.0173 9.27047 33.8881C9.32142 33.7589 9.39766 33.6411 9.49472 33.5418C9.59177 33.4424 9.70769 33.3634 9.83568 33.3094C9.96367 33.2554 10.1011 33.2275 10.2401 33.2274C10.8396 33.2204 11.3352 33.709 11.3261 34.2987C11.3173 34.8741 10.8283 35.3569 10.2547 35.3561C9.97431 35.3537 9.70616 35.2409 9.50836 35.0422C9.31056 34.8434 9.19905 34.5747 9.198 34.2943Z" fill="white"/>
<path d="M9.19764 25.7279C9.19764 25.1419 9.68038 24.6587 10.2598 24.6624C10.8393 24.6661 11.3275 25.1602 11.3275 25.7352C11.3239 26.0172 11.2089 26.2864 11.0078 26.4841C10.8067 26.6817 10.5356 26.792 10.2536 26.7908C10.1138 26.7927 9.97512 26.7664 9.84571 26.7135C9.7163 26.6607 9.59885 26.5823 9.50033 26.4832C9.40181 26.384 9.32425 26.266 9.27225 26.1363C9.22025 26.0065 9.19487 25.8676 9.19764 25.7279Z" fill="white"/>
<path d="M9.198 30.0206C9.19437 29.881 9.21882 29.742 9.26989 29.612C9.32095 29.482 9.39761 29.3636 9.4953 29.2637C9.59299 29.1639 9.70973 29.0847 9.83861 29.0308C9.96748 28.9769 10.1059 28.9494 10.2455 28.95C10.5276 28.9474 10.7993 29.0561 11.0018 29.2524C11.2044 29.4488 11.3214 29.717 11.3275 29.999C11.3337 30.5737 10.8473 31.0689 10.2679 31.0773C10.1282 31.0783 9.98971 31.0518 9.86031 30.9992C9.73091 30.9466 9.61315 30.869 9.51377 30.7709C9.41439 30.6727 9.33535 30.5559 9.28117 30.4272C9.22698 30.2985 9.19872 30.1603 9.198 30.0206Z" fill="white"/>
</g>
<defs>
<clipPath id="clip0_645_207">
<rect width="34.4308" height="36.5175" fill="white" transform="translate(4.9043 4.56226)"/>
</clipPath>
</defs>
</svg>
