<svg width="45" height="45" viewBox="0 0 45 45" fill="none" xmlns="http://www.w3.org/2000/svg">
<g clip-path="url(#clip0_645_214)">
<path d="M30.2122 24.3142V24.8347C30.2122 29.7891 30.2122 34.7437 30.2122 39.6984C30.2122 40.7006 29.846 41.0617 28.8332 41.0617H6.28723C5.27997 41.0617 4.90527 40.6921 4.90527 39.6919C4.90527 29.7575 4.90527 19.8229 4.90527 9.88813C4.90527 7.11067 6.6806 5.02327 9.38627 4.60755C9.64779 4.56726 9.91663 4.56616 10.1822 4.5658C17.8495 4.56409 25.5169 4.56409 33.1842 4.5658C35.8151 4.5658 37.9018 6.22831 38.4428 8.74132C38.5199 9.11324 38.5581 9.49218 38.5567 9.87201C38.5645 14.2563 38.566 18.6407 38.5611 23.0253C38.5611 23.8996 38.1582 24.3105 37.2861 24.3127C35.0936 24.3175 32.9011 24.3127 30.7086 24.3127L30.2122 24.3142ZM28.0761 38.9143V38.3978C28.0761 28.9982 28.0742 19.5983 28.0703 10.198C28.0703 8.97317 28.3149 7.83882 29.0131 6.81911C29.0303 6.79384 29.023 6.75135 29.0296 6.69898H28.6402C22.5205 6.69898 16.4009 6.69898 10.2814 6.69898C8.2977 6.69898 7.05237 7.93845 7.05164 9.92219C7.04944 19.449 7.04944 28.9756 7.05164 38.5022C7.05164 38.6355 7.06702 38.7688 7.07581 38.9139L28.0761 38.9143ZM36.4272 22.1411V20.1867C36.4272 16.7669 36.4265 13.347 36.425 9.92695C36.4213 8.078 35.0357 6.6759 33.26 6.70191C31.5623 6.72681 30.2199 8.11865 30.2159 9.89435C30.2069 13.8589 30.2061 17.8235 30.2137 21.788C30.2137 21.8979 30.2258 22.01 30.2335 22.1411H36.4272Z" fill="#202B3D"/>
<path d="M20.5049 10.8609C20.9283 10.4269 21.3198 10.013 21.7253 9.61269C22.2447 9.0999 22.8948 9.07353 23.3391 9.53357C23.7834 9.99361 23.7442 10.6049 23.238 11.1203C22.8384 11.5272 22.4403 11.936 22.0242 12.3257C21.8469 12.492 21.8334 12.6275 21.9279 12.8484C23.4845 16.4891 20.7902 20.5104 16.8414 20.4511C14.0775 20.4101 11.7282 18.2271 11.5015 15.4903C11.2675 12.6641 13.1816 10.1456 15.9418 9.65151C17.5088 9.37131 18.9325 9.70865 20.2137 10.6522C20.2939 10.7111 20.3745 10.7683 20.5049 10.8609ZM20.121 14.26C20.0221 14.3512 19.9287 14.4314 19.8419 14.5164C19.1874 15.1694 18.5384 15.828 17.8787 16.4759C17.3736 16.9719 16.7718 16.9788 16.2623 16.4913C15.8228 16.0712 15.3906 15.6427 14.9745 15.1998C14.5507 14.7489 14.5562 14.1039 14.9606 13.6937C15.3789 13.2699 16.0338 13.2663 16.4909 13.7113C16.6773 13.8944 16.8158 14.1245 16.9352 14.2798L18.8706 12.3308C17.6172 11.3763 15.7972 11.4884 14.6331 12.6238C13.4611 13.7648 13.2878 15.5687 14.2215 16.8928C14.6786 17.5488 15.3581 18.017 16.134 18.2105C16.9099 18.404 17.7296 18.3097 18.4413 17.9451C19.7928 17.2539 20.5609 15.5903 20.121 14.26Z" fill="#202B3D"/>
<path d="M19.6764 26.7975C18.0543 26.7975 16.4322 26.7967 14.8101 26.795C14.609 26.795 14.3995 26.7931 14.2079 26.7411C13.7603 26.6217 13.4592 26.1763 13.4699 25.706C13.4727 25.4826 13.5475 25.2661 13.6833 25.0887C13.819 24.9112 14.0084 24.7823 14.2233 24.7211C14.3824 24.6794 14.5463 24.659 14.7108 24.6603C18.0436 24.6567 21.3767 24.6567 24.7101 24.6603C25.6151 24.6603 26.1693 25.3746 25.8583 26.128C25.6525 26.6217 25.2507 26.8019 24.7332 26.7994C23.3138 26.7928 21.8945 26.7972 20.4752 26.7994L19.6764 26.7975Z" fill="#202B3D"/>
<path d="M19.7057 28.9439C21.3402 28.9439 22.9749 28.9448 24.6097 28.9465C24.8108 28.9465 25.0199 28.952 25.2115 29.0054C25.64 29.1252 25.9408 29.5633 25.9389 30.0134C25.9367 30.483 25.6206 30.9123 25.1679 31.0258C24.9828 31.068 24.7933 31.0878 24.6035 31.0848C21.3346 31.0882 18.0654 31.0882 14.7958 31.0848C14.6185 31.0872 14.4416 31.0697 14.2683 31.0324C13.7654 30.9159 13.4365 30.4508 13.4717 29.931C13.4853 29.6882 13.5844 29.458 13.7516 29.2813C13.9187 29.1046 14.1431 28.9929 14.3848 28.9659C14.6987 28.9336 15.0174 28.9439 15.3338 28.9432C16.7914 28.9424 18.2486 28.9427 19.7057 28.9439Z" fill="#202B3D"/>
<path d="M19.7057 33.226C21.4165 33.226 23.1274 33.2191 24.8379 33.2293C25.6957 33.2348 26.2016 34.0717 25.8008 34.7973C25.5664 35.2226 25.1826 35.361 24.7178 35.3599C22.5763 35.356 20.4347 35.356 18.293 35.3599C17.0637 35.3599 15.8345 35.3676 14.6053 35.3566C13.757 35.3493 13.2219 34.5658 13.5666 33.8454C13.7724 33.4154 14.1321 33.2227 14.6112 33.2253C16.3089 33.2293 18.0076 33.226 19.7057 33.226Z" fill="#202B3D"/>
<path d="M9.198 34.2944C9.19488 34.1556 9.21952 34.0175 9.27047 33.8882C9.32142 33.759 9.39766 33.6413 9.49472 33.5419C9.59177 33.4425 9.70769 33.3635 9.83568 33.3095C9.96367 33.2555 10.1011 33.2276 10.2401 33.2275C10.8396 33.2205 11.3352 33.7091 11.3261 34.2988C11.3173 34.8743 10.8283 35.357 10.2547 35.3563C9.97431 35.3539 9.70616 35.2411 9.50836 35.0423C9.31056 34.8435 9.19905 34.5748 9.198 34.2944Z" fill="#202B3D"/>
<path d="M9.19764 25.728C9.19764 25.142 9.68038 24.6589 10.2598 24.6625C10.8393 24.6662 11.3275 25.1603 11.3275 25.7353C11.3239 26.0173 11.2089 26.2865 11.0078 26.4842C10.8067 26.6819 10.5356 26.7921 10.2536 26.7909C10.1138 26.7928 9.97512 26.7665 9.84571 26.7136C9.7163 26.6608 9.59885 26.5825 9.50033 26.4833C9.40181 26.3841 9.32425 26.2662 9.27225 26.1364C9.22025 26.0067 9.19487 25.8678 9.19764 25.728Z" fill="#202B3D"/>
<path d="M9.198 30.0208C9.19437 29.8811 9.21882 29.7422 9.26989 29.6121C9.32095 29.4821 9.39761 29.3637 9.4953 29.2638C9.59299 29.164 9.70973 29.0848 9.83861 29.0309C9.96748 28.977 10.1059 28.9495 10.2455 28.9501C10.5276 28.9476 10.7993 29.0562 11.0018 29.2526C11.2044 29.4489 11.3214 29.7171 11.3275 29.9991C11.3337 30.5738 10.8473 31.069 10.2679 31.0775C10.1282 31.0785 9.98971 31.0519 9.86031 30.9993C9.73091 30.9468 9.61315 30.8692 9.51377 30.771C9.41439 30.6729 9.33535 30.5561 9.28117 30.4273C9.22698 30.2986 9.19872 30.1604 9.198 30.0208Z" fill="#202B3D"/>
</g>
<defs>
<clipPath id="clip0_645_214">
<rect width="34.4308" height="36.5175" fill="white" transform="translate(4.9043 4.56226)"/>
</clipPath>
</defs>
</svg>
