<svg width="45" height="45" viewBox="0 0 45 45" fill="none" xmlns="http://www.w3.org/2000/svg">
<g clip-path="url(#clip0_645_228)">
<path d="M3.95491 8.2665C4.1522 7.54852 4.36372 6.84004 4.84271 6.24187C5.69637 5.18058 6.7919 4.57861 8.14826 4.57386C13.4978 4.55579 18.8465 4.56435 24.1961 4.56625C24.86 4.56625 25.3343 5.0075 25.3343 5.62183C25.3409 6.25519 24.8742 6.70405 24.1875 6.705C18.9568 6.705 13.7261 6.705 8.49541 6.705C6.94366 6.705 6.0881 7.56849 6.0881 9.13284V36.4639C6.0881 38.0017 6.95219 38.8699 8.48119 38.8699H35.7849C37.3177 38.8699 38.1799 38.0045 38.1799 36.4658C38.1799 31.2348 38.1799 26.0044 38.1799 20.7747C38.1799 20.0662 38.5934 19.5945 39.2157 19.5822C39.4907 19.5734 39.7583 19.6718 39.9625 19.8568C40.1666 20.0418 40.2912 20.2989 40.3102 20.5741C40.3197 20.692 40.3102 20.8108 40.3102 20.9297C40.3102 26.0897 40.2723 31.2507 40.3273 36.4097C40.3539 38.9774 38.5621 40.7338 36.6424 40.9697C36.6087 40.9797 36.5767 40.9948 36.5475 41.0144H7.7129C7.64802 40.9889 7.58146 40.9679 7.51371 40.9516C6.3461 40.7395 5.37577 40.1746 4.74312 39.1742C4.38743 38.6112 4.20816 37.9379 3.94922 37.3132L3.95491 8.2665Z" fill="#202B3D"/>
<path d="M23.203 21.7181H30.5264C31.3374 21.7181 31.7595 22.127 31.7595 22.9363C31.7632 25.7005 31.7632 28.4646 31.7595 31.2288C31.7595 32.0153 31.3364 32.4356 30.5463 32.4365C24.9368 32.4365 19.3271 32.4365 13.7169 32.4365C12.9325 32.4365 12.5104 32.0096 12.5104 31.2221C12.5104 25.5993 12.5104 19.9762 12.5104 14.3528C12.5104 13.5653 12.9325 13.1412 13.7169 13.1393C16.4752 13.1349 19.2328 13.1349 21.9898 13.1393C22.7961 13.1393 23.202 13.5634 23.202 14.3756C23.202 16.6769 23.202 18.9783 23.202 21.2797L23.203 21.7181ZM14.6664 21.6895H21.0385V15.318H14.673L14.6664 21.6895ZM21.0508 23.8768H14.6844V30.2588H21.0546L21.0508 23.8768ZM29.5855 30.2664V23.8835H23.2238V30.2664H29.5855Z" fill="#202B3D"/>
<path d="M34.9901 4.5653C36.3629 4.5653 37.7354 4.5653 39.1075 4.5653C39.8872 4.5653 40.314 4.99229 40.315 5.77399C40.315 8.53753 40.315 11.3008 40.315 14.0637C40.315 14.8501 39.8986 15.2857 39.118 15.2876C36.349 15.2933 33.5803 15.2933 30.8119 15.2876C30.0531 15.2876 29.6206 14.8492 29.6187 14.0912C29.6142 11.3163 29.6142 8.54102 29.6187 5.76543C29.6187 4.98468 30.0531 4.56625 30.8375 4.5653C32.2211 4.56403 33.6052 4.56403 34.9901 4.5653ZM31.7832 6.71926V13.107H38.1552V6.71926H31.7832Z" fill="#202B3D"/>
</g>
<defs>
<clipPath id="clip0_645_228">
<rect width="36.5175" height="36.5175" fill="white" transform="translate(3.86035 4.5625)"/>
</clipPath>
</defs>
</svg>
