<svg width="45" height="45" viewBox="0 0 45 45" fill="none" xmlns="http://www.w3.org/2000/svg">
<path d="M22.0938 4.92377C28.1521 4.92377 34.2109 4.92377 40.2701 4.92377C42.1777 4.92377 43.5909 6.0109 43.9855 7.76088C44.0312 7.9645 44.0553 8.17244 44.0572 8.38118C44.0637 10.4884 44.0777 12.5956 44.0572 14.7002C44.0611 14.9468 44.0056 15.1906 43.8954 15.4108C43.7852 15.6311 43.6237 15.8212 43.4246 15.9649C43.2256 16.1086 42.9949 16.2017 42.7523 16.2361C42.5097 16.2705 42.2625 16.2453 42.0317 16.1626C41.3821 15.9331 40.999 15.3424 40.9978 14.5313C40.9978 12.6485 40.9978 10.7656 40.9978 8.88412C40.9978 8.10392 40.894 8.00204 40.1073 8.00204C28.0847 8.00204 16.0628 8.00204 4.04188 8.00204C3.25523 8.00204 3.15274 8.10392 3.15274 8.88412C3.15274 18.2647 3.15274 27.6443 3.15274 37.0232C3.15274 37.7698 3.26676 37.882 4.01754 37.8833C7.27944 37.8833 10.5401 37.8769 13.802 37.8833C14.9397 37.8833 15.6712 38.8544 15.3471 39.8912C15.1383 40.5592 14.5323 40.9655 13.7046 40.9667C11.5625 40.9667 9.42031 40.9667 7.27816 40.9667C6.12509 40.9667 4.97202 40.9745 3.82536 40.9667C1.60506 40.9642 0.0894138 39.4528 0.0830078 37.2243C0.0830078 27.7131 0.0830078 18.2032 0.0830078 8.69455C0.0830078 6.43518 1.6025 4.92764 3.86508 4.92506C9.94218 4.9199 16.0184 4.91947 22.0938 4.92377Z" fill="#202B3D"/>
<path d="M32.3421 21.4087C34.9958 21.4087 37.6496 21.4087 40.3034 21.4087C42.5531 21.4087 44.0636 22.9175 44.0675 25.1885C44.076 29.1949 44.076 33.2012 44.0675 37.2076C44.0675 39.4463 42.557 40.9745 40.3367 40.9796C34.9813 40.99 29.6255 40.99 24.2693 40.9796C22.0592 40.9796 20.5462 39.4205 20.5436 37.1947C20.5436 33.1875 20.5436 29.1807 20.5436 25.1743C20.5436 22.9498 22.0733 21.4151 24.2834 21.41C26.9705 21.4048 29.6567 21.4044 32.3421 21.4087ZM24.4333 24.5037C23.7427 24.5037 23.6133 24.6327 23.6133 25.3072C23.6133 29.2327 23.6133 33.1582 23.6133 37.0838C23.6133 37.7569 23.7542 37.8988 24.4294 37.8988H40.2073C40.8594 37.8988 40.999 37.7582 40.999 37.1108C40.999 33.1698 40.999 29.2284 40.999 25.2865C40.999 24.625 40.8709 24.505 40.2111 24.5037H24.4333Z" fill="#202B3D"/>
</svg>
