<svg width="45" height="45" viewBox="0 0 45 45" fill="none" xmlns="http://www.w3.org/2000/svg">
<g clip-path="url(#clip0_645_242)">
<path d="M22.4992 22.4564C22.5523 22.529 22.5445 22.6295 22.4809 22.6931L20.9401 24.2345C20.902 24.2726 20.8491 24.2919 20.7955 24.2873C20.7418 24.2828 20.6929 24.2548 20.6619 24.2108C19.7928 22.9812 18.6411 21.9783 17.3037 21.2866C15.9662 20.5949 14.4822 20.2345 12.9765 20.2359H12.976C11.6255 20.2338 10.2906 20.5238 9.06262 21.086C8.8465 21.1859 8.63312 21.294 8.4225 21.4103C7.80694 21.7504 7.23173 22.1589 6.70776 22.628L6.70746 22.6283C5.71842 23.5098 4.92726 24.5908 4.38605 25.8001C3.84484 27.0095 3.56585 28.3197 3.56743 29.6446L3.56744 29.6452C3.56249 31.9907 4.4368 34.2529 6.01785 35.9854C6.08364 36.0575 6.0811 36.1686 6.01209 36.2376L4.50568 37.744C4.47056 37.7791 4.42267 37.7984 4.37302 37.7974C4.32337 37.7965 4.27626 37.7753 4.24254 37.7389C2.23337 35.5672 0.762209 32.1195 1.25195 28.2763C1.60702 25.3819 3.01094 22.7181 5.19796 20.7892L5.19801 20.7891C5.47311 20.5467 5.75852 20.3176 6.05422 20.102C6.70006 19.6309 7.3918 19.2263 8.11893 18.8942M22.4992 22.4564L8.62102 18.679L8.68966 18.8482L8.62101 18.679M22.4992 22.4564C20.1603 19.251 15.5372 17.0304 10.6413 18.0637C10.1165 18.1737 9.59968 18.3189 9.09435 18.4984L9.09395 18.4985M22.4992 22.4564L9.09395 18.4985M8.11893 18.8942L8.19479 19.0603L8.11883 18.8942C8.11886 18.8942 8.1189 18.8942 8.11893 18.8942ZM8.11893 18.8942C8.28522 18.8181 8.45493 18.7464 8.62101 18.679M8.62101 18.679C8.77753 18.6155 8.93518 18.5553 9.09395 18.4985M8.62101 18.679L9.09395 18.4985M31.4774 41.6283V41.6282C31.3995 41.6282 31.3261 41.6283 31.2533 41.6314L31.2465 41.6317L31.2465 41.6315C29.7956 41.6395 28.3452 41.6428 26.8952 41.6415M31.4774 41.6283L26.8952 41.6415M31.4774 41.6283L31.4821 41.6282C32.0179 41.6143 32.5521 41.565 33.0813 41.4806L33.0525 41.3003M31.4774 41.6283L33.0525 41.3003M26.8952 41.6415H24.0544M26.8952 41.6415H24.0544M33.0525 41.3003L33.0813 41.4806C37.8625 40.7173 41.7243 37.1527 42.804 32.5293C43.9173 27.764 42.0929 22.8933 38.1403 20.0328C38.0183 19.9402 37.9273 19.8127 37.8795 19.6672C37.8238 19.4809 37.7652 19.2954 37.7027 19.1115C37.1775 17.0324 36.0515 15.0611 34.4619 13.3567C34.4283 13.3207 34.3815 13.2998 34.3322 13.2987C34.2829 13.2977 34.2353 13.3166 34.2002 13.3512L34.1546 13.3961L34.1537 13.3971L32.7001 14.8506C32.6309 14.9198 32.6286 15.0313 32.6948 15.1033C34.4027 16.9606 35.4728 19.1449 35.6987 21.3759C35.7046 21.434 35.7378 21.4857 35.7882 21.5152C36.4729 21.9154 37.1045 22.4004 37.6679 22.9586L37.668 22.9588C38.5524 23.8329 39.2542 24.8742 39.7326 26.0219C40.211 27.1697 40.4565 28.4011 40.4549 29.6445V29.6448C40.4549 30.8808 40.2114 32.1047 39.7384 33.2466C39.2654 34.3885 38.5721 35.426 37.6981 36.3C36.824 37.1739 35.7864 37.8671 34.6445 38.3401C33.5026 38.813 32.2787 39.0564 31.0427 39.0563H24.0544C23.9535 39.0563 23.8718 39.1381 23.8718 39.2389V41.4589C23.8718 41.5597 23.9535 41.6415 24.0544 41.6415M33.0525 41.3003L24.0544 41.6415M20.1214 39.2389C20.1214 39.1381 20.0397 39.0563 19.9389 39.0563L12.9764 39.0537L12.976 39.0537C11.7385 39.056 10.5128 38.8137 9.36928 38.3408C9.30107 38.3125 9.22258 38.3282 9.17038 38.3804L7.53976 40.011C7.49872 40.052 7.47963 40.1101 7.48835 40.1675C7.49707 40.2249 7.53256 40.2747 7.58394 40.3017C8.99248 41.0418 10.4731 41.5089 12.0687 41.5884L12.0692 41.5884C12.0848 41.5891 12.1008 41.5899 12.1171 41.5907C12.1846 41.5941 12.2574 41.5978 12.33 41.5979C14.3809 41.6443 16.4334 41.6416 18.4832 41.6388C18.9686 41.6381 19.4538 41.6375 19.9388 41.6375C20.0397 41.6375 20.1214 41.5557 20.1214 41.4549V39.2389ZM31.3218 10.9246C31.36 10.8863 31.3793 10.8331 31.3745 10.7792C31.3697 10.7252 31.3412 10.6763 31.2967 10.6454C27.5795 8.06833 22.8526 7.25062 18.4575 8.21082C14.2388 9.1325 10.4604 11.8307 8.47426 15.7112C8.42838 15.8008 8.46374 15.9107 8.5533 15.9568C8.62265 15.9924 8.70423 15.9794 8.75897 15.9302C8.77184 15.9251 8.79059 15.9188 8.8146 15.9118C8.84143 15.9039 8.86945 15.8965 8.89586 15.8896L8.90077 15.8883C8.92209 15.8828 8.94977 15.8755 8.96833 15.8691L8.96932 15.8687C9.81116 15.5705 10.6708 15.3252 11.5433 15.1343C11.5872 15.1247 11.626 15.0993 11.6523 15.0628C13.4766 12.5351 16.5356 10.8845 19.5919 10.3697L19.5921 10.3696C22.6136 9.85781 25.7202 10.472 28.4117 11.9222L28.4117 11.9222L28.4152 11.924C28.436 11.9346 28.5047 11.977 28.6133 12.044L28.614 12.0444C28.7173 12.1081 28.8468 12.1878 28.9764 12.2637C29.1051 12.339 29.2382 12.4132 29.3482 12.4648C29.4024 12.4902 29.4573 12.5132 29.5065 12.5274C29.5308 12.5344 29.5603 12.5413 29.5914 12.5432C29.6181 12.5448 29.6731 12.5449 29.7271 12.512C29.7395 12.5044 29.7509 12.4954 29.7612 12.4852L31.3218 10.9246Z" fill="#202B3D" stroke="#202B3D" stroke-width="0.365175" stroke-linejoin="round"/>
</g>
<defs>
<clipPath id="clip0_645_242">
<rect width="44.0729" height="36.5175" fill="white" transform="translate(0.0830078 6.75348)"/>
</clipPath>
</defs>
</svg>
