<svg width="66" height="57" viewBox="0 0 66 57" fill="none" xmlns="http://www.w3.org/2000/svg">
<path d="M14.0158 21.4071L16.4792 22.0083V22.0088C16.5559 22.0331 16.6147 22.0863 16.6368 22.1525C16.9276 22.7092 17.1817 23.2784 17.3996 23.8576L16.1642 25.7416V25.742C15.8928 26.1607 15.7898 26.6417 15.8707 27.1131C15.9516 27.585 16.2122 28.0222 16.6141 28.3607L19.6537 30.9001L19.6532 30.8996C20.0584 31.2354 20.5822 31.4531 21.147 31.5207C21.7119 31.5883 22.2875 31.5022 22.7893 31.2751L25.0434 30.2438C25.7366 30.425 26.418 30.6377 27.0843 30.8807C27.162 30.8991 27.2245 30.9465 27.2548 31.0087L27.9043 32.8638C28.0365 33.3632 28.3645 33.8112 28.8371 34.1366C29.3097 34.4616 29.8994 34.645 30.5118 34.6572H34.81H34.8095C35.3803 34.6554 35.9349 34.4999 36.3913 34.2142C36.8477 33.9284 37.1822 33.5273 37.3446 33.0702L38.0643 31.0122H38.0648C38.094 30.9482 38.1576 30.8991 38.2369 30.8806C38.9032 30.6377 39.5846 30.4254 40.2778 30.2433L42.533 31.2755H42.5335C43.0347 31.5031 43.6104 31.5896 44.1753 31.522C44.7402 31.4544 45.2635 31.2358 45.6681 30.8996L48.7078 28.3602L48.7072 28.3606C49.1092 28.0221 49.3697 27.5845 49.4507 27.1126C49.5316 26.6407 49.4285 26.1598 49.1566 25.7406L47.9222 23.8575C48.1391 23.2783 48.3938 22.7091 48.6846 22.1525C48.7067 22.0876 48.7633 22.0353 48.8378 22.0101L51.0584 21.4674C51.6561 21.357 52.1924 21.0829 52.5819 20.6881C52.9709 20.2933 53.1905 19.8006 53.205 19.2891V15.6986C53.2029 15.2218 53.0167 14.7584 52.6747 14.3771C52.3327 13.9958 51.8525 13.7164 51.3054 13.5807L48.842 12.9795V12.979C48.7654 12.9547 48.7066 12.9015 48.6845 12.8352C48.3937 12.2786 48.1396 11.7093 47.9216 11.1302L49.1571 9.2462V9.24575C49.4285 8.82703 49.5315 8.34611 49.4506 7.87464C49.3697 7.40274 49.1091 6.96553 48.7072 6.6271L45.6681 4.08818C45.2629 3.75239 44.7391 3.53469 44.1743 3.46709C43.6094 3.39948 43.0337 3.48557 42.532 3.71273L40.2779 4.74398C40.204 4.77282 40.1177 4.76967 40.0465 4.73541C39.3716 4.51186 38.7107 4.25945 38.0665 3.9791L37.4169 2.12395C37.2847 1.62456 36.9567 1.17654 36.4841 0.851146C36.0115 0.526178 35.4218 0.342739 34.8095 0.330566H30.5118C29.941 0.332369 29.3864 0.48787 28.93 0.773619C28.4735 1.05938 28.139 1.46051 27.9767 1.91755L27.257 3.97555H27.2564C27.2273 4.03955 27.1636 4.08868 27.0843 4.10716C26.418 4.3501 25.7366 4.56238 25.0434 4.74447L22.7883 3.71232H22.7877C22.2865 3.48515 21.7109 3.39862 21.146 3.46668C20.5817 3.53429 20.0578 3.75199 19.6531 4.08822L16.6135 6.6276L16.614 6.62715C16.2121 6.96564 15.9515 7.4033 15.8706 7.87515C15.7897 8.34705 15.8927 8.82797 16.1646 9.24719L17.399 11.1303C17.4325 11.1925 17.4287 11.2641 17.3888 11.3236C17.1212 11.8875 16.819 12.4396 16.4835 12.9778L14.2629 13.5204C13.6651 13.6309 13.1288 13.9049 12.7393 14.2997C12.3504 14.6946 12.1308 15.1872 12.1162 15.6988V19.2896V19.2892C12.1184 19.7661 12.3045 20.2294 12.6465 20.6107C12.9886 20.992 13.4688 21.2714 14.0158 21.4071ZM14.5332 15.6986C14.5332 15.5684 14.8456 15.4823 14.9416 15.4589L17.1611 14.9162H17.1606C17.986 14.7084 18.641 14.1811 18.9193 13.5001C19.3698 12.4337 20.3387 11.274 19.5187 10.1603L18.2849 8.27812V8.27767C18.2374 8.20466 18.2525 8.11406 18.3226 8.05502L21.3622 5.51563C21.4324 5.45659 21.5408 5.44352 21.6277 5.48363L23.8817 6.51488C25.217 7.20268 26.6019 6.38914 27.8794 6.01414C28.6957 5.78067 29.3274 5.23304 29.5761 4.54298L30.2958 2.48453C30.3244 2.40475 30.4118 2.35021 30.5116 2.34976H34.8099C34.9658 2.34976 35.0689 2.61072 35.0969 2.69095L35.7465 4.54518C36.1112 5.81844 37.7632 6.05694 38.9927 6.55229C40.532 7.30544 42.3824 6.03036 43.6929 5.48453L43.6923 5.48408C43.7797 5.44487 43.8876 5.45749 43.9588 5.51563L46.9985 8.05501C47.068 8.11406 47.0837 8.20376 47.0368 8.27677L45.8024 10.1598C44.9796 11.2758 45.9529 12.4323 46.4017 13.4996C46.8679 14.9483 49.2277 15.125 50.6267 15.5184C50.7222 15.5423 50.7874 15.6153 50.788 15.6987V19.2896C50.788 19.4198 50.4756 19.5059 50.3796 19.5294L48.1601 20.072L48.1606 20.0716C47.3352 20.2794 46.6802 20.8067 46.4019 21.4882C45.9514 22.5546 44.9825 23.7143 45.8025 24.828L47.0363 26.7101C47.0838 26.7831 47.0687 26.8737 46.9986 26.9328L43.959 29.4721C43.8883 29.5303 43.7809 29.5434 43.6935 29.5041L41.4395 28.4729C40.1031 27.7847 38.7199 28.5986 37.4418 28.9736C36.6255 29.2071 35.9938 29.7547 35.7451 30.4448L35.0254 32.5033C34.9968 32.583 34.9094 32.6376 34.8096 32.638H30.5119C30.356 32.638 30.2529 32.3771 30.2249 32.2968L29.5753 30.4426C29.2106 29.1698 27.5585 28.9308 26.3291 28.4355C24.8033 27.6819 22.9339 28.9574 21.6289 29.5032V29.5037C21.5415 29.5429 21.4336 29.5303 21.3624 29.4721L18.3228 26.9328C18.2532 26.8737 18.2375 26.784 18.2845 26.711L19.5189 24.8279C20.3416 23.7119 19.3683 22.5554 18.9195 21.4881C18.4533 20.0395 16.0935 19.8624 14.6946 19.4694C14.5991 19.4455 14.5338 19.3725 14.5333 19.2891L14.5332 15.6986Z" fill="#202B3D"/>
<path d="M32.6614 27.085C35.7053 27.0823 38.6235 26.0709 40.7756 24.2725C42.9282 22.4746 44.1389 20.0366 44.1421 17.4937C43.5114 4.76909 21.8091 4.77255 21.1807 17.4937C21.1839 20.0366 22.3951 22.4746 24.5472 24.2725C26.6993 26.0709 29.6175 27.0824 32.6614 27.085ZM32.6614 9.92158C35.0643 9.92384 37.368 10.7221 39.0675 12.1418C40.767 13.5616 41.7225 15.4861 41.7251 17.4937C41.3 27.5154 24.0217 27.5128 23.5977 17.4937C23.6004 15.4862 24.5564 13.5612 26.2552 12.1418C27.9547 10.722 30.2583 9.92377 32.6614 9.92158Z" fill="#202B3D"/>
<path d="M7.28268 56.869C16.1641 56.691 17.125 46.2099 8.49118 44.8448V42.7346H31.4526V44.8448C22.8081 46.2114 23.7954 56.6983 32.6611 56.869C41.529 56.6951 42.5136 46.2127 33.8691 44.8448L33.8696 42.7346H56.8311V44.8448C48.1746 46.2164 49.1847 56.7006 58.0396 56.869C66.8934 56.7 67.9034 46.2163 59.2475 44.8448L59.2481 41.725C59.2481 41.4572 59.1207 41.2003 58.8941 41.011C58.6676 40.8217 58.36 40.7153 58.0396 40.7153H33.8696V37.6865C33.8696 37.129 33.3285 36.6769 32.6611 36.6769C31.9938 36.6769 31.4526 37.129 31.4526 37.6865V40.7153H7.28268C6.61532 40.7153 6.07419 41.1674 6.07419 41.725V44.8448C-2.55794 46.2056 -1.59542 56.696 7.28268 56.869ZM62.8736 50.8114C62.8585 52.2456 61.9337 53.5652 60.4441 54.2788C58.9546 54.9923 57.124 54.9923 55.635 54.2788C54.1455 53.5653 53.2208 52.2456 53.2056 50.8114C53.2207 49.3771 54.1454 48.0575 55.635 47.3439C57.1246 46.6305 58.9551 46.6305 60.4441 47.3439C61.9337 48.0574 62.8584 49.3771 62.8736 50.8114ZM32.6611 46.7729C34.3779 46.7855 35.9575 47.5581 36.8116 48.8025C37.6656 50.0469 37.6656 51.5762 36.8116 52.8202C35.9575 54.0646 34.3779 54.8371 32.6611 54.8498C30.9444 54.8372 29.3648 54.0647 28.5107 52.8202C27.6566 51.5758 27.6566 50.0465 28.5107 48.8025C29.3647 47.5581 30.9444 46.7856 32.6611 46.7729ZM7.28268 46.7729C8.99944 46.7855 10.579 47.5581 11.4331 48.8025C12.2872 50.0469 12.2872 51.5762 11.4331 52.8202C10.5791 54.0646 8.99944 54.8371 7.28268 54.8498C5.56592 54.8372 3.98632 54.0647 3.13222 52.8202C2.27818 51.5758 2.27818 50.0465 3.13222 48.8025C3.98626 47.5581 5.56592 46.7856 7.28268 46.7729Z" fill="#202B3D"/>
</svg>
