<svg width="34" height="35" viewBox="0 0 34 35" fill="none" xmlns="http://www.w3.org/2000/svg">
<g clip-path="url(#clip0_641_177)">
<path d="M3.2602 6.49192C3.41054 5.94476 3.57174 5.40485 3.93676 4.949C4.58731 4.14023 5.42218 3.68148 6.45583 3.67786C10.5326 3.66409 14.6086 3.67061 18.6854 3.67206C19.1914 3.67206 19.5528 4.00833 19.5528 4.47649C19.5578 4.95915 19.2022 5.30121 18.6789 5.30194C14.6927 5.30194 10.7065 5.30194 6.72038 5.30194C5.53783 5.30194 4.88584 5.95998 4.88584 7.15213V27.9803C4.88584 29.1522 5.54434 29.8139 6.70954 29.8139H27.5169C28.685 29.8139 29.342 29.1544 29.342 27.9818C29.342 23.9954 29.342 20.0095 29.342 16.024C29.342 15.4841 29.6572 15.1247 30.1314 15.1153C30.3409 15.1086 30.5449 15.1836 30.7005 15.3245C30.856 15.4655 30.951 15.6614 30.9655 15.8711C30.9728 15.961 30.9655 16.0516 30.9655 16.1422C30.9655 20.0745 30.9366 24.0075 30.9785 27.939C30.9988 29.8958 29.6333 31.2343 28.1703 31.414C28.1447 31.4217 28.1203 31.4332 28.0981 31.4481H6.12405C6.0746 31.4287 6.02389 31.4127 5.97225 31.4003C5.08245 31.2386 4.34299 30.8082 3.86087 30.0458C3.58981 29.6167 3.45319 29.1036 3.25586 28.6275L3.2602 6.49192Z" fill="#202B3D"/>
<path d="M17.9286 16.743H23.5095C24.1276 16.743 24.4492 17.0546 24.4492 17.6713C24.4521 19.7778 24.4521 21.8843 24.4492 23.9908C24.4492 24.5901 24.1268 24.9105 23.5247 24.9112C19.2499 24.9112 14.9749 24.9112 10.6996 24.9112C10.1018 24.9112 9.78012 24.5858 9.78012 23.9857C9.78012 19.7008 9.78012 15.4155 9.78012 11.1301C9.78012 10.53 10.1018 10.2068 10.6996 10.2053C12.8015 10.202 14.9031 10.202 17.0041 10.2053C17.6185 10.2053 17.9279 10.5286 17.9279 11.1475C17.9279 12.9013 17.9279 14.6551 17.9279 16.4089L17.9286 16.743ZM11.4231 16.7212H16.2791V11.8657H11.4282L11.4231 16.7212ZM16.2885 18.3881H11.4368V23.2516H16.2914L16.2885 18.3881ZM22.7925 23.2574V18.3931H17.9445V23.2574H22.7925Z" fill="#202B3D"/>
<path d="M26.9112 3.67134C27.9573 3.67134 29.0033 3.67134 30.049 3.67134C30.6431 3.67134 30.9684 3.99673 30.9691 4.59245C30.9691 6.69846 30.9691 8.80423 30.9691 10.9098C30.9691 11.5091 30.6518 11.841 30.0569 11.8425C27.9467 11.8468 25.8368 11.8468 23.7271 11.8425C23.1488 11.8425 22.8192 11.5084 22.8178 10.9308C22.8144 8.81607 22.8144 6.70112 22.8178 4.58592C22.8178 3.99094 23.1488 3.67206 23.7466 3.67134C24.801 3.67037 25.8558 3.67037 26.9112 3.67134ZM24.4673 5.31281V10.1807H29.3233V5.31281H24.4673Z" fill="#202B3D"/>
</g>
<defs>
<clipPath id="clip0_641_177">
<rect width="27.8289" height="27.8289" fill="white" transform="translate(3.18848 3.66882)"/>
</clipPath>
</defs>
</svg>
