<svg width="948" height="240" viewBox="0 0 948 240" fill="none" preserveAspectRatio="none" xmlns="http://www.w3.org/2000/svg">
<path d="M515.399 3L644.799 119.831L515.399 236.662L386 119.831L515.399 3Z" fill="#D2D6DB" fill-opacity="0.2"/>
<path d="M565.399 3L694.799 119.831L565.399 236.662L436 119.831L565.399 3Z" fill="#D2D6DB" fill-opacity="0.2"/>
<path d="M620.399 3L749.799 119.831L620.399 236.662L491 119.831L620.399 3Z" fill="#D2D6DB" fill-opacity="0.2"/>
<path d="M670.399 3L799.799 119.831L670.399 236.662L541 119.831L670.399 3Z" fill="#D2D6DB" fill-opacity="0.2"/>
<path d="M721.399 0L850.799 116.831L721.399 233.662L592 116.831L721.399 0Z" fill="#D2D6DB" fill-opacity="0.2"/>
<path d="M767.399 0L896.799 116.831L767.399 233.662L638 116.831L767.399 0Z" fill="#D2D6DB" fill-opacity="0.2"/>
<path d="M818.399 0L947.799 116.831L818.399 233.662L689 116.831L818.399 0Z" fill="#D2D6DB" fill-opacity="0.2"/>
<path d="M129.399 6L258.799 122.831L129.399 239.662L-0.00012207 122.831L129.399 6Z" fill="#D2D6DB" fill-opacity="0.2"/>
<path d="M179.399 6L308.799 122.831L179.399 239.662L49.9999 122.831L179.399 6Z" fill="#D2D6DB" fill-opacity="0.2"/>
<path d="M234.399 6L363.799 122.831L234.399 239.662L105 122.831L234.399 6Z" fill="#D2D6DB" fill-opacity="0.2"/>
<path d="M284.399 6L413.799 122.831L284.399 239.662L155 122.831L284.399 6Z" fill="#D2D6DB" fill-opacity="0.2"/>
<path d="M335.399 3L464.799 119.831L335.399 236.662L206 119.831L335.399 3Z" fill="#D2D6DB" fill-opacity="0.2"/>
<path d="M381.399 3L510.799 119.831L381.399 236.662L252 119.831L381.399 3Z" fill="#D2D6DB" fill-opacity="0.2"/>
<path d="M432.399 3L561.799 119.831L432.399 236.662L303 119.831L432.399 3Z" fill="#D2D6DB" fill-opacity="0.2"/>
</svg>
