<svg width="80" height="92" viewBox="0 0 80 92" fill="none" xmlns="http://www.w3.org/2000/svg">
<path d="M63.7023 84.8133C63.1662 84.8133 62.7238 85.2839 62.7238 85.8542V87.2653C62.7238 88.3915 61.8527 89.3183 60.794 89.3183H4.04392C2.98528 89.3183 2.11414 88.3916 2.11414 87.2653V4.3224C2.11414 3.19615 2.98523 2.26937 4.04392 2.26937H60.794C61.8527 2.26937 62.7238 3.1961 62.7238 4.3224V49.8574C62.7238 50.4277 63.1662 50.8983 63.7023 50.8983C64.2384 50.8983 64.6807 50.4277 64.6807 49.8574L64.6801 4.3224C64.6801 2.0417 62.9379 0.173828 60.7806 0.173828H4.04308C1.8993 0.173828 0.143555 2.02725 0.143555 4.3224V87.2787C0.143555 89.5594 1.88572 91.4273 4.04308 91.4273H60.7932C62.937 91.4273 64.6927 89.5739 64.6927 87.2787V85.8532C64.6927 85.2829 64.2504 84.8123 63.7013 84.8123L63.7023 84.8133Z" fill="#202B3D"/>
<path d="M22.0682 43.4124H44.0715C45.72 43.4124 47.2072 42.3715 47.8638 40.7609L49.981 35.5148H51.4548C51.9909 35.5148 52.4333 35.0442 52.4333 34.4739C52.4333 33.9036 51.9909 33.433 51.4548 33.433H50.155C49.6324 25.1646 43.8969 18.3643 36.4462 16.7532C37.0625 15.9551 37.4512 14.9286 37.4512 13.8162C37.4512 11.2356 35.4813 9.1543 33.0692 9.1543C30.6435 9.1543 28.6872 11.25 28.6872 13.8162C28.6872 14.9424 29.0758 15.9546 29.6921 16.7532C22.2279 18.3638 16.493 25.1646 15.9834 33.433H14.6835C14.1474 33.433 13.7051 33.9036 13.7051 34.4739C13.7051 35.0442 14.1474 35.5148 14.6835 35.5148H16.1574L18.2746 40.7609C18.9323 42.3715 20.4197 43.4124 22.0682 43.4124H22.0682ZM33.0698 11.2215C34.4098 11.2215 35.4955 12.376 35.4955 13.8022C35.4955 15.2277 34.4104 16.3828 33.0698 16.3828C31.7163 16.3828 30.6441 15.2565 30.6441 13.8022C30.6577 12.3904 31.7429 11.2215 33.0698 11.2215ZM17.9274 33.4186C18.5172 25.0931 25.1102 18.478 33.0834 18.478C41.0429 18.478 47.6362 25.0931 48.2259 33.4186H17.9274ZM47.8494 35.5143L46.0535 39.9479C45.7185 40.7893 44.9276 41.3452 44.07 41.3452H22.0668C21.1957 41.3452 20.4183 40.8037 20.0833 39.9479L18.2875 35.5143H47.8494Z" fill="#202B3D"/>
<path d="M18.865 51.5972C18.4763 51.1981 17.86 51.2126 17.4713 51.6254L14.1344 55.2891L12.8487 53.6214C12.5002 53.1796 11.8838 53.1081 11.4686 53.4789C11.0535 53.8498 10.9862 54.5054 11.3348 54.9471L13.3182 57.5133C13.4922 57.7417 13.7606 57.8841 14.0419 57.8979H14.082C14.3497 57.8979 14.6045 57.7837 14.7921 57.5842L18.9058 53.0792C19.2673 52.6664 19.2537 51.9963 18.8651 51.5973L18.865 51.5972Z" fill="#202B3D"/>
<path d="M52.7417 54.0332H26.1552C25.6191 54.0332 25.1768 54.5038 25.1768 55.0741C25.1768 55.6445 25.6191 56.1151 26.1552 56.1151H52.7559C53.292 56.1151 53.7343 55.6445 53.7343 55.0741C53.7337 54.5038 53.2914 54.0332 52.7423 54.0332H52.7417Z" fill="#202B3D"/>
<path d="M18.865 63.8706C18.4763 63.4716 17.86 63.486 17.4713 63.8989L14.1344 67.5625L12.8487 65.8955C12.5002 65.4537 11.8838 65.3822 11.4686 65.753C11.0535 66.1238 10.9862 66.7795 11.3348 67.2212L13.3182 69.7874C13.4922 70.0158 13.7606 70.1582 14.0419 70.172H14.082C14.3497 70.172 14.6045 70.0578 14.7921 69.8583L18.9058 65.3533C19.2673 64.9261 19.2537 64.2704 18.8651 63.8707L18.865 63.8706Z" fill="#202B3D"/>
<path d="M26.1555 68.3885H47.0058C47.5419 68.3885 47.9843 67.9179 47.9843 67.3476C47.9843 66.7772 47.5419 66.3066 47.0058 66.3066L26.1555 66.3073C25.6194 66.3073 25.1771 66.7779 25.1771 67.3482C25.1635 67.9324 25.6058 68.3885 26.1555 68.3885Z" fill="#202B3D"/>
<path d="M17.4704 76.1595L14.1334 79.8232L12.8477 78.1699C12.4992 77.7282 11.8829 77.6567 11.4677 78.0275C11.0525 78.3983 10.9852 79.054 11.3338 79.4957L13.3173 82.0619C13.4913 82.2903 13.7596 82.4327 14.0409 82.4465H14.081C14.3488 82.4465 14.6036 82.3323 14.7911 82.1327L18.9048 77.6278C19.2799 77.2143 19.2663 76.5586 18.8783 76.1452C18.4754 75.7461 17.8461 75.7461 17.4704 76.1596L17.4704 76.1595Z" fill="#202B3D"/>
<path d="M26.1555 80.6639H52.7562C53.2923 80.6639 53.7346 80.1933 53.7346 79.623C53.7346 79.0526 53.2923 78.582 52.7562 78.582L26.1555 78.5827C25.6194 78.5827 25.1771 79.0533 25.1771 79.6236C25.1635 80.1933 25.6058 80.6639 26.1555 80.6639Z" fill="#202B3D"/>
<path d="M75.6563 58.6678C73.4051 56.2728 70.4167 54.9609 67.2408 54.9609H67.2273C64.0514 54.9609 61.05 56.2867 58.7982 58.6817C56.547 61.0767 55.3008 64.256 55.3008 67.6491C55.3008 71.0423 56.5334 74.2209 58.7851 76.6165C61.0363 79.0114 64.0383 80.3373 67.2142 80.3373H67.2277C70.4036 80.3373 73.405 79.0115 75.6568 76.6165C80.306 71.6698 80.306 63.6153 75.6562 58.6686L75.6563 58.6678ZM74.2762 75.1337C70.3903 79.2678 64.0649 79.2678 60.1788 75.1337C56.3063 71.0139 56.3063 64.2847 60.1924 60.1504C62.1357 58.0829 64.6947 57.0427 67.2408 57.0427C69.7868 57.0427 72.3329 58.0692 74.2626 60.1366C78.1622 64.2847 78.1622 70.9994 74.2762 75.1337H74.2762Z" fill="#202B3D"/>
<path d="M71.5688 66.6087H68.2188V63.0448C68.2188 62.4745 67.7765 62.0039 67.2404 62.0039C66.7043 62.0039 66.262 62.4745 66.262 63.0448V66.6087H62.912C62.3759 66.6087 61.9336 67.0793 61.9336 67.6496C61.9336 68.22 62.3759 68.6906 62.912 68.6906H66.262V72.2544C66.262 72.8248 66.7043 73.2954 67.2404 73.2954C67.7765 73.2954 68.2188 72.8248 68.2188 72.2544V68.6906H71.5688C72.1049 68.6906 72.5472 68.22 72.5472 67.6496C72.5472 67.0793 72.1049 66.6087 71.5688 66.6087Z" fill="#202B3D"/>
</svg>
