<svg width="114" height="87" viewBox="0 0 114 87" fill="none" xmlns="http://www.w3.org/2000/svg">
<g clip-path="url(#clip0_372_751)">
<path d="M94.8367 20.9395H21.0905C19.0725 20.9395 17.4219 22.5902 17.4219 24.6081V68.0853C17.4219 70.1033 19.0726 71.754 21.0905 71.754H52.0936V78.3581C45.8567 79.2756 41.4536 81.4766 41.4536 84.2291H74.6577C74.6577 81.4779 70.2546 79.2757 64.0177 78.3581V71.754H94.8377C96.8557 71.754 98.5063 70.1032 98.5063 68.0853V24.6081C98.5063 22.5901 96.8556 20.9395 94.8377 20.9395H94.8367ZM94.2865 67.1684H21.8244V25.1588H94.2865V67.1684Z" fill="#202B3D"/>
</g>
<rect x="1.22845" y="1.22845" width="111.543" height="69.2845" stroke="#202B3D" stroke-width="2.4569"/>
<line x1="38.5732" x2="38.5732" y2="71.7414" stroke="#202B3D" stroke-width="2.4569"/>
<line x1="75.6728" x2="75.6728" y2="71.7414" stroke="#202B3D" stroke-width="2.4569"/>
<defs>
<clipPath id="clip0_372_751">
<rect width="44.9612" height="15.2328" fill="white" transform="translate(34.6426 71.7422)"/>
</clipPath>
</defs>
</svg>
