<svg width="86" height="86" viewBox="0 0 86 86" fill="none" xmlns="http://www.w3.org/2000/svg">
<path d="M16.9319 0C7.59437 0 0 7.59437 0 16.9319C0 26.2703 7.59437 33.8638 16.9319 33.8638C26.2703 33.8638 33.8638 26.2703 33.8638 16.9319C33.8638 7.59437 26.2703 0 16.9319 0ZM16.9319 2.25739C25.0498 2.25739 31.6065 8.81387 31.6065 16.9319C31.6065 25.0498 25.05 31.6064 16.9319 31.6064C8.81407 31.6064 2.25739 25.05 2.25739 16.9319C2.25739 8.81407 8.81387 2.25739 16.9319 2.25739ZM16.8264 7.86669C16.7784 7.87535 16.7311 7.88716 16.6855 7.90134C16.1595 8.01944 15.7902 8.49188 15.8036 9.03045V16.9318C15.7965 17.2342 15.9107 17.5263 16.1209 17.7436L21.7649 23.3876C21.9798 23.6025 22.2719 23.723 22.5759 23.723C22.8806 23.723 23.1719 23.6025 23.3877 23.3876C23.6026 23.1718 23.7231 22.8805 23.7231 22.5758C23.7231 22.2719 23.6026 21.9797 23.3877 21.7648L18.061 16.4381V9.03037C18.072 8.70597 17.9436 8.3918 17.7074 8.16898C17.4704 7.94615 17.15 7.83593 16.8263 7.86663L16.8264 7.86669ZM56.439 24.8333C46.4534 24.8333 38.3787 32.908 38.3787 42.8944V46.281H32.7348C29.6269 46.281 27.0908 48.8179 27.0908 51.9249V60.9555C27.0861 61.2571 27.2034 61.5484 27.4152 61.7634C27.6278 61.9791 27.9168 62.1004 28.2191 62.1004C28.5215 62.1004 28.8112 61.9791 29.023 61.7634C29.2356 61.5484 29.3522 61.2571 29.3482 60.9555V51.9249C29.3482 50.0289 30.8387 48.5384 32.7348 48.5384H38.3788V71.1143H32.7348C30.8388 71.1143 29.3482 69.6237 29.3482 67.7277C29.3522 67.4253 29.2356 67.1348 29.023 66.919C28.8112 66.7041 28.5215 66.5828 28.2191 66.5828C27.9168 66.5828 27.6278 66.7041 27.4152 66.919C27.2034 67.1348 27.0861 67.4253 27.0908 67.7277C27.0908 70.8347 29.6269 73.3716 32.7348 73.3716H39.5071C40.1307 73.3716 40.6362 72.8661 40.6362 72.2433V42.8947C40.6362 34.1201 47.6644 27.0919 56.4389 27.0919C65.2135 27.0919 72.2425 34.1201 72.2425 42.8947V71.5378L60.9191 76.7581C59.8852 75.403 58.264 74.5007 56.4388 74.5007C53.335 74.5007 50.7948 77.0409 50.7948 80.1447C50.7948 83.2485 53.335 85.7886 56.4388 85.7886C59.5425 85.7886 62.0827 83.2485 62.0827 80.1447C62.0827 79.6675 62.0197 79.2124 61.9064 78.7691L73.618 73.3717H80.1438C83.2508 73.3717 85.7878 70.8347 85.7878 67.7277V51.925C85.7878 48.818 83.2508 46.281 80.1438 46.281H74.4999V42.8944C74.4999 32.908 66.4252 24.8333 56.4388 24.8333L56.439 24.8333ZM74.5002 48.538H80.1441C82.0394 48.538 83.5307 50.0285 83.5307 51.9245V67.7273C83.5307 69.6233 82.0394 71.1139 80.1441 71.1139H74.5002V48.538ZM56.439 76.7578C58.3225 76.7578 59.8256 78.2609 59.8256 80.1444C59.8256 82.0279 58.3225 83.531 56.439 83.531C54.5556 83.531 53.0524 82.0279 53.0524 80.1444C53.0524 78.2609 54.5556 76.7578 56.439 76.7578Z" fill="#202B3D"/>
</svg>
