<svg width="230" height="50" viewBox="0 0 230 50" fill="none" xmlns="http://www.w3.org/2000/svg">
<g clip-path="url(#clip0_653_955)">
<path d="M21.7331 18.5115C22.746 19.8082 23.2887 21.417 23.2706 23.0696C23.2706 25.5353 22.4191 27.4894 20.7162 28.9321C19.0133 30.3747 16.6358 31.0995 13.5839 31.1065H0V1.59546H13.1271C16.0894 1.59546 18.4083 2.28191 20.0836 3.65482C21.759 5.02772 22.5961 6.8912 22.5949 9.24525C22.5949 10.982 22.1451 12.4247 21.2454 13.5732C20.3269 14.735 19.0692 15.5735 17.6516 15.9691C19.2726 16.2859 20.7237 17.1898 21.7331 18.5115ZM7.11166 13.5314H11.7654C12.9295 13.5314 13.8229 13.2721 14.4457 12.7537C15.0685 12.2352 15.3799 11.4714 15.3799 10.4624C15.3799 9.45449 15.0685 8.68434 14.4457 8.15192C13.8229 7.6195 12.9295 7.35329 11.7654 7.35329H7.11166V13.5314ZM15.0989 24.4803C15.7504 23.9351 16.0762 23.1434 16.0762 22.1053C16.0762 21.0672 15.7367 20.2535 15.0576 19.6641C14.3784 19.077 13.4437 18.7829 12.2532 18.7818H7.10304V25.2964H12.3377C13.527 25.2975 14.4474 25.0255 15.0989 24.4803Z" fill="black"/>
<path d="M32.3179 0V31.1066H25.2148V0H32.3179Z" fill="black"/>
<path d="M58.1964 7.64795V31.1065H51.0933V27.9032C50.3371 28.97 49.33 29.8294 48.1632 30.4038C46.8926 31.0426 45.4901 31.3665 44.0713 31.3489C42.2994 31.3489 40.735 30.9495 39.3779 30.1509C38.0076 29.3393 36.9081 28.1322 36.2202 26.6844C35.4722 25.1731 35.0981 23.3939 35.0981 21.3468V7.64795H42.165V20.3773C42.165 21.9466 42.5672 23.1672 43.3715 24.0391C44.1759 24.911 45.256 25.3452 46.6119 25.3417C47.9908 25.3417 49.0825 24.9075 49.8868 24.0391C50.6912 23.1707 51.0933 21.9501 51.0933 20.3773V7.64795H58.1964Z" fill="black"/>
<path d="M82.8699 21.0957H66.7955C66.9104 22.5523 67.374 23.666 68.1864 24.4367C69.0023 25.2073 70.0853 25.622 71.201 25.591C72.9729 25.591 74.2053 24.8354 74.8982 23.3242H82.458C82.0763 24.8527 81.3593 26.2747 80.3604 27.4847C79.3315 28.7312 78.0344 29.7231 76.5684 30.3846C74.9598 31.1015 73.2171 31.4584 71.4596 31.4308C69.1878 31.4308 67.166 30.9408 65.3942 29.9609C63.6374 28.9953 62.1946 27.5357 61.2402 25.7584C60.244 23.938 59.7458 21.8089 59.7458 19.3711C59.7458 16.9334 60.2319 14.8043 61.204 12.9838C62.1483 11.2062 63.5863 9.74709 65.3407 8.78662C67.1126 7.80664 69.1482 7.31665 71.4475 7.31665C73.6905 7.31665 75.6842 7.79269 77.4285 8.74477C79.1519 9.67696 80.5727 11.0926 81.5204 12.8216C82.5028 14.5863 82.9946 16.6457 82.9958 18.9997C82.9932 19.7002 82.9512 20.4 82.8699 21.0957ZM75.7255 17.1025C75.7255 15.8703 75.3101 14.8897 74.4794 14.1608C73.6486 13.4319 72.6133 13.0681 71.3734 13.0692C70.1818 13.0692 69.1775 13.418 68.3605 14.1155C67.5435 14.813 67.0385 15.8075 66.8454 17.099L75.7255 17.1025Z" fill="black"/>
<path d="M96.0385 30.3411C94.4296 29.7037 93.0273 28.6267 91.9879 27.2303C90.9768 25.8574 90.4436 24.2049 90.3884 22.2728H97.9482C98.0631 23.3644 98.4372 24.1979 99.0703 24.7733C99.7034 25.3488 100.534 25.6359 101.563 25.6347C102.614 25.6347 103.445 25.3894 104.055 24.8989C104.665 24.4083 104.97 23.7288 104.969 22.8604C104.978 22.5247 104.919 22.1906 104.793 21.8795C104.668 21.5684 104.48 21.2872 104.241 21.0539C103.722 20.5545 103.117 20.1555 102.455 19.8769C101.471 19.4728 100.466 19.1235 99.4443 18.8307C97.8655 18.3615 96.3241 17.7716 94.8336 17.066C93.6181 16.4579 92.5638 15.5647 91.7587 14.4608C90.9003 13.3123 90.4712 11.8133 90.4712 9.96374C90.4712 7.2191 91.4542 5.06848 93.4203 3.5119C95.3863 1.95533 97.9482 1.17646 101.106 1.17529C104.316 1.17529 106.905 1.953 108.873 3.50842C110.84 5.06383 111.892 7.23014 112.03 10.0073H104.346C104.29 9.05525 103.945 8.30603 103.312 7.75966C102.679 7.21328 101.862 6.9401 100.861 6.9401C100.003 6.9401 99.3133 7.1726 98.7928 7.63759C98.2723 8.10259 98.0091 8.76754 98.0034 9.63243C98.0034 10.5868 98.4464 11.3297 99.3323 11.8609C100.218 12.3922 101.603 12.9665 103.486 13.5837C105.054 14.1006 106.588 14.7179 108.078 15.4321C109.276 16.0395 110.32 16.9164 111.13 17.9954C111.989 19.1172 112.418 20.5605 112.418 22.3251C112.436 23.943 111.996 25.5322 111.151 26.9059C110.307 28.2788 109.081 29.371 107.475 30.1824C105.868 30.9938 103.972 31.4007 101.787 31.403C99.6437 31.3949 97.7276 31.0409 96.0385 30.3411Z" fill="black"/>
<path d="M114.543 12.9839C115.443 11.1634 116.668 9.76258 118.22 8.78144C119.776 7.79978 121.577 7.28967 123.411 7.31146C125.045 7.31146 126.482 7.64742 127.72 8.31935C128.885 8.92957 129.867 9.84414 130.564 10.9681V7.65498H137.669V31.1065H130.556V27.7934C129.834 28.9123 128.84 29.824 127.669 30.4404C126.436 31.1135 125.003 31.4495 123.37 31.4483C121.547 31.466 119.758 30.9481 118.22 29.9574C116.668 28.9635 115.443 27.5487 114.543 25.7132C113.643 23.8776 113.194 21.7554 113.194 19.3468C113.194 16.9264 113.643 14.8055 114.543 12.9839ZM129.082 15.1286C128.617 14.6396 128.06 14.2502 127.444 13.9835C126.827 13.7168 126.164 13.5782 125.494 13.5761C124.823 13.574 124.159 13.7083 123.541 13.9712C122.923 14.234 122.364 14.6199 121.896 15.106C120.911 16.1301 120.42 17.5385 120.421 19.3311C120.422 21.1236 120.914 22.5454 121.896 23.5963C122.357 24.0916 122.913 24.4866 123.53 24.7573C124.147 25.0279 124.812 25.1685 125.485 25.1705C126.157 25.1725 126.823 25.0357 127.441 24.7687C128.06 24.5016 128.618 24.1098 129.082 23.6172C130.064 22.5814 130.556 21.1666 130.556 19.3729C130.556 17.5792 130.064 16.1644 129.082 15.1286Z" fill="black"/>
<path d="M163.539 7.64795V31.1065H156.434V27.9032C155.678 28.9704 154.671 29.8299 153.504 30.4038C152.233 31.0426 150.831 31.3665 149.412 31.3489C147.64 31.3489 146.076 30.9495 144.719 30.1509C143.349 29.3392 142.25 28.1321 141.563 26.6844C140.815 25.1731 140.441 23.3939 140.441 21.3468V7.64795H147.508V20.3773C147.508 21.9466 147.91 23.1672 148.714 24.0391C149.518 24.911 150.599 25.3452 151.954 25.3417C153.333 25.3417 154.425 24.9075 155.229 24.0391C156.034 23.1707 156.436 21.9501 156.436 20.3773V7.64795H163.539Z" fill="black"/>
<path d="M166.424 12.9839C167.324 11.1634 168.549 9.76258 170.101 8.78144C171.658 7.79973 173.46 7.28963 175.294 7.31146C176.928 7.31146 178.361 7.64743 179.593 8.31935C180.758 8.92952 181.74 9.84408 182.438 10.9681V7.65498H189.541V31.1065H182.438V27.7934C181.717 28.9119 180.722 29.8236 179.551 30.4404C178.32 31.1135 176.887 31.4495 175.253 31.4483C173.429 31.4657 171.639 30.9478 170.101 29.9574C168.549 28.9635 167.324 27.5487 166.424 25.7132C165.525 23.8776 165.075 21.7554 165.075 19.3468C165.075 16.9264 165.525 14.8055 166.424 12.9839ZM180.963 15.1287C180.498 14.6396 179.941 14.2502 179.325 13.9835C178.708 13.7168 178.045 13.5782 177.375 13.5761C176.704 13.574 176.04 13.7083 175.422 13.9712C174.804 14.234 174.245 14.6199 173.777 15.106C172.795 16.1301 172.303 17.5385 172.302 19.3311C172.301 21.1236 172.792 22.5454 173.777 23.5963C174.238 24.0916 174.794 24.4866 175.411 24.7573C176.028 25.0279 176.693 25.1685 177.366 25.1705C178.038 25.1725 178.704 25.0357 179.322 24.7687C179.941 24.5016 180.499 24.1098 180.963 23.6172C181.948 22.5814 182.44 21.1666 182.438 19.3729C182.437 17.5792 181.945 16.1644 180.963 15.1287Z" fill="black"/>
<path d="M202.749 8.50957C204.008 7.76343 205.444 7.37823 206.903 7.39532V15.0015H204.954C203.181 15.0015 201.851 15.3869 200.966 16.1576C200.08 16.9283 199.637 18.2803 199.637 20.2136V31.1067H192.534V7.64816H199.637V11.5559C200.425 10.3085 201.491 9.26519 202.749 8.50957Z" fill="black"/>
<path d="M229.876 21.0959H213.8C213.915 22.5525 214.378 23.6661 215.191 24.4369C216.006 25.2063 217.087 25.6209 218.202 25.5912C219.976 25.5912 221.208 24.8356 221.899 23.3244H229.461C229.077 24.8521 228.36 26.2734 227.361 27.4832C226.333 28.73 225.035 29.7219 223.569 30.383C221.961 31.1001 220.218 31.457 218.46 31.4293C216.191 31.4293 214.17 30.9393 212.397 29.9593C210.639 28.9944 209.195 27.5347 208.241 25.7569C207.245 23.9364 206.747 21.8073 206.747 19.3696C206.747 16.9318 207.238 14.8021 208.22 12.9805C209.164 11.2013 210.602 9.74053 212.357 8.77808C214.129 7.7981 216.165 7.30811 218.464 7.30811C220.706 7.30811 222.7 7.78415 224.446 8.73623C226.169 9.66845 227.59 11.0841 228.537 12.8131C229.519 14.5778 230.011 16.6371 230.012 18.9912C230.006 19.6948 229.961 20.3975 229.876 21.0959ZM222.73 17.1027C222.73 15.8704 222.314 14.8899 221.484 14.161C220.653 13.4321 219.615 13.0683 218.369 13.0694C217.179 13.0694 216.175 13.4182 215.358 14.1157C214.541 14.8132 214.035 15.8077 213.841 17.0992L222.73 17.1027Z" fill="black"/>
<path d="M6.30143 36.9847C7.0435 37.3747 7.6587 37.9728 8.07331 38.7075C8.48419 39.4955 8.69893 40.3729 8.69893 41.2638C8.69893 42.1547 8.48419 43.0322 8.07331 43.8201C7.65932 44.5595 7.04115 45.1606 6.29453 45.5499C5.47102 45.9716 4.55779 46.1824 3.63498 46.1637H0.0153809V36.3709H3.63498C4.56009 36.3513 5.47577 36.5621 6.30143 36.9847ZM5.55682 43.3598C6.05322 42.8657 6.30143 42.1682 6.30143 41.2673C6.30143 40.3664 6.05322 39.6642 5.55682 39.1609C5.06042 38.6587 4.36637 38.4076 3.47469 38.4076H2.35778V44.0991H3.47469C4.36523 44.0991 5.05927 43.8527 5.55682 43.3598Z" fill="black"/>
<path d="M16.5174 42.8436H11.1742C11.1829 43.2593 11.3482 43.656 11.6361 43.9527C11.9066 44.2085 12.2657 44.3463 12.6358 44.3363C13.2236 44.3363 13.6338 44.0852 13.8631 43.583H16.3727C16.2443 44.0979 16.002 44.5766 15.664 44.9829C15.326 45.3892 14.9011 45.7125 14.4215 45.9283C13.8875 46.1666 13.309 46.2856 12.7255 46.2771C12.0243 46.2903 11.3314 46.1222 10.7123 45.7888C10.1292 45.4683 9.65025 44.9838 9.33339 44.3938C8.98992 43.7397 8.81895 43.007 8.83699 42.2665C8.82005 41.5312 8.98726 40.8036 9.32305 40.1513C9.63813 39.56 10.1175 39.0751 10.7019 38.7563C11.3259 38.4227 12.0233 38.2547 12.7289 38.2681C13.4196 38.2553 14.1024 38.4184 14.7145 38.7424C15.2866 39.0518 15.7582 39.5216 16.0727 40.0955C16.4093 40.7244 16.5781 41.4312 16.5623 42.1461C16.5605 42.3793 16.5455 42.6122 16.5174 42.8436ZM14.1492 41.5184C14.1574 41.3346 14.1245 41.1513 14.0529 40.9822C13.9812 40.8131 13.8728 40.6626 13.7355 40.5419C13.4469 40.296 13.0785 40.1668 12.7013 40.1792C12.3373 40.1685 11.9818 40.2925 11.7016 40.528C11.4183 40.7835 11.2389 41.1365 11.1983 41.5184H14.1492Z" fill="black"/>
<path d="M18.4203 45.9283C17.9319 45.7238 17.5043 45.3945 17.1793 44.9728C16.8778 44.5811 16.6978 44.1078 16.6622 43.6127H18.9926C19.0042 43.7426 19.0435 43.8685 19.1078 43.9817C19.1721 44.0949 19.2598 44.1926 19.3649 44.2683C19.6011 44.4407 19.8872 44.529 20.1784 44.5194C20.4206 44.5356 20.6617 44.4746 20.8679 44.345C20.9425 44.2961 21.0038 44.2289 21.0459 44.1496C21.0881 44.0704 21.1099 43.9817 21.1092 43.8917C21.1096 43.7831 21.0766 43.6772 21.0149 43.5884C20.9531 43.4997 20.8656 43.4326 20.7645 43.3964C20.4022 43.2496 20.0286 43.133 19.6475 43.0477C19.1791 42.9427 18.7184 42.8052 18.2686 42.6362C17.9006 42.4913 17.5737 42.2565 17.3172 41.9526C17.0352 41.5957 16.8929 41.1464 16.9173 40.6901C16.9143 40.2552 17.0417 39.8296 17.2827 39.4695C17.5521 39.0814 17.9252 38.779 18.3583 38.5977C18.8929 38.3722 19.4684 38.2629 20.0474 38.2768C21.0127 38.2768 21.7733 38.5186 22.3295 39.0022C22.8857 39.4893 23.2299 40.1784 23.2878 40.9203H21.1092C21.0824 40.6688 20.9585 40.4382 20.7645 40.2786C20.5389 40.1124 20.2641 40.0287 19.9854 40.0415C19.7626 40.0274 19.5411 40.0835 19.3511 40.2019C19.2808 40.2505 19.2237 40.3162 19.1851 40.393C19.1466 40.4698 19.1278 40.5552 19.1305 40.6413C19.1306 40.7506 19.1637 40.8572 19.2253 40.9469C19.2869 41.0366 19.3741 41.1052 19.4752 41.1435C19.8284 41.2925 20.1957 41.4047 20.5714 41.4783C21.0441 41.5957 21.5092 41.7424 21.9641 41.9177C22.3307 42.0684 22.6551 42.3079 22.9086 42.6152C23.1945 42.9819 23.3435 43.4388 23.3292 43.9056C23.3344 44.3429 23.2015 44.7705 22.95 45.1262C22.6711 45.5041 22.294 45.7963 21.8607 45.9702C21.3375 46.1839 20.777 46.2883 20.2129 46.2771C19.5979 46.2881 18.9874 46.1693 18.4203 45.9283Z" fill="#4885EC"/>
<path d="M24.2324 37.2098C24.1058 37.095 24.0052 36.954 23.9374 36.7963C23.8695 36.6386 23.8361 36.468 23.8394 36.296C23.8357 36.122 23.8689 35.9492 23.9367 35.7892C24.0044 35.6292 24.1053 35.4857 24.2324 35.3684C24.5091 35.1164 24.8721 34.9837 25.2441 34.9987C25.6123 34.9852 25.971 35.1179 26.2438 35.3684C26.3709 35.4857 26.4718 35.6292 26.5395 35.7892C26.6073 35.9492 26.6405 36.122 26.6368 36.296C26.6401 36.468 26.6067 36.6386 26.5389 36.7963C26.471 36.954 26.3704 37.095 26.2438 37.2098C25.9714 37.4609 25.6124 37.5936 25.2441 37.5794C24.872 37.5952 24.5087 37.4624 24.2324 37.2098ZM26.4162 38.3885V46.1726H24.06V38.3798L26.4162 38.3885Z" fill="#1352AC"/>
<path d="M31.7595 38.6048C32.1453 38.8054 32.4713 39.1063 32.704 39.4766V38.3746H35.0619V46.1447C35.0715 46.8174 34.9276 47.4834 34.6414 48.0907C34.3608 48.6745 33.9143 49.1603 33.359 49.4857C32.704 49.8524 31.9631 50.0332 31.2148 50.0088C30.0749 50.0088 29.1511 49.7368 28.4432 49.1928C28.0994 48.9311 27.8141 48.5989 27.6062 48.2178C27.3982 47.8367 27.2723 47.4155 27.2367 46.9817H29.567C29.6035 47.1267 29.668 47.263 29.7567 47.3827C29.8455 47.5024 29.9567 47.6031 30.0841 47.6792C30.3938 47.8597 30.7473 47.9491 31.1045 47.9373C31.3169 47.9478 31.5292 47.9156 31.7292 47.8426C31.9292 47.7695 32.1129 47.6571 32.2697 47.5118C32.5592 47.2281 32.704 46.7748 32.704 46.1517V45.0566C32.4653 45.4279 32.1381 45.7325 31.7526 45.9424C31.3169 46.1809 30.8276 46.301 30.3323 46.2912C29.7226 46.2978 29.124 46.1258 28.6087 45.7959C28.0809 45.4496 27.6584 44.9619 27.3884 44.387C27.093 43.7237 26.9403 43.0045 26.9403 42.2771C26.9403 41.5496 27.093 40.8304 27.3884 40.1672C27.6588 39.5962 28.0814 39.1131 28.6087 38.7722C29.1256 38.4467 29.7236 38.2773 30.3323 38.2839C30.8271 38.2684 31.3178 38.3787 31.7595 38.6048ZM32.2145 40.8716C32.06 40.7094 31.8747 40.5804 31.6698 40.4922C31.4649 40.4041 31.2445 40.3587 31.0218 40.3587C30.7991 40.3587 30.5787 40.4041 30.3737 40.4922C30.1688 40.5804 29.9835 40.7094 29.829 40.8716C29.6607 41.0601 29.5308 41.2804 29.4468 41.5198C29.3628 41.7591 29.3264 42.0129 29.3395 42.2666C29.3127 42.7853 29.4885 43.2938 29.829 43.6825C29.9824 43.8468 30.1673 43.9776 30.3724 44.067C30.5775 44.1564 30.7984 44.2025 31.0218 44.2025C31.2451 44.2025 31.4661 44.1564 31.6712 44.067C31.8763 43.9776 32.0611 43.8468 32.2145 43.6825C32.5315 43.2829 32.7042 42.7859 32.7042 42.2736C32.7042 41.7613 32.5315 41.2642 32.2145 40.8646V40.8716Z" fill="#37B5FF"/>
<path d="M42.8992 39.1818C43.437 39.7724 43.7058 40.5861 43.7058 41.6231V46.1707H41.3617V41.9369C41.3912 41.4928 41.2476 41.0547 40.9618 40.7163C40.6713 40.4387 40.2868 40.284 39.8872 40.284C39.4875 40.284 39.103 40.4387 38.8125 40.7163C38.5267 41.0547 38.3832 41.4928 38.4126 41.9369V46.1638H36.0547V38.3797H38.4126V39.412C38.6599 39.0607 38.9922 38.7797 39.3778 38.5959C39.8041 38.3914 40.2712 38.2888 40.7429 38.296C41.6427 38.296 42.3614 38.5913 42.8992 39.1818Z" fill="#5270FF"/>
<path d="M51.1243 44.1409V46.1637H49.9177C49.0628 46.1637 48.3964 45.9521 47.9183 45.5289C47.4403 45.1058 47.2013 44.4153 47.2013 43.4574V40.3605H46.2637V38.3796H47.2013V36.4824H49.5592V38.3796H51.1105V40.3605H49.5592V43.487C49.5517 43.5783 49.5632 43.6701 49.5928 43.7566C49.6225 43.8431 49.6698 43.9223 49.7316 43.9892C49.8907 44.107 50.0869 44.1616 50.2832 44.1427L51.1243 44.1409Z" fill="black"/>
<path d="M58.5686 39.1818C59.1029 39.7724 59.3695 40.5861 59.3684 41.6231V46.1707H57.0243V41.9369C57.0534 41.4932 56.9106 41.0554 56.6261 40.7163C56.3353 40.4386 55.9505 40.2839 55.5506 40.2839C55.1506 40.2839 54.7658 40.4386 54.475 40.7163C54.1892 41.0547 54.0457 41.4928 54.0751 41.9369V46.1638H51.7241V35.8408H54.082V39.4259C54.3336 39.0716 54.6706 38.7882 55.061 38.6029C55.4958 38.3938 55.9724 38.2888 56.4537 38.296C56.8485 38.2806 57.242 38.3518 57.607 38.5047C57.9721 38.6576 58.3001 38.8886 58.5686 39.1818Z" fill="black"/>
<path d="M67.504 42.8438H62.1607C62.1688 43.2596 62.3341 43.6565 62.6227 43.9528C62.8931 44.2087 63.2522 44.3465 63.6224 44.3364C64.2101 44.3364 64.6203 44.0853 64.8496 43.5831H67.3592C67.2308 44.098 66.9885 44.5767 66.6505 44.983C66.3125 45.3893 65.8876 45.7126 65.408 45.9284C64.8741 46.1667 64.2955 46.2857 63.712 46.2772C63.0108 46.2904 62.3179 46.1223 61.6988 45.789C61.1157 45.4684 60.6368 44.9839 60.3199 44.394C59.977 43.7396 59.8067 43.0069 59.8252 42.2666C59.8085 41.5293 59.9769 40.7997 60.3147 40.1462C60.6293 39.5546 61.1088 39.0695 61.6936 38.7512C62.3175 38.4174 63.015 38.2494 63.7206 38.263C64.4113 38.2502 65.0941 38.4133 65.7062 38.7373C66.2783 39.0467 66.7499 39.5165 67.0644 40.0904C67.401 40.7193 67.5697 41.4261 67.5539 42.141C67.5507 42.3761 67.534 42.6107 67.504 42.8438ZM65.1323 41.5185C65.1405 41.3347 65.1076 41.1515 65.0359 40.9824C64.9643 40.8133 64.8558 40.6627 64.7186 40.542C64.4299 40.2962 64.0616 40.167 63.6844 40.1793C63.3203 40.1686 62.9649 40.2926 62.6847 40.5281C62.4013 40.7837 62.222 41.1367 62.1814 41.5185H65.1323Z" fill="black"/>
<path d="M74.1312 40.3606H72.8643V46.1638H70.5116V40.3606H69.6498V38.3797H70.5116V38.1565C70.5116 37.1986 70.7828 36.4709 71.3251 35.9734C71.8675 35.4758 72.6621 35.2271 73.7089 35.2271C73.8813 35.2271 74.0123 35.227 74.095 35.241V37.2637C73.6451 37.2358 73.328 37.3021 73.1453 37.459C72.9626 37.616 72.8695 37.9019 72.8695 38.31V38.3797H74.1312V40.3606Z" fill="black"/>
<path d="M82.1185 38.3796V46.1637H79.7606V45.1035C79.5078 45.4558 79.1726 45.7392 78.785 45.9283C78.3633 46.1406 77.8977 46.2482 77.4268 46.2422C76.8839 46.2521 76.3483 46.1148 75.8755 45.8446C75.4204 45.5796 75.0533 45.1839 74.8207 44.7077C74.5615 44.1546 74.434 43.5479 74.4484 42.936V38.3796H76.7925V42.6152C76.763 43.0593 76.9066 43.4974 77.1924 43.8358C77.3311 43.9809 77.4987 44.0946 77.6841 44.1691C77.8696 44.2437 78.0686 44.2775 78.2679 44.2683C78.4694 44.2785 78.6708 44.2452 78.8586 44.1706C79.0464 44.0961 79.2164 43.9819 79.3572 43.8358C79.643 43.4974 79.7865 43.0593 79.7571 42.6152V38.3796H82.1185Z" fill="black"/>
<path d="M87.3859 44.1409V46.1637H86.1793C85.3244 46.1637 84.658 45.9521 84.1799 45.5289C83.7019 45.1058 83.4629 44.4153 83.4629 43.4574V40.3605H82.5253V38.3796H83.4629V36.4824H85.8208V38.3796H87.3721V40.3605H85.8208V43.487C85.8133 43.5783 85.8248 43.6701 85.8544 43.7566C85.8841 43.8431 85.9314 43.9223 85.9932 43.9892C86.1522 44.1071 86.3485 44.1617 86.5448 44.1427L87.3859 44.1409Z" fill="black"/>
<path d="M95.5748 38.3796V46.1637H93.2169V45.1035C92.9658 45.4573 92.6317 45.7425 92.2448 45.9335C91.8231 46.1458 91.3575 46.2534 90.8866 46.2474C90.3437 46.257 89.8082 46.1198 89.3353 45.8498C88.8807 45.58 88.5159 45.1794 88.2873 44.699C88.0282 44.1459 87.9007 43.5392 87.915 42.9273V38.3796H90.2592V42.6152C90.2307 43.0592 90.3741 43.4969 90.659 43.8358C90.7977 43.9809 90.9654 44.0946 91.1508 44.1691C91.3362 44.2437 91.5352 44.2775 91.7346 44.2683C91.9361 44.2785 92.1374 44.2452 92.3253 44.1706C92.5131 44.0961 92.6831 43.9819 92.8239 43.8358C93.1097 43.4974 93.2532 43.0593 93.2238 42.6152V38.3796H95.5748Z" fill="black"/>
<path d="M99.9459 38.6657C100.364 38.4183 100.841 38.2905 101.325 38.2961V40.821H100.675C100.086 40.821 99.6408 40.95 99.3513 41.2046C99.0617 41.4592 98.91 41.9021 98.91 42.5508V46.1638H96.5538V38.3798H98.9117V39.6771C99.1741 39.2633 99.5282 38.917 99.9459 38.6657Z" fill="black"/>
<path d="M108.948 42.8436H103.605C103.612 43.2597 103.778 43.6569 104.067 43.9526C104.337 44.2084 104.695 44.3462 105.065 44.3363C105.655 44.3363 106.064 44.0852 106.292 43.583H108.81C108.681 44.0986 108.438 44.5777 108.099 44.984C107.76 45.3904 107.333 45.7133 106.852 45.9283C106.318 46.1666 105.74 46.2855 105.156 46.277C104.456 46.2902 103.763 46.1222 103.145 45.7888C102.561 45.4687 102.082 44.9841 101.766 44.3938C101.442 43.7351 101.273 43.0093 101.273 42.2734C101.273 41.5376 101.442 40.8117 101.766 40.153C102.08 39.561 102.56 39.0758 103.145 38.758C103.768 38.4244 104.465 38.2564 105.17 38.2698C105.861 38.257 106.544 38.4201 107.156 38.7441C107.728 39.0535 108.199 39.5233 108.514 40.0972C108.851 40.7261 109.019 41.4329 109.004 42.1479C108.998 42.3807 108.98 42.613 108.948 42.8436ZM106.577 41.5184C106.585 41.3346 106.552 41.1513 106.48 40.9822C106.409 40.8131 106.3 40.6626 106.163 40.5419C105.874 40.296 105.506 40.1668 105.129 40.1792C104.765 40.1688 104.409 40.2927 104.129 40.5279C103.846 40.7837 103.667 41.1367 103.628 41.5184H106.577Z" fill="black"/>
<path d="M113.345 36.2419V37.4939H112.023V41.2796H110.462V37.4939H109.153V36.2419H113.345Z" fill="black"/>
<path d="M120.105 36.2419V41.2796H118.554V38.7669L117.787 41.2796H116.451L115.684 38.7669V41.2796H114.119V36.2419H116.032L117.13 39.2656L118.199 36.2419H120.105Z" fill="black"/>
<path d="M137.667 38.0605H134.074V41.6631H137.667V38.0605Z" fill="#5270FF"/>
<path d="M137.667 34.3918H134.074V34.425H137.667V34.3918Z" fill="black"/>
<path d="M134.074 38.0605H130.48V41.6631H134.074V38.0605Z" fill="#37B5FF"/>
<path d="M134.074 34.3918H130.48V34.425H134.074V34.3918Z" fill="black"/>
<path d="M137.667 34.4248H134.074V38.0605H137.667V34.4248Z" fill="#1352AC"/>
<path d="M134.074 34.4248H130.48V38.0605H134.074V34.4248Z" fill="#4885EC"/>
</g>
<defs>
<clipPath id="clip0_653_955">
<rect width="230" height="50" fill="white"/>
</clipPath>
</defs>
</svg>
