<svg width="1067" height="261" viewBox="0 0 1067 261" fill="none" xmlns="http://www.w3.org/2000/svg">
<path d="M142.366 3.58838L284.519 131.933L142.366 260.278L0.214264 131.933L142.366 3.58838Z" fill="#15D9EE" fill-opacity="0.09"/>
<path d="M197.293 3.58838L339.445 131.933L197.293 260.278L55.141 131.933L197.293 3.58838Z" fill="#15D9EE" fill-opacity="0.09"/>
<path d="M257.714 3.58838L399.866 131.933L257.714 260.278L115.562 131.933L257.714 3.58838Z" fill="#15D9EE" fill-opacity="0.09"/>
<path d="M312.642 3.58838L454.794 131.933L312.642 260.278L170.49 131.933L312.642 3.58838Z" fill="#15D9EE" fill-opacity="0.09"/>
<path d="M368.668 0.292725L510.82 128.638L368.668 256.982L226.516 128.638L368.668 0.292725Z" fill="#15D9EE" fill-opacity="0.09"/>
<path d="M419.201 0.292725L561.354 128.638L419.201 256.982L277.049 128.638L419.201 0.292725Z" fill="#15D9EE" fill-opacity="0.09"/>
<path d="M475.228 0.292725L617.38 128.638L475.228 256.982L333.076 128.638L475.228 0.292725Z" fill="#15D9EE" fill-opacity="0.09"/>
<path d="M591.674 3.58838L733.826 131.933L591.674 260.278L449.522 131.933L591.674 3.58838Z" fill="#15D9EE" fill-opacity="0.09"/>
<path d="M646.602 3.58838L788.754 131.933L646.602 260.278L504.45 131.933L646.602 3.58838Z" fill="#15D9EE" fill-opacity="0.09"/>
<path d="M707.022 3.58838L849.174 131.933L707.022 260.278L564.87 131.933L707.022 3.58838Z" fill="#15D9EE" fill-opacity="0.09"/>
<path d="M761.949 3.58838L904.102 131.933L761.949 260.278L619.797 131.933L761.949 3.58838Z" fill="#15D9EE" fill-opacity="0.09"/>
<path d="M817.976 0.292725L960.128 128.638L817.976 256.982L675.824 128.638L817.976 0.292725Z" fill="#15D9EE" fill-opacity="0.09"/>
<path d="M868.509 0.292725L1010.66 128.638L868.509 256.982L726.357 128.638L868.509 0.292725Z" fill="#15D9EE" fill-opacity="0.09"/>
<path d="M924.535 0.292725L1066.69 128.638L924.535 256.982L782.383 128.638L924.535 0.292725Z" fill="#15D9EE" fill-opacity="0.09"/>
</svg>
