<svg width="56" height="56" viewBox="0 0 56 56" fill="none" xmlns="http://www.w3.org/2000/svg">
<path d="M48.2778 30.2078H51.7519C53.7748 30.2078 55.4261 31.8591 55.4261 33.8819V43.8894C55.4261 45.9122 53.7748 47.5636 51.7519 47.5636H47.6412L40.3193 50.9379C40.3806 51.2006 40.4143 51.4707 40.4143 51.7527C40.4143 53.7735 38.7609 55.4269 36.7402 55.4269C34.7194 55.4269 33.066 53.7735 33.066 51.7527C33.066 49.7319 34.7194 48.0785 36.7402 48.0785C37.9011 48.0785 38.9339 48.6386 39.6075 49.4841L46.6482 46.2382V28.1633C46.6482 22.6618 42.2418 18.2559 36.7403 18.2559C31.2388 18.2559 26.8328 22.6618 26.8328 28.1633V46.749C26.8328 47.1987 26.4679 47.5635 26.0178 47.5635H21.7291C19.7059 47.5635 18.0553 45.9125 18.0549 43.89M48.2778 30.2078L19.5845 43.8894M48.2778 30.2078V28.1631C48.2778 21.7838 43.1196 16.6256 36.7403 16.6255M48.2778 30.2078L36.7402 16.7231V16.6255C36.7402 16.6255 36.7403 16.6255 36.7403 16.6255M18.0549 43.89C18.0517 43.6719 18.1365 43.4625 18.289 43.3072L18.2892 43.307C18.4425 43.1519 18.6511 43.0644 18.8694 43.0644C19.0876 43.0644 19.2968 43.1519 19.4498 43.3071C19.603 43.4626 19.6871 43.6721 19.6845 43.8899M18.0549 43.89C18.0549 43.8898 18.0549 43.8896 18.0549 43.8894H18.1549L18.0549 43.8909C18.0549 43.8906 18.0549 43.8903 18.0549 43.89ZM19.6845 43.8899C19.6845 43.8902 19.6845 43.8904 19.6845 43.8907L19.5845 43.8894M19.6845 43.8899C19.6845 43.8897 19.6845 43.8895 19.6845 43.8894H19.5845M19.6845 43.8899C19.6847 45.0352 20.5838 45.934 21.7291 45.934H25.2033M19.5845 43.8894C19.5845 45.0901 20.5284 46.034 21.7291 46.034H25.2033V45.934M25.2033 45.934H25.3033V31.8373H25.2033M25.2033 45.934V31.8373M25.2033 31.8373V31.7373H21.7291C20.5284 31.7373 19.5845 32.6812 19.5845 33.8819V39.6007M25.2033 31.8373H21.7291C20.5836 31.8373 19.6845 32.7365 19.6845 33.8819V39.6002M19.6845 39.6002C19.6845 39.5999 19.6845 39.5997 19.6845 39.5994L19.5845 39.6007M19.6845 39.6002V39.6007H19.5845M19.6845 39.6002C19.6871 39.8174 19.6031 40.0274 19.4498 40.1825M19.5845 39.6007C19.587 39.7917 19.5132 39.9762 19.3785 40.1123M19.3785 40.1123L19.4499 40.1824C19.4498 40.1824 19.4498 40.1825 19.4498 40.1825M19.3785 40.1123C19.2444 40.249 19.0609 40.3258 18.8694 40.3258C18.6779 40.3258 18.4949 40.249 18.3603 40.1123C18.2262 39.9762 18.1519 39.7917 18.1549 39.6007M19.3785 40.1123L19.4496 40.1827C19.4497 40.1826 19.4497 40.1826 19.4498 40.1825M19.4498 40.1825C19.2968 40.3383 19.0876 40.4258 18.8694 40.4258C18.6511 40.4258 18.4424 40.3382 18.2891 40.1825C18.1364 40.0276 18.0517 39.8177 18.0549 39.6001M18.1549 39.6007H18.0549V39.6001M18.1549 39.6007V33.8819C18.1549 31.9144 19.761 30.3078 21.7291 30.3078H25.2032V30.2078M18.1549 39.6007L18.0549 39.5992C18.0549 39.5995 18.0549 39.5998 18.0549 39.6001M18.0549 39.6001V33.8819C18.0549 31.8591 19.7057 30.2078 21.7291 30.2078H25.2032M25.2032 30.2078H25.3032L36.7403 16.6255M25.2032 30.2078V28.1631C25.2032 21.7838 30.3615 16.6255 36.7403 16.6255M11.4338 5.9015L11.4608 5.92857C11.1263 6.04146 10.8987 6.35976 10.907 6.71919V11.7206C10.9022 11.9384 10.9846 12.1488 11.1361 12.3053L11.1361 12.3053L11.1372 12.3065L14.7114 15.8807C14.8664 16.0357 15.0768 16.1224 15.2957 16.1224C15.5152 16.1224 15.725 16.0356 15.8804 15.8808L15.8806 15.8806C16.0354 15.7252 16.1222 15.5153 16.1222 15.2959C16.1222 15.077 16.0355 14.8666 15.8805 14.7116L12.5365 11.3676V6.71959C12.544 6.48626 12.4515 6.26025 12.2813 6.09972L12.2812 6.09961C12.1102 5.93888 11.8789 5.85927 11.6452 5.88144L11.4338 5.9015ZM11.7215 0.899268C5.7531 0.899268 0.899023 5.75335 0.899023 11.7218C0.899023 17.6908 5.75311 22.5443 11.7215 22.5443C17.6905 22.5443 22.5441 17.6908 22.5441 11.7218C22.5441 5.75335 17.6905 0.899268 11.7215 0.899268ZM11.7215 2.52881C16.8071 2.52881 20.9145 6.63608 20.9145 11.7218C20.9145 16.8074 16.8073 20.9148 11.7215 20.9148C6.63596 20.9148 2.52857 16.8075 2.52857 11.7218C2.52857 6.63621 6.63584 2.52881 11.7215 2.52881ZM48.278 31.837H51.7521C52.8971 31.837 53.7968 32.7362 53.7968 33.8817V43.8891C53.7968 45.0346 52.8971 45.9337 51.7521 45.9337H48.278V31.837ZM36.7403 49.7079C37.8778 49.7079 38.785 50.615 38.785 51.7526C38.785 52.8901 37.8779 53.7972 36.7403 53.7972C35.6028 53.7972 34.6957 52.8901 34.6957 51.7526C34.6957 50.615 35.6028 49.7079 36.7403 49.7079Z" fill="#15D9EE" stroke="#15D9EE" stroke-width="0.2"/>
</svg>
