<svg width="73" height="56" viewBox="0 0 73 56" fill="none" xmlns="http://www.w3.org/2000/svg">
<g clip-path="url(#clip0_475_6966)">
<path d="M60.0579 13.2595H13.3565C12.0785 13.2595 11.0332 14.3049 11.0332 15.5828V43.1157C11.0332 44.3937 12.0786 45.439 13.3565 45.439H32.9899V49.6212C29.0402 50.2022 26.2518 51.596 26.2518 53.3391H47.2791C47.2791 51.5969 44.4908 50.2023 40.5411 49.6212V45.439H60.0586C61.3365 45.439 62.3818 44.3936 62.3818 43.1157V15.5828C62.3818 14.3048 61.3364 13.2595 60.0586 13.2595H60.0579ZM59.7095 42.5351H13.8212V15.9315H59.7095V42.5351Z" fill="white"/>
</g>
<mask id="path-2-inside-1_475_6966" fill="white">
<rect x="0.000244141" y="-0.000488281" width="72.1931" height="45.4319" rx="2"/>
</mask>
<rect x="0.000244141" y="-0.000488281" width="72.1931" height="45.4319" rx="2" stroke="white" stroke-width="5.12" mask="url(#path-2-inside-1_475_6966)"/>
<line x1="24.4281" y1="-0.000488281" x2="24.4281" y2="45.4314" stroke="white" stroke-width="1.55589"/>
<line x1="47.9215" y1="-0.000488281" x2="47.9215" y2="45.4314" stroke="white" stroke-width="1.55589"/>
<defs>
<clipPath id="clip0_475_6966">
<rect width="28.4727" height="9.64649" fill="white" transform="translate(21.9377 45.4312)"/>
</clipPath>
</defs>
</svg>
