<svg width="52" height="56" viewBox="0 0 52 56" fill="none" xmlns="http://www.w3.org/2000/svg">
<path d="M40.6506 51.1313L40.785 51.2675C40.542 51.4223 40.3797 51.6942 40.3797 52.0016V52.8415C40.3797 53.3739 39.94 53.8136 39.4076 53.8136H3.46926C2.93692 53.8136 2.49718 53.3739 2.49718 52.8415V3.46922C2.49718 2.93688 2.9369 2.49714 3.46926 2.49714H39.4076C39.9399 2.49714 40.3797 2.93686 40.3797 3.46922V30.5742C40.3797 31.0518 40.7717 31.4439 41.2493 31.4439C41.7269 31.4439 42.1189 31.0518 42.1189 30.5742L42.1185 3.46922C42.1185 1.97412 40.9039 0.749756 39.3991 0.749756H3.46873C1.97363 0.749756 0.749268 1.96438 0.749268 3.46922V52.8495C0.749268 54.3446 1.96389 55.569 3.46873 55.569H39.4071C40.9022 55.569 42.1265 54.3544 42.1265 52.8495V52.001C42.1265 51.5213 41.7323 51.1313 41.2487 51.1313H40.6506Z" fill="white" stroke="white" stroke-width="0.5"/>
<path d="M14.8836 26.7381H28.8176C29.8616 26.7381 30.8034 26.1185 31.2192 25.1597L32.56 22.037H33.4933C33.8328 22.037 34.1129 21.7569 34.1129 21.4174C34.1129 21.0779 33.8328 20.7977 33.4933 20.7977H32.6701C32.3392 15.8759 28.7071 11.828 23.9888 10.869C24.379 10.3939 24.6252 9.78291 24.6252 9.12071C24.6252 7.58459 23.3777 6.3457 21.8502 6.3457C20.314 6.3457 19.0752 7.59319 19.0752 9.12071C19.0752 9.79112 19.3213 10.3936 19.7116 10.869C14.9847 11.8277 11.3529 15.8759 11.0302 20.7977H10.207C9.86752 20.7977 9.5874 21.0779 9.5874 21.4174C9.5874 21.7569 9.86752 22.037 10.207 22.037H11.1404L12.4812 25.1597C12.8976 26.1185 13.8396 26.7381 14.8835 26.7381H14.8836ZM21.8506 7.57624C22.6992 7.57624 23.3867 8.26346 23.3867 9.11237C23.3867 9.96094 22.6995 10.6485 21.8506 10.6485C20.9934 10.6485 20.3145 9.97809 20.3145 9.11237C20.3231 8.27202 21.0103 7.57624 21.8506 7.57624ZM12.2613 20.7892C12.6348 15.8334 16.8099 11.8957 21.8592 11.8957C26.8997 11.8957 31.0751 15.8334 31.4485 20.7892H12.2613ZM31.2101 22.0367L30.0728 24.6758C29.8607 25.1766 29.3598 25.5075 28.8167 25.5075H14.8827C14.331 25.5075 13.8387 25.1852 13.6266 24.6758L12.4893 22.0367H31.2101Z" fill="white"/>
<path d="M12.8554 31.6097C12.6093 31.3722 12.219 31.3808 11.9728 31.6265L9.85961 33.8073L9.04543 32.8146C8.8247 32.5517 8.4344 32.5091 8.17148 32.7298C7.90855 32.9506 7.86596 33.3409 8.0867 33.6038L9.34278 35.1313C9.45296 35.2673 9.6229 35.3521 9.80105 35.3603H9.82644C9.996 35.3603 10.1574 35.2923 10.2761 35.1735L12.8812 32.4919C13.1102 32.2462 13.1016 31.8473 12.8554 31.6098L12.8554 31.6097Z" fill="white"/>
<path d="M34.3089 33.0598H17.4724C17.1329 33.0598 16.8528 33.3399 16.8528 33.6794C16.8528 34.0189 17.1329 34.2991 17.4724 34.2991H34.3179C34.6574 34.2991 34.9375 34.0189 34.9375 33.6794C34.9371 33.3399 34.657 33.0598 34.3093 33.0598H34.3089Z" fill="white"/>
<path d="M12.8554 38.9156C12.6093 38.6781 12.219 38.6867 11.9728 38.9324L9.85961 41.1133L9.04543 40.1209C8.8247 39.858 8.4344 39.8154 8.17148 40.0361C7.90855 40.2569 7.86596 40.6472 8.0867 40.9101L9.34278 42.4376C9.45296 42.5736 9.6229 42.6584 9.80105 42.6666H9.82644C9.996 42.6666 10.1574 42.5986 10.2761 42.4798L12.8812 39.7982C13.1102 39.5439 13.1016 39.1536 12.8554 38.9157L12.8554 38.9156Z" fill="white"/>
<path d="M17.4726 41.605H30.6765C31.0161 41.605 31.2962 41.3248 31.2962 40.9853C31.2962 40.6458 31.0161 40.3657 30.6765 40.3657L17.4726 40.3661C17.1331 40.3661 16.853 40.6462 16.853 40.9857C16.8444 41.3334 17.1245 41.605 17.4726 41.605Z" fill="white"/>
<path d="M11.9723 46.2308L9.85913 48.4116L9.04495 47.4275C8.82421 47.1646 8.43392 47.122 8.17099 47.3427C7.90806 47.5635 7.86547 47.9538 8.08621 48.2167L9.34229 49.7442C9.45247 49.8802 9.62242 49.9649 9.80056 49.9732H9.82596C9.99551 49.9732 10.1569 49.9052 10.2756 49.7864L12.8807 47.1048C13.1183 46.8587 13.1097 46.4684 12.8639 46.2223C12.6088 45.9847 12.2103 45.9847 11.9724 46.2309L11.9723 46.2308Z" fill="white"/>
<path d="M17.4726 48.9121H34.3181C34.6576 48.9121 34.9377 48.632 34.9377 48.2925C34.9377 47.953 34.6576 47.6729 34.3181 47.6729L17.4726 47.6732C17.1331 47.6732 16.853 47.9534 16.853 48.2929C16.8444 48.632 17.1245 48.9121 17.4726 48.9121Z" fill="white"/>
<path d="M48.8198 35.8183C47.3942 34.3927 45.5017 33.6118 43.4905 33.6118H43.4819C41.4707 33.6118 39.57 34.401 38.144 35.8266C36.7184 37.2523 35.9292 39.1447 35.9292 41.1645C35.9292 43.1843 36.7098 45.0764 38.1357 46.5024C39.5613 47.928 41.4624 48.7173 43.4736 48.7173H43.4822C45.4934 48.7173 47.3941 47.9281 48.8201 46.5024C51.7643 43.5579 51.7643 38.7634 48.8197 35.8188L48.8198 35.8183ZM47.9458 45.6198C45.485 48.0807 41.4793 48.0807 39.0183 45.6198C36.566 43.1674 36.566 39.1618 39.0269 36.7009C40.2576 35.4702 41.8781 34.851 43.4905 34.851C45.1028 34.851 46.7152 35.462 47.9372 36.6927C50.4067 39.1618 50.4067 43.1588 47.9458 45.6198H47.9458Z" fill="white"/>
<path d="M46.2311 40.545H44.1097V38.4236C44.1097 38.0841 43.8295 37.804 43.49 37.804C43.1505 37.804 42.8704 38.0841 42.8704 38.4236V40.545H40.749C40.4095 40.545 40.1294 40.8251 40.1294 41.1646C40.1294 41.5041 40.4095 41.7842 40.749 41.7842H42.8704V43.9056C42.8704 44.2451 43.1505 44.5253 43.49 44.5253C43.8295 44.5253 44.1097 44.2451 44.1097 43.9056V41.7842H46.2311C46.5706 41.7842 46.8507 41.5041 46.8507 41.1646C46.8507 40.8251 46.5706 40.545 46.2311 40.545Z" fill="white"/>
</svg>
