<svg width="56" height="56" viewBox="0 0 56 56" fill="none" xmlns="http://www.w3.org/2000/svg">
<path d="M48.2773 30.2078H51.7515C53.7743 30.2078 55.4256 31.8591 55.4256 33.8819V43.8894C55.4256 45.9122 53.7743 47.5636 51.7515 47.5636H47.6408L40.3189 50.9379C40.3801 51.2006 40.4138 51.4707 40.4138 51.7527C40.4138 53.7735 38.7604 55.4269 36.7397 55.4269C34.7189 55.4269 33.0655 53.7735 33.0655 51.7527C33.0655 49.7319 34.7189 48.0785 36.7397 48.0785C37.9006 48.0785 38.9334 48.6386 39.607 49.4841L46.6477 46.2382V28.1633C46.6477 22.6618 42.2413 18.2559 36.7398 18.2559C31.2383 18.2559 26.8324 22.6618 26.8324 28.1633V46.749C26.8324 47.1987 26.4674 47.5635 26.0173 47.5635H21.7286C19.7055 47.5635 18.0548 45.9125 18.0544 43.89M48.2773 30.2078L19.584 43.8894M48.2773 30.2078V28.1631C48.2773 21.7838 43.1191 16.6256 36.7398 16.6255M48.2773 30.2078L36.7397 16.7231V16.6255C36.7397 16.6255 36.7398 16.6255 36.7398 16.6255M18.0544 43.89C18.0512 43.6719 18.136 43.4625 18.2885 43.3072L18.2887 43.307C18.442 43.1519 18.6506 43.0644 18.8689 43.0644C19.0872 43.0644 19.2963 43.1519 19.4493 43.3071C19.6025 43.4626 19.6866 43.6721 19.684 43.8899M18.0544 43.89C18.0544 43.8898 18.0544 43.8896 18.0544 43.8894H18.1544L18.0544 43.8909C18.0544 43.8906 18.0544 43.8903 18.0544 43.89ZM19.684 43.8899C19.684 43.8902 19.684 43.8904 19.684 43.8907L19.584 43.8894M19.684 43.8899C19.684 43.8897 19.684 43.8895 19.684 43.8894H19.584M19.684 43.8899C19.6843 45.0352 20.5833 45.934 21.7286 45.934H25.2028M19.584 43.8894C19.584 45.0901 20.5279 46.034 21.7286 46.034H25.2028V45.934M25.2028 45.934H25.3028V31.8373H25.2028M25.2028 45.934V31.8373M25.2028 31.8373V31.7373H21.7286C20.5279 31.7373 19.584 32.6812 19.584 33.8819V39.6007M25.2028 31.8373H21.7286C20.5831 31.8373 19.684 32.7365 19.684 33.8819V39.6002M19.684 39.6002C19.684 39.5999 19.684 39.5997 19.684 39.5994L19.584 39.6007M19.684 39.6002V39.6007H19.584M19.684 39.6002C19.6866 39.8174 19.6026 40.0274 19.4493 40.1825M19.584 39.6007C19.5865 39.7917 19.5127 39.9762 19.378 40.1123M19.378 40.1123L19.4494 40.1824C19.4494 40.1824 19.4493 40.1825 19.4493 40.1825M19.378 40.1123C19.2439 40.249 19.0604 40.3258 18.8689 40.3258C18.6775 40.3258 18.4945 40.249 18.3598 40.1123C18.2257 39.9762 18.1514 39.7917 18.1544 39.6007M19.378 40.1123L19.4491 40.1827C19.4492 40.1826 19.4492 40.1826 19.4493 40.1825M19.4493 40.1825C19.2963 40.3383 19.0871 40.4258 18.8689 40.4258C18.6506 40.4258 18.442 40.3382 18.2886 40.1825C18.1359 40.0276 18.0512 39.8177 18.0544 39.6001M18.1544 39.6007H18.0544V39.6001M18.1544 39.6007V33.8819C18.1544 31.9144 19.7605 30.3078 21.7286 30.3078H25.2027V30.2078M18.1544 39.6007L18.0544 39.5992C18.0544 39.5995 18.0544 39.5998 18.0544 39.6001M18.0544 39.6001V33.8819C18.0544 31.8591 19.7052 30.2078 21.7286 30.2078H25.2027M25.2027 30.2078H25.3027L36.7398 16.6255M25.2027 30.2078V28.1631C25.2027 21.7838 30.361 16.6255 36.7398 16.6255M11.4333 5.9015L11.4604 5.92857C11.1258 6.04146 10.8982 6.35976 10.9065 6.71919V11.7206C10.9017 11.9384 10.9841 12.1488 11.1356 12.3053L11.1356 12.3053L11.1368 12.3065L14.7109 15.8807C14.8659 16.0357 15.0764 16.1224 15.2952 16.1224C15.5147 16.1224 15.7245 16.0356 15.8799 15.8808L15.8801 15.8806C16.0349 15.7252 16.1217 15.5153 16.1217 15.2959C16.1217 15.077 16.035 14.8666 15.88 14.7116L12.5361 11.3676V6.71959C12.5435 6.48626 12.451 6.26025 12.2808 6.09972L12.2807 6.09961C12.1097 5.93888 11.8784 5.85927 11.6448 5.88144L11.4333 5.9015ZM11.7211 0.899268C5.75261 0.899268 0.898535 5.75335 0.898535 11.7218C0.898535 17.6908 5.75262 22.5443 11.7211 22.5443C17.69 22.5443 22.5436 17.6908 22.5436 11.7218C22.5436 5.75335 17.69 0.899268 11.7211 0.899268ZM11.7211 2.52881C16.8066 2.52881 20.914 6.63608 20.914 11.7218C20.914 16.8074 16.8068 20.9148 11.7211 20.9148C6.63548 20.9148 2.52808 16.8075 2.52808 11.7218C2.52808 6.63621 6.63535 2.52881 11.7211 2.52881ZM48.2775 31.837H51.7516C52.8966 31.837 53.7963 32.7362 53.7963 33.8817V43.8891C53.7963 45.0346 52.8967 45.9337 51.7516 45.9337H48.2775V31.837ZM36.7398 49.7079C37.8773 49.7079 38.7845 50.615 38.7845 51.7526C38.7845 52.8901 37.8774 53.7972 36.7398 53.7972C35.6023 53.7972 34.6952 52.8901 34.6952 51.7526C34.6952 50.615 35.6023 49.7079 36.7398 49.7079Z" fill="white" stroke="white" stroke-width="0.2"/>
</svg>
