<svg width="259" height="736" viewBox="0 0 259 736" fill="none" xmlns="http://www.w3.org/2000/svg">
<path d="M129.413 268L258.812 384.831L129.413 501.662L0.0135498 384.831L129.413 268Z" fill="#15D9EE" fill-opacity="0.28"/>
<path d="M129.413 304L258.812 420.831L129.413 537.662L0.0133057 420.831L129.413 304Z" fill="#15D9EE" fill-opacity="0.28"/>
<path d="M129.41 343L258.81 459.831L129.41 576.662L0.0106201 459.831L129.41 343Z" fill="#15D9EE" fill-opacity="0.28"/>
<path d="M129.407 385L258.806 501.831L129.407 618.662L0.00720215 501.831L129.407 385Z" fill="#15D9EE" fill-opacity="0.28"/>
<path d="M129.407 421L258.806 537.831L129.407 654.662L0.00720215 537.831L129.407 421Z" fill="#15D9EE" fill-opacity="0.28"/>
<path d="M129.403 460L258.802 576.831L129.403 693.662L0.0032959 576.831L129.403 460Z" fill="#15D9EE" fill-opacity="0.28"/>
<path d="M129.399 502L258.799 618.831L129.399 735.662L-0.00012207 618.831L129.399 502Z" fill="#15D9EE" fill-opacity="0.28"/>
<path d="M129.417 0L258.817 116.831L129.417 233.662L0.0177002 116.831L129.417 0Z" fill="#15D9EE" fill-opacity="0.28"/>
<path d="M129.417 34L258.816 150.831L129.417 267.662L0.0174561 150.831L129.417 34Z" fill="#15D9EE" fill-opacity="0.28"/>
<path d="M129.417 70L258.816 186.831L129.417 303.662L0.0174561 186.831L129.417 70Z" fill="#15D9EE" fill-opacity="0.28"/>
<path d="M129.417 109L258.816 225.831L129.417 342.662L0.0174561 225.831L129.417 109Z" fill="#15D9EE" fill-opacity="0.28"/>
<path d="M129.416 151L258.815 267.831L129.416 384.662L0.0164795 267.831L129.416 151Z" fill="#15D9EE" fill-opacity="0.28"/>
<path d="M129.416 187L258.815 303.831L129.416 420.662L0.0164795 303.831L129.416 187Z" fill="#15D9EE" fill-opacity="0.28"/>
<path d="M129.413 226L258.812 342.831L129.413 459.662L0.0135498 342.831L129.413 226Z" fill="#15D9EE" fill-opacity="0.28"/>
</svg>
