<svg width="647" height="234" viewBox="0 0 647 234" fill="none" xmlns="http://www.w3.org/2000/svg">
<path d="M412.399 0L541.799 116.831L412.399 233.662L283 116.831L412.399 0Z" fill="#D2D6DB" fill-opacity="0.2"/>
<path d="M462.399 0L591.799 116.831L462.399 233.662L333 116.831L462.399 0Z" fill="#D2D6DB" fill-opacity="0.2"/>
<path d="M517.399 0L646.799 116.831L517.399 233.662L388 116.831L517.399 0Z" fill="#D2D6DB" fill-opacity="0.2"/>
<path d="M129.403 0L258.802 116.831L129.403 233.662L0.0032959 116.831L129.403 0Z" fill="#D2D6DB" fill-opacity="0.2"/>
<path d="M179.403 0L308.802 116.831L179.403 233.662L50.0033 116.831L179.403 0Z" fill="#D2D6DB" fill-opacity="0.2"/>
<path d="M234.403 0L363.802 116.831L234.403 233.662L105.003 116.831L234.403 0Z" fill="#D2D6DB" fill-opacity="0.2"/>
</svg>
