<svg width="73" height="56" viewBox="0 0 73 56" fill="none" xmlns="http://www.w3.org/2000/svg">
<g clip-path="url(#clip0_524_391)">
<path d="M60.0579 13.2593H13.3565C12.0785 13.2593 11.0332 14.3046 11.0332 15.5825V43.1155C11.0332 44.3934 12.0786 45.4387 13.3565 45.4387H32.9899V49.621C29.0402 50.202 26.2518 51.5958 26.2518 53.3389H47.2791C47.2791 51.5966 44.4908 50.202 40.5411 49.621V45.4387H60.0586C61.3365 45.4387 62.3818 44.3934 62.3818 43.1155V15.5825C62.3818 14.3046 61.3364 13.2593 60.0586 13.2593H60.0579ZM59.7095 42.5348H13.8212V15.9313H59.7095V42.5348Z" fill="#15D9EE"/>
</g>
<mask id="path-2-inside-1_524_391" fill="white">
<rect x="0.000488281" y="-0.000610352" width="72.1931" height="45.4319" rx="2"/>
</mask>
<rect x="0.000488281" y="-0.000610352" width="72.1931" height="45.4319" rx="2" stroke="#15D9EE" stroke-width="5.12" mask="url(#path-2-inside-1_524_391)"/>
<line x1="24.4283" y1="-0.000610352" x2="24.4283" y2="45.4313" stroke="#15D9EE" stroke-width="1.55589"/>
<line x1="47.9215" y1="-0.000610352" x2="47.9215" y2="45.4313" stroke="#15D9EE" stroke-width="1.55589"/>
<defs>
<clipPath id="clip0_524_391">
<rect width="28.4727" height="9.64649" fill="white" transform="translate(21.938 45.431)"/>
</clipPath>
</defs>
</svg>
