<svg width="52" height="56" viewBox="0 0 52 56" fill="none" xmlns="http://www.w3.org/2000/svg">
<path d="M40.6503 51.1312L40.7848 51.2674C40.5418 51.4222 40.3794 51.6941 40.3794 52.0014V52.8414C40.3794 53.3737 39.9397 53.8135 39.4073 53.8135H3.46902C2.93668 53.8135 2.49694 53.3738 2.49694 52.8414V3.4691C2.49694 2.93676 2.93666 2.49702 3.46902 2.49702H39.4073C39.9397 2.49702 40.3794 2.93674 40.3794 3.4691V30.5741C40.3794 31.0517 40.7715 31.4437 41.249 31.4437C41.7266 31.4437 42.1187 31.0517 42.1187 30.5741L42.1183 3.4691C42.1183 1.97399 40.9036 0.749634 39.3988 0.749634H3.46849C1.97338 0.749634 0.749023 1.96426 0.749023 3.4691V52.8494C0.749023 54.3445 1.96365 55.5689 3.46849 55.5689H39.4068C40.9019 55.5689 42.1263 54.3542 42.1263 52.8494V52.0008C42.1263 51.5211 41.7321 51.1312 41.2485 51.1312H40.6503Z" fill="#15D9EE" stroke="#15D9EE" stroke-width="0.5"/>
<path d="M14.8831 26.7378H28.8171C29.8611 26.7378 30.8029 26.1182 31.2187 25.1595L32.5595 22.0367H33.4928C33.8323 22.0367 34.1124 21.7566 34.1124 21.4171C34.1124 21.0776 33.8323 20.7975 33.4928 20.7975H32.6697C32.3387 15.8757 28.7066 11.8278 23.9883 10.8687C24.3786 10.3937 24.6247 9.78267 24.6247 9.12047C24.6247 7.58434 23.3772 6.34546 21.8497 6.34546C20.3135 6.34546 19.0747 7.59294 19.0747 9.12047C19.0747 9.79088 19.3208 10.3934 19.7111 10.8687C14.9842 11.8275 11.3525 15.8757 11.0297 20.7975H10.2065C9.86704 20.7975 9.58691 21.0776 9.58691 21.4171C9.58691 21.7566 9.86704 22.0367 10.2065 22.0367H11.1399L12.4807 25.1595C12.8971 26.1182 13.8391 26.7378 14.883 26.7378H14.8831ZM21.8501 7.576C22.6987 7.576 23.3862 8.26321 23.3862 9.11213C23.3862 9.96069 22.699 10.6483 21.8501 10.6483C20.9929 10.6483 20.314 9.97785 20.314 9.11213C20.3226 8.27177 21.0098 7.576 21.8501 7.576ZM12.2608 20.789C12.6343 15.8331 16.8095 11.8954 21.8587 11.8954C26.8992 11.8954 31.0746 15.8331 31.448 20.789H12.2608ZM31.2096 22.0364L30.0723 24.6755C29.8602 25.1764 29.3593 25.5073 28.8162 25.5073H14.8822C14.3305 25.5073 13.8382 25.185 13.6261 24.6755L12.4888 22.0364H31.2096Z" fill="#15D9EE"/>
<path d="M12.8551 31.6096C12.609 31.3721 12.2187 31.3807 11.9726 31.6264L9.85937 33.8072L9.04519 32.8145C8.82446 32.5516 8.43416 32.509 8.17123 32.7297C7.9083 32.9505 7.86572 33.3407 8.08645 33.6037L9.34254 35.1312C9.45271 35.2672 9.62266 35.3519 9.80081 35.3601H9.8262C9.99576 35.3601 10.1571 35.2922 10.2759 35.1734L12.881 32.4918C13.1099 32.2461 13.1013 31.8472 12.8552 31.6096L12.8551 31.6096Z" fill="#15D9EE"/>
<path d="M34.3087 33.0597H17.4722C17.1327 33.0597 16.8525 33.3398 16.8525 33.6793C16.8525 34.0188 17.1327 34.2989 17.4722 34.2989H34.3177C34.6572 34.2989 34.9373 34.0188 34.9373 33.6793C34.9369 33.3398 34.6568 33.0597 34.3091 33.0597H34.3087Z" fill="#15D9EE"/>
<path d="M12.8551 38.9155C12.609 38.678 12.2187 38.6866 11.9726 38.9323L9.85937 41.1131L9.04519 40.1208C8.82446 39.8579 8.43416 39.8153 8.17123 40.036C7.9083 40.2567 7.86572 40.647 8.08645 40.91L9.34254 42.4375C9.45271 42.5735 9.62266 42.6582 9.80081 42.6664H9.8262C9.99576 42.6664 10.1571 42.5985 10.2759 42.4797L12.881 39.7981C13.1099 39.5438 13.1013 39.1535 12.8552 38.9156L12.8551 38.9155Z" fill="#15D9EE"/>
<path d="M17.4724 41.605H30.6763C31.0158 41.605 31.2959 41.3248 31.2959 40.9853C31.2959 40.6458 31.0158 40.3657 30.6763 40.3657L17.4724 40.3661C17.1329 40.3661 16.8527 40.6462 16.8527 40.9857C16.8441 41.3334 17.1243 41.605 17.4724 41.605Z" fill="#15D9EE"/>
<path d="M11.9721 46.2308L9.85888 48.4116L9.0447 47.4275C8.82397 47.1646 8.43367 47.122 8.17074 47.3427C7.90781 47.5635 7.86523 47.9538 8.08597 48.2167L9.34205 49.7442C9.45223 49.8802 9.62217 49.9649 9.80032 49.9732H9.82571C9.99527 49.9732 10.1566 49.9052 10.2754 49.7864L12.8805 47.1048C13.118 46.8587 13.1094 46.4684 12.8637 46.2223C12.6086 45.9847 12.2101 45.9847 11.9721 46.2309L11.9721 46.2308Z" fill="#15D9EE"/>
<path d="M17.4724 48.912H34.3178C34.6573 48.912 34.9375 48.6318 34.9375 48.2923C34.9375 47.9528 34.6573 47.6727 34.3178 47.6727L17.4724 47.6731C17.1329 47.6731 16.8527 47.9532 16.8527 48.2927C16.8441 48.6319 17.1243 48.912 17.4724 48.912Z" fill="#15D9EE"/>
<path d="M48.8193 35.8181C47.3937 34.3925 45.5012 33.6116 43.49 33.6116H43.4814C41.4702 33.6116 39.5696 34.4007 38.1435 35.8264C36.7179 37.252 35.9287 39.1445 35.9287 41.1643C35.9287 43.1841 36.7093 45.0762 38.1352 46.5022C39.5608 47.9278 41.4619 48.717 43.4731 48.717H43.4817C45.4929 48.717 47.3936 47.9278 48.8196 46.5022C51.7638 43.5576 51.7638 38.7631 48.8192 35.8186L48.8193 35.8181ZM47.9454 45.6195C45.4845 48.0804 41.4788 48.0804 39.0178 45.6195C36.5655 43.1672 36.5655 39.1616 39.0264 36.7006C40.2571 35.4699 41.8777 34.8508 43.49 34.8508C45.1023 34.8508 46.7147 35.4618 47.9367 36.6924C50.4062 39.1616 50.4062 43.1586 47.9453 45.6195H47.9454Z" fill="#15D9EE"/>
<path d="M46.2306 40.5449H44.1092V38.4235C44.1092 38.084 43.8291 37.8038 43.4896 37.8038C43.1501 37.8038 42.8699 38.084 42.8699 38.4235V40.5449H40.7485C40.409 40.5449 40.1289 40.825 40.1289 41.1645C40.1289 41.504 40.409 41.7841 40.7485 41.7841H42.8699V43.9055C42.8699 44.245 43.1501 44.5251 43.4896 44.5251C43.8291 44.5251 44.1092 44.245 44.1092 43.9055V41.7841H46.2306C46.5701 41.7841 46.8502 41.504 46.8502 41.1645C46.8502 40.825 46.5701 40.5449 46.2306 40.5449Z" fill="#15D9EE"/>
</svg>
